<?xml version="1.0" encoding="UTF-8" standalone="no"?>
<!DOCTYPE svg PUBLIC "-//W3C//DTD SVG 1.1//EN" "http://www.w3.org/Graphics/SVG/1.1/DTD/svg11.dtd">
<svg width="100%" height="100%" viewBox="0 0 900 600" version="1.1" xmlns="http://www.w3.org/2000/svg" xmlns:xlink="http://www.w3.org/1999/xlink" xml:space="preserve" xmlns:serif="http://www.serif.com/" style="fill-rule:evenodd;clip-rule:evenodd;">
    <g>
        <g>
            <path d="M481.74,187.59C476.753,185.819 473.532,188.395 473.694,194.834C473.853,201.273 477.236,204.976 482.223,202.561L481.74,187.59L481.74,187.59Z" style="fill:white;fill-rule:nonzero;stroke:black;stroke-width:0.52px;"/>
            <path d="M486.12,175.53C481.966,172.25 478.091,173.656 476.174,179.806C474.258,185.955 476.27,190.548 481.77,189.864L486.12,175.531L486.12,175.53Z" style="fill:white;fill-rule:nonzero;stroke:black;stroke-width:0.52px;"/>
            <path d="M493.04,163.86C489.461,159.955 485.411,160.722 482.532,166.485C479.657,172.248 480.907,177.103 486.449,177.31L493.04,163.86L493.04,163.86Z" style="fill:white;fill-rule:nonzero;stroke:black;stroke-width:0.52px;"/>
            <path d="M488.5,220.59C482.383,222.844 481.738,231.215 485.604,236.366C489.467,241.517 496.55,242.483 500.412,236.366L488.502,220.586L488.5,220.59Z" style="fill:white;fill-rule:nonzero;stroke:black;stroke-width:0.52px;"/>
            <path d="M481.42,202.88C475.624,200.948 470.403,208.732 469.507,215.758C468.382,224.612 455.824,227.509 462.749,240.871C464.195,232.339 469.832,227.671 474.337,227.349C478.845,227.027 485.608,226.061 488.504,220.588L481.42,202.88L481.42,202.88Z" style="fill:white;fill-rule:nonzero;stroke:black;stroke-width:0.52px;"/>
            <path d="M499.77,237.33C493.008,238.94 492.041,247.955 496.87,254.394C501.003,259.907 513.933,258.579 513.612,253.106L499.77,237.33L499.77,237.33Z" style="fill:white;fill-rule:nonzero;stroke:black;stroke-width:0.52px;"/>
            <path d="M518.93,291.58C519.251,285.785 509.917,283.531 505.409,284.658C500.901,285.785 492.288,284.497 490.276,279.667C488.668,283.531 491.001,287.717 497.522,289.809C502.455,291.394 502.351,294.961 500.901,296.571C504.605,297.215 515.551,297.215 518.93,291.58L518.93,291.58Z" style="fill:white;fill-rule:nonzero;stroke:black;stroke-width:0.52px;"/>
            <path d="M513.62,254.56C507.02,251.663 503.107,256.076 500.582,260.355C496.878,266.633 485.449,258.585 481.586,266.955C486.819,264.702 492.144,269.508 494.624,271.141C501.707,275.809 515.391,274.36 517.324,263.414L513.62,254.56L513.62,254.56Z" style="fill:white;fill-rule:nonzero;stroke:black;stroke-width:0.52px;"/>
            <path d="M517.48,262.28C510.88,267.27 508.305,273.226 508.468,277.251C508.63,281.276 514.263,290.129 520.381,290.612C523.922,283.368 525.693,268.075 517.481,262.28L517.48,262.28Z" style="fill:white;fill-rule:nonzero;stroke:black;stroke-width:0.52px;"/>
            <path d="M490.12,293.35C490.12,290.935 493.662,289.97 496.074,290.774C498.491,291.579 502.191,293.994 500.903,296.57L490.12,293.35L490.12,293.35Z" style="fill:white;fill-rule:nonzero;stroke:black;stroke-width:0.52px;"/>
            <path d="M453.73,280.15C453.088,277.253 457.755,272.262 464.034,274.999C470.309,277.735 471.117,283.048 468.538,285.141L453.73,280.15L453.73,280.15Z" style="fill:white;fill-rule:nonzero;stroke:black;stroke-width:0.52px;"/>
            <path d="M469.02,285.46C468.537,283.85 473.058,280.635 480.774,282.562C488.499,284.494 490.395,289.469 490.111,293.348L469.02,285.46L469.02,285.46Z" style="fill:white;fill-rule:nonzero;stroke:black;stroke-width:0.52px;"/>
            <path d="M452.93,280.15C456.955,277.092 455.43,271.295 451.801,269.525C445.201,266.305 447.618,257.935 443.43,256.325C439.247,254.715 435.222,251.818 435.059,248.92C432.968,252.944 434.255,256.647 437.155,259.223C440.051,261.799 434.901,272.262 438.601,274.999L452.93,280.15L452.93,280.15Z" style="fill:white;fill-rule:nonzero;stroke:black;stroke-width:0.52px;"/>
            <path d="M366.64,277.9C363.26,272.588 355.21,273.554 351.83,277.256C348.45,280.959 348.933,286.432 352.152,288.846L366.64,277.899L366.64,277.9Z" style="fill:white;fill-rule:nonzero;stroke:black;stroke-width:0.52px;"/>
            <path d="M385.96,270.01C384.672,262.927 376.14,262.122 371.472,263.893C366.804,265.664 363.584,272.747 366.643,277.898L385.961,270.01L385.96,270.01Z" style="fill:white;fill-rule:nonzero;stroke:black;stroke-width:0.52px;"/>
            <path d="M398.84,269.04C401.898,263.084 395.943,254.23 389.181,252.942C383.537,251.868 376.866,251.896 374.693,246.342C373.325,251.172 376.947,254.23 381.133,256.967C385.318,259.704 380.327,266.787 387.089,270.811L398.841,269.04L398.84,269.04Z" style="fill:white;fill-rule:nonzero;stroke:black;stroke-width:0.52px;"/>
            <path d="M398.2,269.25C396.791,264.983 399.649,259.307 405.433,259.705C411.217,260.103 414.513,264.306 411.962,269.56L398.2,269.25L398.2,269.25Z" style="fill:white;fill-rule:nonzero;stroke:black;stroke-width:0.52px;"/>
            <path d="M411.07,269.57C410.274,265.148 413.9,259.93 419.571,261.135C425.242,262.34 427.913,266.965 424.654,271.81L411.07,269.57L411.07,269.57Z" style="fill:white;fill-rule:nonzero;stroke:black;stroke-width:0.52px;"/>
            <path d="M423.86,271.6C423.285,267.143 427.168,262.113 432.773,263.599C438.377,265.086 440.814,269.839 437.314,274.514L423.86,271.6L423.86,271.6Z" style="fill:white;fill-rule:nonzero;stroke:black;stroke-width:0.52px;"/>
            <path d="M326.72,345.35C315.934,345.35 313.3,347.918 311.749,359.033C309.817,372.877 328.652,374.487 326.72,345.35Z" style="fill:white;fill-rule:nonzero;stroke:black;stroke-width:0.52px;"/>
            <path d="M331.55,330.86C314.969,324.582 305.955,350.821 289.535,346.153C295.41,355.49 309.653,346.17 314.969,347.119C323.984,348.729 343.462,345.348 331.55,330.86L331.55,330.86Z" style="fill:white;fill-rule:nonzero;stroke:black;stroke-width:0.52px;"/>
            <path d="M320.76,366.76C312.55,363.058 303.696,375.614 305.306,381.087C307.35,388.039 326.072,382.375 320.76,366.76Z" style="fill:white;fill-rule:nonzero;stroke:black;stroke-width:0.52px;"/>
            <path d="M282.45,420.85C286.958,422.133 292.43,424.713 291.465,433.404C290.499,442.096 274.08,459.804 259.27,460.771C244.46,461.738 239.147,479.604 226.43,474.613C238.342,472.363 238.342,458.838 247.679,454.655C240.917,452.238 237.376,467.534 228.684,467.534C219.991,467.534 215.806,481.376 205.181,480.409C194.556,479.447 193.438,497.263 172.181,497.476C155.922,497.634 135.8,516.63 128.556,508.422C144.332,506.168 150.698,497.426 160.108,487.814C175.24,472.364 192.304,479.285 198.099,465.601C191.176,470.268 183.128,472.522 175.24,472.364C165.338,472.159 154.474,488.138 143.366,481.055C149.805,480.251 153.991,477.514 160.752,470.43C167.675,463.176 177.835,467.864 185.865,460.451C198.421,448.859 209.207,458.518 221.28,444.03C217.899,442.422 210.655,443.547 203.894,447.088C197.132,450.63 188.44,444.672 180.713,448.859C181.678,439.363 199.708,444.797 210.977,438.234C223.695,430.83 234.239,433.001 244.3,433.888C230.295,433.809 224.822,420.525 205.505,424.388C197.08,426.076 190.373,412.8 182.002,419.559C182.243,414.572 191.017,410.546 200.032,415.376C209.046,420.205 212.68,411.15 230.618,422.459C238.023,427.126 250.74,419.559 258.789,424.551C257.742,421.493 253.154,419.559 247.762,419.963C251.142,413.043 272.955,413.926 282.453,420.851L282.45,420.85Z" style="fill:white;fill-rule:nonzero;stroke:black;stroke-width:0.52px;"/>
            <path d="M296.78,410.38C289.697,404.907 279.877,411.508 273.116,408.931C273.116,413.437 275.37,420.2 282.775,422.775C285.029,421.167 295.17,412.312 296.78,410.38L296.78,410.38Z" style="fill:white;fill-rule:nonzero;stroke:black;stroke-width:0.52px;"/>
            <path d="M307.89,394.77C296.782,389.136 294.851,403.141 286.158,400.243C286.48,404.268 289.7,409.258 296.783,410.385L307.891,394.77L307.89,394.77Z" style="fill:white;fill-rule:nonzero;stroke:black;stroke-width:0.52px;"/>
            <path d="M314.49,382.05C298.07,375.611 295.977,391.387 286.319,388.328C288.573,393.801 302.417,396.699 309.5,394.767L314.49,382.05L314.49,382.05Z" style="fill:white;fill-rule:nonzero;stroke:black;stroke-width:0.52px;"/>
            <path d="M337.02,312.99C332.673,306.873 323.498,311.863 322.049,319.107C320.6,326.351 324.141,336.493 330.259,334.239L337.02,312.99L337.02,312.99Z" style="fill:white;fill-rule:nonzero;stroke:black;stroke-width:0.52px;"/>
            <path d="M348.13,293.67C340.564,291.9 331.871,292.704 332.837,300.109C329.939,301.397 329.135,310.895 337.022,312.987L348.13,293.669L348.13,293.67Z" style="fill:white;fill-rule:nonzero;stroke:black;stroke-width:0.52px;"/>
            <path d="M353.12,288.68C345.715,279.987 337.457,280.189 332.837,283.85C324.305,290.612 316.014,286.748 315.773,293.509C320.925,289.565 325.432,294.314 329.617,292.865C333.802,291.417 336.861,299.465 348.452,296.085L353.12,288.68L353.12,288.68Z" style="fill:white;fill-rule:nonzero;stroke:black;stroke-width:0.52px;"/>
            <path d="M335.25,418.6C336.377,420.692 343.299,421.658 346.68,418.117C351.16,413.421 346.197,400.408 339.114,399.442C332.031,398.476 331.387,414.092 335.25,418.6L335.25,418.6Z" style="fill:white;fill-rule:nonzero;stroke:black;stroke-width:0.52px;"/>
            <path d="M327.2,418.92C337.341,422.62 341.688,414.249 336.215,408.939C334.766,410.71 329.453,417.149 327.2,418.92Z" style="fill:white;fill-rule:nonzero;stroke:black;stroke-width:0.52px;"/>
            <path d="M289.21,432.76C287.278,438.556 277.297,439.522 266.029,457.552C254.76,475.581 243.975,468.015 241.238,480.41C254.76,469.464 265.38,476.735 273.433,465.922C285.668,449.501 295.742,451.859 300.478,440.809C307.239,425.034 336.859,425.355 338.469,400.565C328.488,398.633 296.936,425.355 289.21,432.759L289.21,432.76Z" style="fill:white;fill-rule:nonzero;stroke:black;stroke-width:0.52px;"/>
            <path d="M543.24,189.36C556.119,193.545 556.44,210.287 571.248,215.76C586.061,221.233 587.511,234.433 599.581,231.214C588.314,228.155 589.118,215.116 577.368,211.896C563.585,208.12 558.372,187.105 547.422,183.886" style="fill:white;fill-rule:nonzero;stroke:black;stroke-width:0.52px;"/>
            <path d="M602.32,276.77C604.574,281.921 604.253,291.097 596.203,293.512C600.549,296.249 606.986,293.673 610.528,287.717C605.216,299.468 608.758,310.093 617.128,312.186C613.103,303.976 622.12,300.112 619.224,294.8C624.537,297.054 629.203,304.298 629.041,308.805C635.966,301.078 623.891,290.775 626.145,283.532L602.32,276.771L602.32,276.77Z" style="fill:white;fill-rule:nonzero;stroke:black;stroke-width:0.52px;"/>
            <path d="M518.93,359.51C511.042,352.588 507.676,361.32 503.797,358.303C500.176,355.485 495.347,355.083 493.497,357.9C500.259,358.142 496.955,363.373 510.076,364.661C496.955,365.547 499.372,380.196 490.597,379.471C499.934,388.325 504.764,371.583 512.33,374.32C510.076,374.964 515.872,380.276 511.847,387.359C518.367,387.198 521.022,378.183 521.83,373.515L518.93,359.51L518.93,359.51Z" style="fill:white;fill-rule:nonzero;stroke:black;stroke-width:0.52px;"/>
            <path d="M345.23,434.69C342.332,432.277 333.961,431.148 330.742,433.082C327.523,435.011 328.65,435.494 332.513,435.819C336.377,436.14 341.365,442.39 332.996,442.74C329.132,442.898 330.42,452.236 322.371,452.882C325.671,456.907 335.089,454.249 338.469,449.824C337.825,453.445 342.654,456.745 340.723,461.091C346.679,461.737 343.218,449.02 352.636,449.662C348.772,450.145 350.382,458.837 357.143,456.583C353.118,458.516 355.211,463.183 359.718,462.058C356.821,463.024 355.855,466.724 359.879,468.82C363.743,463.508 359.396,444.512 345.23,434.691L345.23,434.69Z" style="fill:white;fill-rule:nonzero;stroke:black;stroke-width:0.52px;"/>
            <path d="M695.85,257.07C708.171,257.07 718.158,247.08 718.158,234.758C718.158,222.438 708.171,212.448 695.85,212.448C683.525,212.448 673.537,222.438 673.537,234.758C673.537,247.08 683.525,257.07 695.85,257.07Z" style="fill:white;fill-rule:nonzero;stroke:black;stroke-width:0.52px;"/>
            <path d="M579.3,284.02C586.063,277.581 596.367,274.361 603.446,279.19C610.529,284.02 634.034,289.815 645.625,281.766C657.213,273.717 662.688,269.531 667.838,270.497C671.705,276.293 676.371,279.029 682.167,279.512C683.938,281.444 690.217,283.054 693.759,282.57C698.909,283.858 705.188,282.249 710.176,276.775C717.905,277.902 725.147,272.107 727.884,263.414C736.092,262.449 736.576,253.272 731.426,247.155C726.596,246.19 730.301,229.93 712.751,233.15C720.159,237.658 714.521,246.672 720.642,250.858C716.455,250.858 711.063,252.629 709.775,258.907C711.384,254.561 709.534,251.663 708.405,250.698C708.567,246.995 700.359,237.9 692.63,241.2C698.184,242.407 695.046,251.342 699.071,254.722C696.171,254.883 693.113,256.332 691.342,258.907C689.25,255.205 681.846,251.341 677.338,251.019C677.338,249.731 677.096,247.156 676.534,245.868C674.521,242.005 672.83,237.417 673.634,231.541C669.771,235.726 666.551,241.522 664.621,245.707C658.505,241.522 643.371,247.639 636.288,249.248C629.205,250.858 605.38,246.995 599.905,241.199C594.435,235.404 583.809,231.863 573.83,228.965C560.105,224.982 559.984,209.97 544.851,199.667C544.531,218.341 572.864,277.581 579.301,284.02L579.3,284.02Z" style="fill:white;fill-rule:nonzero;stroke:black;stroke-width:0.52px;"/>
            <path d="M421.54,426.32C433.453,426.32 443.111,416.662 443.111,404.749C443.111,392.836 433.453,383.179 421.54,383.179C409.627,383.179 399.969,392.837 399.969,404.749C399.969,416.662 409.627,426.32 421.54,426.32Z" style="fill:white;fill-rule:nonzero;stroke:black;stroke-width:0.52px;"/>
            <path d="M370.02,409.74C374.366,415.375 381.771,415.054 384.83,414.57C387.406,421.329 395.615,421.17 399.157,424.87C402.699,428.575 414.77,428.254 418.312,426.158C415.095,425.837 410.909,423.908 406.884,420.525C402.026,416.445 404.308,408.291 400.445,405.394C403.342,402.174 403.825,396.862 403.181,394.769C406.24,392.998 408.494,390.1 408.816,388.652C414.129,388.329 418.795,385.593 420.729,383.5C423.466,386.076 430.387,382.695 434.092,387.042C434.896,376.417 424.754,370.782 417.992,374.325C415.254,372.876 408.011,373.842 406.724,375.773C404.47,374.807 398.192,378.027 395.294,380.12C398.513,378.349 398.996,373.037 397.708,371.105C400.445,369.978 403.504,366.276 403.825,363.539C407.689,364.183 413.483,361.607 416.058,362.251C411.875,356.778 404.953,354.846 397.869,355.329C390.544,355.732 387.406,360.883 386.44,366.437C382.094,369.013 380.645,377.705 382.255,380.764C379.759,380.684 377.425,383.099 376.46,384.467C373.079,383.018 368.25,381.972 364.789,381.972" style="fill:white;fill-rule:nonzero;stroke:black;stroke-width:0.52px;"/>
            <path d="M366.32,373.2C364.871,369.015 366.79,365.247 367.769,361.932C370.264,353.481 368.735,351.307 361.169,352.435C360.525,356.459 364.388,369.66 366.32,373.201L366.32,373.2Z" style="fill:white;fill-rule:nonzero;stroke:black;stroke-width:0.52px;"/>
            <path d="M360.77,352.91C362.702,354.842 369.544,355.728 370.268,349.61C371.1,342.588 368.256,339.87 362.139,342.607C361.656,344.217 361.092,350.817 360.77,352.91L360.77,352.91Z" style="fill:white;fill-rule:nonzero;stroke:black;stroke-width:0.52px;"/>
            <path d="M362.22,342.37C364.796,343.416 370.35,345.509 373.408,339.553C375.974,334.557 372.603,330.699 367.291,331.02C366.003,332.469 363.428,337.621 362.22,342.37L362.22,342.37Z" style="fill:white;fill-rule:nonzero;stroke:black;stroke-width:0.52px;"/>
            <path d="M366.97,330.54C367.614,332.472 374.214,338.911 379.043,334.243C383.873,329.574 383.873,322.653 376.628,320.077C374.696,320.398 368.901,327.159 366.97,330.54L366.97,330.54Z" style="fill:white;fill-rule:nonzero;stroke:black;stroke-width:0.52px;"/>
            <path d="M376.62,320.08C378.069,324.104 382.576,331.026 390.947,327.807C399.318,324.587 395.777,314.124 391.913,312.031C389.659,312.192 380.483,316.377 376.62,320.08L376.62,320.08Z" style="fill:white;fill-rule:nonzero;stroke:black;stroke-width:0.52px;"/>
            <path d="M391.92,312.03C391.276,315.572 391.92,325.23 403.349,325.069C414.777,324.908 411.56,311.547 408.662,309.615C403.993,309.615 396.106,309.776 391.919,312.03L391.92,312.03Z" style="fill:white;fill-rule:nonzero;stroke:black;stroke-width:0.52px;"/>
            <path d="M409.14,310.09C407.852,312.827 404.95,330.84 427.331,325.866C430.227,325.222 437.794,308.641 409.14,310.09Z" style="fill:white;fill-rule:nonzero;stroke:black;stroke-width:0.52px;"/>
            <path d="M421.37,311.7C419.12,313.953 424.912,332.144 440.045,329.085C455.178,326.026 442.462,308.802 421.37,311.7Z" style="fill:white;fill-rule:nonzero;stroke:black;stroke-width:0.52px;"/>
            <path d="M434.25,314.44C431.837,319.43 435.462,334.24 454.133,334.24C471.054,334.24 453.246,314.762 434.25,314.44Z" style="fill:white;fill-rule:nonzero;stroke:black;stroke-width:0.52px;"/>
            <path d="M448.9,318.79C447.688,321.556 446.204,337.258 468.217,338.59C484.155,339.556 480.292,317.019 448.9,318.79Z" style="fill:white;fill-rule:nonzero;stroke:black;stroke-width:0.52px;"/>
            <path d="M472.57,325.39C469.837,330.22 466.937,342.293 491.083,343.259C506.554,343.878 497.041,325.712 472.57,325.39Z" style="fill:white;fill-rule:nonzero;stroke:black;stroke-width:0.52px;"/>
            <path d="M492.69,329.09C489.148,333.92 491.757,343.393 500.736,345.188C512.007,347.442 513.615,336.817 505.89,331.666C498.161,326.515 492.69,329.09 492.69,329.09L492.69,329.09Z" style="fill:white;fill-rule:nonzero;stroke:black;stroke-width:0.52px;"/>
            <path d="M503.64,331.34C501.065,335.847 502.661,346.794 519.736,346.794C523.278,346.794 536.803,332.95 503.64,331.34Z" style="fill:white;fill-rule:nonzero;stroke:black;stroke-width:0.52px;"/>
            <path d="M371.48,541.27C385.31,541.27 396.522,530.057 396.522,516.228C396.522,502.395 385.31,491.182 371.48,491.182C357.649,491.182 346.437,502.395 346.437,516.228C346.437,530.057 357.649,541.27 371.48,541.27Z" style="fill:white;fill-rule:nonzero;stroke:black;stroke-width:0.52px;"/>
            <path d="M555.15,177.13C553.217,179.062 549.196,184.857 548.387,187.11C540.017,212.223 562.363,230.981 575.434,257.94C585.738,279.189 584.45,312.673 568.35,333.922C562.842,341.191 564.488,343.259 557.404,350.664C554.688,353.505 551.608,357.104 552.575,367.406C557.083,365.796 563.521,369.982 564.808,373.524C568.029,371.914 572.537,372.558 574.145,374.489C579.616,371.914 584.125,373.201 588.953,378.353C593.141,377.709 597.649,378.353 601.832,382.86C604.087,378.353 608.595,376.743 611.812,377.709C611.491,371.914 617.287,367.729 622.437,369.982C620.828,362.255 627.912,356.459 634.675,358.713C640.466,354.206 652.058,353.884 657.854,360.645C647.55,357.748 647.874,368.694 639.179,367.728C641.433,374.168 635.637,377.87 629.845,379.962C633.545,378.192 637.57,376.099 638.858,378.353C642.079,375.536 648.516,376.582 650.129,378.031C654.391,376.663 658.5,377.709 660.429,382.86C666.225,386.402 670.087,395.416 665.904,402.178C664.616,395.095 659.787,395.417 657.854,392.519C653.345,394.129 648.837,394.129 647.55,391.231C644.975,393.807 636.283,396.061 632.421,392.197C630.971,397.992 625.979,402.822 620.183,402.822C621.795,407.329 617.287,415.058 613.745,418.92C619.22,421.816 617.608,428.257 616.32,432.12C624.691,433.407 617.608,440.812 632.095,445.641C625.016,447.895 611.17,445.641 609.237,436.949C602.154,436.628 597.324,429.545 597.649,422.136C592.174,416.986 591.37,409.582 598.937,404.431C592.495,406.363 588.953,396.06 579.616,400.246C574.974,402.328 562.716,398.797 562.878,394.45C560.944,397.67 549.195,396.383 547.582,390.909C543.719,393.002 534.703,389.46 534.865,384.148C529.873,386.402 523.115,382.377 523.436,377.226C518.769,376.582 518.286,372.397 518.607,368.855C514.419,366.923 515.548,362.899 517.157,358.07C514.261,354.85 515.548,350.343 517.802,346.157C514.582,342.937 515.227,339.074 516.19,334.567C500.736,333.279 481.377,329.552 436.99,315.894C370.023,295.289 351.993,343.582 366.803,373.846C383.89,408.765 364.871,416.346 370.667,442.425C376.784,443.713 380.003,448.863 379.682,454.338C383.303,454.496 385.878,457.876 384.591,464.317C387.649,463.755 391.594,464.638 394.169,467.213C396.423,463.03 403.828,462.063 407.692,466.892C416.061,466.246 420.248,473.009 419.927,481.38C424.432,489.43 422.823,499.251 417.994,505.526C418.477,502.147 417.994,497.318 417.836,494.422C417.536,489.093 410.107,487.981 410.912,483.634C407.048,483.955 403.345,481.863 402.058,478.968C399.804,480.897 396.584,481.543 393.848,480.576C398.194,482.509 401.575,490.234 400.287,495.384C402.541,499.251 402.058,506.334 399.321,509.392C398.033,515.667 393.204,517.921 386.926,515.184C390.468,512.934 391.755,508.909 391.594,505.525C389.341,503.596 388.214,499.892 388.053,497.638C381.775,498.604 373.082,493.292 371.479,491.192C357.648,491.192 346.436,502.405 346.436,516.238C345.792,511.084 339.277,506.009 340.081,501.663C336.218,489.75 341.691,478.642 357.467,476.392C355.536,471.884 362.297,467.213 359.721,462.063C356.431,455.484 350.385,446.93 341.37,436.95C346.844,427.612 345.234,415.058 342.014,407.33C337.391,396.234 332.999,398.959 316.579,416.988C289.819,446.371 254.119,438.238 222.567,457.555C214.183,462.688 205.826,464.638 214.84,455.626C223.855,446.609 247.68,437.597 263.133,429.868C292.073,415.397 316.578,391.233 326.237,344.228C348.934,233.768 432.477,270.178 485.277,290.783C534.848,310.129 525.844,266.314 500.731,239.914C470.548,208.182 476.585,183.25 490.752,163.288C516.185,159.746 564.965,168.6 555.144,177.133L555.15,177.13Z" style="fill:white;fill-rule:nonzero;stroke:black;stroke-width:0.52px;"/>
            <path d="M644.82,448.48C660.037,448.48 672.374,436.147 672.374,420.93C672.374,405.712 660.036,393.376 644.82,393.376C629.603,393.376 617.266,405.712 617.266,420.93C617.266,436.147 629.604,448.48 644.82,448.48Z" style="fill:white;fill-rule:nonzero;stroke:black;stroke-width:0.52px;"/>
        </g>
        <g>
            <path d="M539.7,178.41C533.583,205.455 538.733,217.689 547.75,229.601C566.379,254.222 581.233,310.412 559.983,347.111" style="fill:none;stroke:black;stroke-width:0.52px;"/>
            <g>
                <path d="M571.89,315.41C574.465,314.444 579.294,311.386 580.423,306.073" style="fill:none;stroke:black;stroke-width:0.52px;stroke-linecap:round;"/>
                <path d="M573.82,303.66C574.624,298.992 581.866,296.98 582.028,291.99" style="fill:none;stroke:black;stroke-width:0.52px;stroke-linecap:round;"/>
                <path d="M573.98,285.46C573.497,280.63 581.226,276.284 580.097,271.455" style="fill:none;stroke:black;stroke-width:0.52px;stroke-linecap:round;"/>
                <path d="M569.8,268.08C569.154,265.343 576.238,260.192 574.308,255.846" style="fill:none;stroke:black;stroke-width:0.52px;stroke-linecap:round;"/>
                <path d="M564.49,251.18C563.04,248.121 567.869,244.58 565.778,241.36" style="fill:none;stroke:black;stroke-width:0.52px;stroke-linecap:round;"/>
                <path d="M556.76,237.65C556.277,235.558 559.256,230.97 557.648,228.234" style="fill:none;stroke:black;stroke-width:0.52px;stroke-linecap:round;"/>
                <path d="M549.03,221.72C549.672,220.915 552.251,218.983 551.201,216.569" style="fill:none;stroke:black;stroke-width:0.52px;stroke-linecap:round;"/>
                <path d="M543.72,210.05C544.766,209.486 547.903,208.52 547.503,206.187" style="fill:none;stroke:black;stroke-width:0.52px;stroke-linecap:round;"/>
                <path d="M382.58,513.57C376.141,511.316 368.092,514.537 366.482,520.012" style="fill:none;stroke:black;stroke-width:0.52px;stroke-linecap:round;stroke-linejoin:round;"/>
                <path d="M371.31,525C372.115,519.529 380.486,517.112 383.061,519.688C377.749,516.792 375.173,527.092 379.841,527.417" style="fill:none;stroke:black;stroke-width:0.52px;stroke-linecap:round;stroke-linejoin:round;"/>
                <path d="M423.15,397.67C419.287,399.602 418.162,406.685 423.15,411.999" style="fill:none;stroke:black;stroke-width:0.52px;stroke-linecap:round;stroke-linejoin:round;"/>
                <path d="M428.94,399.28C426.207,401.534 426.365,408.295 430.39,409.905C427.011,407.49 430.39,403.305 432.807,403.144C435.219,402.983 436.828,405.881 433.932,408.778" style="fill:none;stroke:black;stroke-width:0.52px;stroke-linecap:round;stroke-linejoin:round;"/>
                <path d="M655.12,415.21C646.108,412.797 638.862,423.26 647.07,432.598C646.912,423.581 653.349,417.627 661.237,419.235" style="fill:none;stroke:black;stroke-width:0.52px;stroke-linecap:round;stroke-linejoin:round;"/>
                <path d="M657.61,425.47C655.393,425.47 654.148,427.203 654.148,428.891C654.148,430.662 655.677,432.353 658.173,432.353C659.785,432.353 661.073,430.503 661.073,429.053" style="fill:none;stroke:black;stroke-width:0.52px;stroke-linecap:round;stroke-linejoin:round;"/>
                <path d="M689.4,227.83C690.85,233.303 698.417,235.557 704.371,234.269" style="fill:none;stroke:black;stroke-width:0.52px;stroke-linecap:round;stroke-linejoin:round;"/>
                <path d="M704.37,230.73C699.703,230.891 695.841,226.545 696.162,222.842C696.162,225.579 702.441,226.867 704.37,225.096" style="fill:none;stroke:black;stroke-width:0.52px;stroke-linecap:round;stroke-linejoin:round;"/>
                <path d="M384.83,414.57C383.542,411.349 388.694,408.13 388.855,405.071C389.016,402.013 394.65,399.598 400.445,405.393" style="fill:none;stroke:black;stroke-width:0.52px;stroke-linecap:round;"/>
                <path d="M397.71,371.11C396.583,371.593 395.617,372.237 394.651,372.559" style="fill:none;stroke:black;stroke-width:0.52px;stroke-linecap:round;"/>
                <path d="M408.82,388.65C407.451,388.731 404.635,388.57 403.105,387.523" style="fill:none;stroke:black;stroke-width:0.52px;stroke-linecap:round;"/>
                <path d="M403.19,394.77C402.063,395.334 399.567,396.3 398.118,396.622" style="fill:none;stroke:black;stroke-width:0.52px;stroke-linecap:round;"/>
                <path d="M347.97,492C347.809,494.9 350.707,499.083 352.316,500.371" style="fill:none;stroke:black;stroke-width:0.52px;stroke-linecap:round;"/>
                <path d="M360.53,485.08C358.92,487.493 357.955,491.68 358.92,494.576" style="fill:none;stroke:black;stroke-width:0.52px;stroke-linecap:round;"/>
                <path d="M384.51,494.74C381.612,492.807 383.544,487.815 383.222,484.598C382.9,481.377 386.603,476.227 393.847,480.573" style="fill:none;stroke:black;stroke-width:0.52px;stroke-linecap:round;"/>
                <path d="M357.47,476.39C360.368,475.907 363.426,476.065 365.358,476.869" style="fill:none;stroke:black;stroke-width:0.52px;stroke-linecap:round;"/>
                <path d="M394.17,467.21C392.883,468.981 392.56,470.914 392.4,472.202" style="fill:none;stroke:black;stroke-width:0.52px;stroke-linecap:round;"/>
                <path d="M407.69,466.89C405.436,466.89 403.505,468.498 402.539,470.111" style="fill:none;stroke:black;stroke-width:0.52px;stroke-linecap:round;"/>
                <path d="M376.46,384.47C379.036,385.356 385.716,389.46 385.958,393.727" style="fill:none;stroke:black;stroke-width:0.52px;stroke-linecap:round;"/>
                <path d="M403.83,363.54C395.943,363.379 392.884,355.33 398.84,355.33" style="fill:none;stroke:black;stroke-width:0.52px;stroke-linecap:round;"/>
                <path d="M418,374.32C414.942,375.608 416.392,380.92 420.738,383.496" style="fill:none;stroke:black;stroke-width:0.52px;stroke-linecap:round;"/>
                <path d="M399.16,424.87C397.63,422.941 399.643,417.308 404.633,418.995" style="fill:none;stroke:black;stroke-width:0.52px;stroke-linecap:round;"/>
                <path d="M410.91,483.63C411.23,478.722 417.43,475.822 419.926,481.376" style="fill:none;stroke:black;stroke-width:0.52px;stroke-linecap:round;"/>
                <path d="M388.05,497.63C387.647,492.238 390.384,490.467 392.798,490.147C395.213,489.826 398.675,491.834 400.285,495.376" style="fill:none;stroke:black;stroke-width:0.52px;stroke-linecap:round;"/>
                <path d="M340.08,501.66C340.402,498.439 343.139,495.06 346.036,495.543" style="fill:none;stroke:black;stroke-width:0.52px;stroke-linecap:round;"/>
                <path d="M634.67,358.71C632.574,360.24 631.208,367.081 639.174,367.725" style="fill:none;stroke:black;stroke-width:0.52px;stroke-linecap:round;"/>
                <path d="M622.44,369.98C622.44,370.785 623.486,371.912 624.132,372.395" style="fill:none;stroke:black;stroke-width:0.52px;stroke-linecap:round;"/>
                <path d="M660.43,382.86C658.338,381.25 652.943,387.77 657.855,392.519" style="fill:none;stroke:black;stroke-width:0.52px;stroke-linecap:round;"/>
                <path d="M609.24,436.95C608.032,432.363 612.298,431.154 616.323,432.121" style="fill:none;stroke:black;stroke-width:0.52px;stroke-linecap:round;"/>
                <path d="M598.94,404.43C601.353,402.82 603.769,401.05 606.828,400.245" style="fill:none;stroke:black;stroke-width:0.52px;stroke-linecap:round;"/>
                <path d="M597.65,422.13C597.65,418.268 599.579,415.051 601.35,414.084" style="fill:none;stroke:black;stroke-width:0.52px;stroke-linecap:round;"/>
                <path d="M611.81,377.71C611.489,382.378 613.422,386.886 614.872,389.3" style="fill:none;stroke:black;stroke-width:0.52px;stroke-linecap:round;"/>
                <path d="M650.13,378.03C647.793,378.755 645.701,379.64 644.818,381.572" style="fill:none;stroke:black;stroke-width:0.52px;stroke-linecap:round;"/>
                <path d="M647.55,391.23C648.679,390.264 649.967,389.138 650.529,388.333" style="fill:none;stroke:black;stroke-width:0.52px;stroke-linecap:round;"/>
                <path d="M708.4,250.69C708.4,255.197 702.767,257.612 699.067,254.714" style="fill:none;stroke:black;stroke-width:0.52px;stroke-linecap:round;"/>
                <path d="M720.64,250.85C723.132,252.782 731.744,250.931 729.732,245.941" style="fill:none;stroke:black;stroke-width:0.52px;stroke-linecap:round;"/>
                <path d="M710.17,276.77C708.399,276.448 705.341,274.516 704.053,272.907" style="fill:none;stroke:black;stroke-width:0.52px;stroke-linecap:round;"/>
                <path d="M727.88,263.41C724.984,264.054 723.051,263.41 721.601,262.766" style="fill:none;stroke:black;stroke-width:0.52px;stroke-linecap:round;"/>
                <path d="M682.16,279.51C683.768,279.51 687.631,278.866 690.289,277.498" style="fill:none;stroke:black;stroke-width:0.52px;stroke-linecap:round;"/>
                <path d="M677.33,251.02C675.238,250.779 673.705,251.181 672.501,251.986" style="fill:none;stroke:black;stroke-width:0.52px;stroke-linecap:round;"/>
                <path d="M709.77,258.9C709.208,260.913 707.757,264.051 705.987,265.42" style="fill:none;stroke:black;stroke-width:0.52px;stroke-linecap:round;"/>
                <path d="M671.86,265.99C675.885,264.219 680.877,277.902 690.535,273.073" style="fill:none;stroke:black;stroke-width:0.52px;stroke-linecap:round;stroke-linejoin:round;"/>
                <path d="M691.34,258.9C690.053,260.671 689.248,263.407 689.086,265.822" style="fill:none;stroke:black;stroke-width:0.52px;stroke-linecap:round;stroke-linejoin:round;"/>
            </g>
            <path d="M498.81,237.98C500.098,237.819 502.352,237.336 502.835,235.726" style="fill:none;stroke:black;stroke-width:0.52px;"/>
            <path d="M333.16,387.85C337.99,390.587 341.37,395.255 339.278,402.177" style="fill:none;stroke:black;stroke-width:0.52px;"/>
            <path d="M554.5,223.17C555.95,224.136 561.425,224.136 564.483,223.009" style="fill:none;stroke:black;stroke-width:0.52px;"/>
            <path d="M568.35,226.39C568.188,228.644 568.833,237.175 564.488,238.946" style="fill:none;stroke:black;stroke-width:0.52px;"/>
            <path d="M566.1,237.82C570.125,239.108 578.175,238.625 580.75,231.22" style="fill:none;stroke:black;stroke-width:0.52px;"/>
            <path d="M575.11,237.49C577.202,240.71 577.843,246.988 571.568,250.368" style="fill:none;stroke:black;stroke-width:0.52px;"/>
            <path d="M576.72,242.81C581.387,244.42 592.174,244.58 591.045,235.405" style="fill:none;stroke:black;stroke-width:0.52px;"/>
            <path d="M587.35,242.81C590.571,247.317 604.738,252.63 602.483,243.293" style="fill:none;stroke:black;stroke-width:0.52px;"/>
            <path d="M574.31,255.84C579.781,257.128 587.51,253.425 584.289,243.767" style="fill:none;stroke:black;stroke-width:0.52px;"/>
            <path d="M599.74,248.6C600.544,252.302 618.573,256.166 616.161,247.795" style="fill:none;stroke:black;stroke-width:0.52px;"/>
            <path d="M612.78,252.63C616.163,260.357 634.03,259.713 628.397,249.41" style="fill:none;stroke:black;stroke-width:0.52px;"/>
            <path d="M625.5,257.45C629.042,261.797 644.821,259.221 638.542,248.757" style="fill:none;stroke:black;stroke-width:0.52px;"/>
            <path d="M638.37,257.29C648.191,264.695 659.62,254.07 647.224,246.343" style="fill:none;stroke:black;stroke-width:0.52px;"/>
            <path d="M652.86,254.88C661.556,261.802 672.181,249.245 664.614,245.704" style="fill:none;stroke:black;stroke-width:0.52px;"/>
            <path d="M584.12,251.98C586.858,252.785 592.653,252.463 593.941,247.473" style="fill:none;stroke:black;stroke-width:0.52px;"/>
            <path d="M591.77,250.85C591.449,258.175 603.766,260.992 606.903,252.541" style="fill:none;stroke:black;stroke-width:0.52px;"/>
            <path d="M602.8,257.13C605.054,261.959 615.838,263.891 617.608,256.969" style="fill:none;stroke:black;stroke-width:0.52px;"/>
            <path d="M615.84,260.19C617.611,265.02 626.948,264.537 629.523,259.546" style="fill:none;stroke:black;stroke-width:0.52px;"/>
            <path d="M626.14,262.77C629.036,269.048 640.948,269.048 643.686,259.872" style="fill:none;stroke:black;stroke-width:0.52px;"/>
            <path d="M641.6,263.89C646.267,266.788 656.25,265.661 655.442,256.646" style="fill:none;stroke:black;stroke-width:0.52px;"/>
            <path d="M653.51,263.09C660.431,268.725 670.252,263.251 665.423,253.753" style="fill:none;stroke:black;stroke-width:0.52px;"/>
            <path d="M664.94,270.49C668.644,269.846 670.573,262.441 666.711,260.51" style="fill:none;stroke:black;stroke-width:0.52px;"/>
            <path d="M579.14,271.78C586.865,267.595 588.315,260.512 583.002,253.59" style="fill:none;stroke:black;stroke-width:0.52px;"/>
            <path d="M585.74,264.7C590.569,267.597 599.744,264.539 601.353,257.456" style="fill:none;stroke:black;stroke-width:0.52px;"/>
            <path d="M592.34,265.5C595.073,269.041 595.557,273.388 592.015,277.412" style="fill:none;stroke:black;stroke-width:0.52px;"/>
            <path d="M594.59,270.01C603.119,264.698 613.744,274.518 605.857,280.474" style="fill:none;stroke:black;stroke-width:0.52px;"/>
            <path d="M604.41,269.53C606.343,269.047 609.723,265.506 610.043,261.481" style="fill:none;stroke:black;stroke-width:0.52px;"/>
            <path d="M608.27,273.23C611.812,269.528 635.962,277.094 620.666,284.82" style="fill:none;stroke:black;stroke-width:0.52px;"/>
            <path d="M619.54,263.09C624.207,264.861 626.623,271.461 619.54,273.715" style="fill:none;stroke:black;stroke-width:0.52px;"/>
            <path d="M625.66,279.19C630.81,273.878 646.91,277.258 641.114,284.02" style="fill:none;stroke:black;stroke-width:0.52px;"/>
            <path d="M637.25,277.09C640.146,267.27 657.371,273.388 651.738,277.412" style="fill:none;stroke:black;stroke-width:0.52px;"/>
            <path d="M633.71,267.27C634.193,269.202 634.352,274.031 631.135,276.607" style="fill:none;stroke:black;stroke-width:0.52px;"/>
            <path d="M648.2,265.34C648.842,266.95 648.683,270.008 647.233,271.94" style="fill:none;stroke:black;stroke-width:0.52px;"/>
            <path d="M659.14,265.5C660.107,267.27 661.715,270.651 658.173,273.388" style="fill:none;stroke:black;stroke-width:0.52px;"/>
            <path d="M521.35,191.45C521.508,200.625 524.729,206.743 537.125,200.948" style="fill:none;stroke:black;stroke-width:0.52px;"/>
            <path d="M525.21,202.4C519.093,210.61 526.014,219.464 538.089,210.61" style="fill:none;stroke:black;stroke-width:0.52px;"/>
            <path d="M506.37,206.42C514.741,215.435 529.712,208.835 520.053,195.151" style="fill:none;stroke:black;stroke-width:0.52px;"/>
            <path d="M530.2,214.15C528.588,223.004 535.833,224.775 541.788,220.75" style="fill:none;stroke:black;stroke-width:0.52px;"/>
            <path d="M498.97,207.87C500.495,216.771 509.595,223.807 518.449,218.334" style="fill:none;stroke:black;stroke-width:0.52px;"/>
            <path d="M509.92,220.11C509.92,232.828 527.466,234.276 531.491,221.076" style="fill:none;stroke:black;stroke-width:0.52px;"/>
            <path d="M525.21,229.12C530.843,240.71 543.077,236.042 547.102,228.959" style="fill:none;stroke:black;stroke-width:0.52px;"/>
            <path d="M512.81,210.61C515.064,216.244 519.573,222.523 530.035,217.854" style="fill:none;stroke:black;stroke-width:0.52px;"/>
            <path d="M480.62,207.87C482.07,212.538 490.441,218.173 500.099,211.733" style="fill:none;stroke:black;stroke-width:0.52px;"/>
            <path d="M486.57,213.83C481.416,221.396 491.72,228.479 504.116,217.21" style="fill:none;stroke:black;stroke-width:0.52px;"/>
            <path d="M492.69,223.17C494.782,233.795 498.965,242.327 514.098,228.643" style="fill:none;stroke:black;stroke-width:0.52px;"/>
            <path d="M506.53,234.11C512.005,240.871 520.376,245.056 528.263,233.627" style="fill:none;stroke:black;stroke-width:0.52px;"/>
            <path d="M534.06,236.04C533.577,244.089 535.185,248.113 541.464,247.791C546.414,247.538 551.123,243.606 553.86,239.42" style="fill:none;stroke:black;stroke-width:0.52px;"/>
            <path d="M540.34,247.8C540.178,256.976 547.419,264.22 560.944,254.883" style="fill:none;stroke:black;stroke-width:0.52px;"/>
            <path d="M545.97,258.58C543.395,265.502 551.12,276.77 566.253,270.975" style="fill:none;stroke:black;stroke-width:0.52px;"/>
            <path d="M513.94,240.23C512.978,249.084 521.186,255.04 534.386,243.61" style="fill:none;stroke:black;stroke-width:0.52px;"/>
            <path d="M520.38,250.05C520.863,257.294 529.072,265.987 541.147,253.43" style="fill:none;stroke:black;stroke-width:0.52px;"/>
            <path d="M526.17,259.23C525.203,271.625 536.633,275.167 546.291,265.669" style="fill:none;stroke:black;stroke-width:0.52px;"/>
            <path d="M508.95,250.05C511.525,250.211 513.617,247.958 514.904,246.348" style="fill:none;stroke:black;stroke-width:0.52px;"/>
            <path d="M514.42,259.06C516.674,259.543 520.541,257.45 521.828,254.875" style="fill:none;stroke:black;stroke-width:0.52px;"/>
            <path d="M520.06,273.71C522.635,276.447 531.327,274.515 532.452,270.813" style="fill:none;stroke:black;stroke-width:0.52px;"/>
            <path d="M529.72,273.55C534.549,284.818 547.424,284.335 552.737,271.618" style="fill:none;stroke:black;stroke-width:0.52px;"/>
            <path d="M550.32,276.13C552.733,282.73 558.853,286.915 568.833,284.662" style="fill:none;stroke:black;stroke-width:0.52px;"/>
            <path d="M555.15,282.89C549.517,292.066 556.921,302.851 569.475,292.227" style="fill:none;stroke:black;stroke-width:0.52px;"/>
            <path d="M558.21,296.57C557.568,302.365 562.881,308.965 570.123,309.77" style="fill:none;stroke:black;stroke-width:0.52px;"/>
            <path d="M534.38,279.67C532.447,292.709 541.784,298.988 553.538,292.065" style="fill:none;stroke:black;stroke-width:0.52px;"/>
            <path d="M520.7,285.95C523.758,288.365 529.233,288.687 534.383,286.755" style="fill:none;stroke:black;stroke-width:0.52px;"/>
            <path d="M540.66,294.32C537.76,305.267 549.031,313.155 558.689,300.92" style="fill:none;stroke:black;stroke-width:0.52px;"/>
            <path d="M525.05,287.72C525.213,293.354 530.688,299.471 540.183,297.7" style="fill:none;stroke:black;stroke-width:0.52px;"/>
            <path d="M566.74,308.97C560.298,313.316 559.011,321.043 568.028,326.033" style="fill:none;stroke:black;stroke-width:0.52px;"/>
            <path d="M550.96,306.71C551.285,313.31 554.343,317.013 561.585,317.656" style="fill:none;stroke:black;stroke-width:0.52px;"/>
            <path d="M541.47,303.33C531.812,312.184 541.308,322.487 552.737,313.794" style="fill:none;stroke:black;stroke-width:0.52px;"/>
            <path d="M548.23,316.53C545.009,326.672 557.084,332.789 563.522,322.486" style="fill:none;stroke:black;stroke-width:0.52px;"/>
            <path d="M528.27,294.96C524.728,304.941 529.237,311.541 537.445,310.897" style="fill:none;stroke:black;stroke-width:0.52px;"/>
            <path d="M515.55,293.03C516.033,298.986 521.183,301.079 526.979,299.791" style="fill:none;stroke:black;stroke-width:0.52px;"/>
            <path d="M519.25,299.31C514.904,307.681 521.504,312.188 530.2,308.969" style="fill:none;stroke:black;stroke-width:0.52px;"/>
            <path d="M556.6,327.64C555.15,332.952 555.954,336.816 563.842,338.587" style="fill:none;stroke:black;stroke-width:0.52px;"/>
            <path d="M557.08,335.21C547.58,339.557 546.776,348.733 554.18,354.688" style="fill:none;stroke:black;stroke-width:0.52px;"/>
            <path d="M549.43,324.99C544.443,329.498 545.405,337.304 550.88,340.363" style="fill:none;stroke:black;stroke-width:0.52px;"/>
            <path d="M507.18,295.61C501.705,301.003 506.938,315.893 519.009,307.765" style="fill:none;stroke:black;stroke-width:0.52px;"/>
            <path d="M538.57,314.44C531.162,320.558 534.545,331.665 546.778,328.606" style="fill:none;stroke:black;stroke-width:0.52px;"/>
            <path d="M526.33,309.77C522.468,320.717 526.172,324.58 534.863,324.741" style="fill:none;stroke:black;stroke-width:0.52px;"/>
            <path d="M499.13,295.12C492.53,300.11 494.301,307.193 497.201,310.413C500.097,313.633 505.568,312.184 507.339,307.998" style="fill:none;stroke:black;stroke-width:0.52px;"/>
            <path d="M485.28,290.78C477.876,300.278 485.28,311.546 495.747,308.166" style="fill:none;stroke:black;stroke-width:0.52px;"/>
            <path d="M524.89,318.95C517.323,321.687 511.552,328.557 516.194,334.565C518.932,338.107 530.844,338.59 534.223,324.906" style="fill:none;stroke:black;stroke-width:0.52px;"/>
            <path d="M511.2,310.09C506.854,316.368 508.3,322.325 516.35,325.383" style="fill:none;stroke:black;stroke-width:0.52px;"/>
            <path d="M510.72,321.85C506.049,324.426 502.991,327.485 504.12,333.119" style="fill:none;stroke:black;stroke-width:0.52px;"/>
            <path d="M500.26,312.03C498.489,319.596 500.581,324.265 505.248,326.518" style="fill:none;stroke:black;stroke-width:0.52px;"/>
            <path d="M500.1,321.04C492.854,320.557 489.154,323.615 491.567,330.699" style="fill:none;stroke:black;stroke-width:0.52px;"/>
            <path d="M492.21,322.81C485.127,320.234 483.998,314.117 487.056,307.678" style="fill:none;stroke:black;stroke-width:0.52px;"/>
            <path d="M486.09,317.18C478.361,317.502 474.982,321.365 474.982,326.678" style="fill:none;stroke:black;stroke-width:0.52px;"/>
            <path d="M475.62,287.07C469.987,289.485 468.216,297.051 470.308,301.236C472.403,305.421 479.003,305.744 483.029,303.007" style="fill:none;stroke:black;stroke-width:0.52px;"/>
            <path d="M459.85,281.12C454.7,286.915 460.654,298.184 469.833,295.447" style="fill:none;stroke:black;stroke-width:0.52px;"/>
            <path d="M446.65,276.61C441.821,283.371 447.133,294.64 459.529,291.42" style="fill:none;stroke:black;stroke-width:0.52px;"/>
            <path d="M460.17,322.81C458.883,314.761 467.253,309.449 477.558,319.912" style="fill:none;stroke:black;stroke-width:0.52px;"/>
            <path d="M472.57,303.66C469.512,306.397 468.066,310.743 468.545,314.285" style="fill:none;stroke:black;stroke-width:0.52px;"/>
            <path d="M433.45,272.75C428.138,281.765 434.579,289.975 446.008,286.755" style="fill:none;stroke:black;stroke-width:0.52px;"/>
            <path d="M463.23,295.12C455.663,302.686 458.238,310.252 463.872,314.598" style="fill:none;stroke:black;stroke-width:0.52px;"/>
            <path d="M458.4,303.98C446.971,304.141 446.329,317.341 455.667,321.527" style="fill:none;stroke:black;stroke-width:0.52px;"/>
            <path d="M449.71,290.78C445.043,294 443.593,302.853 451.643,306.395" style="fill:none;stroke:black;stroke-width:0.52px;"/>
            <path d="M449.39,310.58C444.561,308.326 438.765,311.063 439.248,316.697" style="fill:none;stroke:black;stroke-width:0.52px;"/>
            <path d="M442.14,310.74C437.794,300.437 425.077,302.208 426.207,312.833" style="fill:none;stroke:black;stroke-width:0.52px;"/>
            <path d="M445.68,298.02C442.947,298.503 437.472,300.112 435.38,304.298" style="fill:none;stroke:black;stroke-width:0.52px;"/>
            <path d="M436.19,286.43C431.04,292.225 435.061,299.147 439.248,300.596" style="fill:none;stroke:black;stroke-width:0.52px;"/>
            <path d="M420.9,270.17C419.933,277.092 422.671,280.473 431.363,279.829" style="fill:none;stroke:black;stroke-width:0.52px;"/>
            <path d="M423.95,279.03C420.567,287.401 425.075,291.103 433.767,290.62" style="fill:none;stroke:black;stroke-width:0.52px;"/>
            <path d="M425.88,289.33C420.73,295.447 424.272,302.048 429.259,304.784" style="fill:none;stroke:black;stroke-width:0.52px;"/>
            <path d="M423.47,297.06C414.295,295.933 412.845,306.558 415.903,311.548" style="fill:none;stroke:black;stroke-width:0.52px;"/>
            <path d="M416.06,269.37C410.428,271.785 407.208,278.868 410.267,283.214C413.327,287.56 419.443,286.112 422.823,283.858" style="fill:none;stroke:black;stroke-width:0.52px;"/>
            <path d="M412.2,285.14C407.532,292.223 411.717,297.535 416.708,299.628" style="fill:none;stroke:black;stroke-width:0.52px;"/>
            <path d="M394.17,268.56C390.468,272.423 392.721,280.312 401.736,280.473C408.994,280.603 412.682,273.712 410.429,268.883" style="fill:none;stroke:black;stroke-width:0.52px;"/>
            <path d="M400.45,280.47C397.553,286.909 399.323,293.831 410.27,292.704" style="fill:none;stroke:black;stroke-width:0.52px;"/>
            <path d="M414.94,302.85C408.179,299.792 399.164,302.85 403.028,310.899" style="fill:none;stroke:black;stroke-width:0.52px;"/>
            <path d="M402.06,291.42C399.323,295.283 400.289,300.757 403.348,304.137" style="fill:none;stroke:black;stroke-width:0.52px;"/>
            <path d="M401.58,301.72C397.073,302.525 392.726,304.94 395.462,312.023" style="fill:none;stroke:black;stroke-width:0.52px;"/>
            <path d="M394.81,306.23C389.015,304.459 381.61,308.645 386.117,314.601" style="fill:none;stroke:black;stroke-width:0.52px;"/>
            <path d="M385.16,308.97C380.17,308.165 374.214,313.477 379.043,318.79" style="fill:none;stroke:black;stroke-width:0.52px;"/>
            <path d="M377.11,314.44C372.603,315.567 367.29,320.718 371.958,324.743" style="fill:none;stroke:black;stroke-width:0.52px;"/>
            <path d="M399.81,289.17C393.371,292.068 392.727,299.312 395.785,304.624" style="fill:none;stroke:black;stroke-width:0.52px;"/>
            <path d="M393.04,275.81C383.381,279.513 383.543,292.391 394.167,296.415" style="fill:none;stroke:black;stroke-width:0.52px;"/>
            <path d="M389.66,293.51C383.865,296.89 382.738,303.33 386.602,307.515" style="fill:none;stroke:black;stroke-width:0.52px;"/>
            <path d="M379.52,270.98C375.656,272.268 375.978,284.18 386.281,283.858" style="fill:none;stroke:black;stroke-width:0.52px;"/>
            <path d="M368.9,275C361.173,280.151 370.51,293.19 383.066,283.854" style="fill:none;stroke:black;stroke-width:0.52px;"/>
            <path d="M376.14,287.07C375.013,292.383 376.462,298.178 384.994,298.822" style="fill:none;stroke:black;stroke-width:0.52px;"/>
            <path d="M376.62,294.16C370.503,296.413 369.376,308.97 380.483,309.936" style="fill:none;stroke:black;stroke-width:0.52px;"/>
            <path d="M357.15,282.73C349.262,289.974 363.589,296.252 368.902,285.789" style="fill:none;stroke:black;stroke-width:0.52px;"/>
            <path d="M346.2,294.8C342.336,299.468 355.858,311.703 361.815,291.258" style="fill:none;stroke:black;stroke-width:0.52px;"/>
            <path d="M363.26,290.94C363.582,295.769 366.48,298.667 372.435,298.989" style="fill:none;stroke:black;stroke-width:0.52px;"/>
            <path d="M372.28,303.66C362.782,305.109 359.724,317.021 370.348,319.597" style="fill:none;stroke:black;stroke-width:0.52px;"/>
            <path d="M354.73,302.05C354.408,306.557 359.076,310.26 364.389,309.455" style="fill:none;stroke:black;stroke-width:0.52px;"/>
            <path d="M369.22,319.27C360.528,321.202 359.4,332.47 367.128,331.826" style="fill:none;stroke:black;stroke-width:0.52px;"/>
            <path d="M363.1,342.29C355.855,340.117 355.695,331.504 362.134,328.285" style="fill:none;stroke:black;stroke-width:0.52px;"/>
            <path d="M357.15,334.72C351.033,338.423 353.448,347.276 356.667,348.564C359.887,349.852 362.462,348.242 362.785,345.506" style="fill:none;stroke:black;stroke-width:0.52px;"/>
            <path d="M362.3,357.9C362.944,362.085 347.409,360.476 355.378,347.437" style="fill:none;stroke:black;stroke-width:0.52px;"/>
            <path d="M355.29,358.63C350.059,366.84 358.591,373.52 363.983,366.518" style="fill:none;stroke:black;stroke-width:0.52px;"/>
            <path d="M356.02,368.53C353.927,375.13 361.895,379.88 367.046,374.728" style="fill:none;stroke:black;stroke-width:0.52px;"/>
            <path d="M338.63,306.71C335.732,312.666 350.22,314.92 351.186,302.685" style="fill:none;stroke:black;stroke-width:0.52px;"/>
            <path d="M334.61,315.57C331.713,327.16 353.605,324.746 347.971,309.775" style="fill:none;stroke:black;stroke-width:0.52px;"/>
            <path d="M348.45,317.5C351.508,319.271 360.685,319.432 362.938,309.612" style="fill:none;stroke:black;stroke-width:0.52px;"/>
            <path d="M356.34,317.82C356.984,320.878 359.72,324.581 362.296,325.708" style="fill:none;stroke:black;stroke-width:0.52px;"/>
            <path d="M345.88,320.88C344.914,327.158 351.192,332.31 358.436,331.827" style="fill:none;stroke:black;stroke-width:0.52px;"/>
            <path d="M347,327C343.459,331.83 342.332,341.166 353.44,341.81" style="fill:none;stroke:black;stroke-width:0.52px;"/>
            <path d="M330.1,328.61C328.329,333.6 338.793,338.752 344.91,330.542" style="fill:none;stroke:black;stroke-width:0.52px;"/>
            <path d="M326.88,341.32C325.994,345.104 335.412,350.174 340.724,334.076" style="fill:none;stroke:black;stroke-width:0.52px;"/>
            <path d="M336.54,342.29C338.794,346.314 346.36,349.534 351.028,341.646" style="fill:none;stroke:black;stroke-width:0.52px;"/>
            <path d="M343.46,346.48C341.528,352.114 346.841,357.426 353.28,355.817" style="fill:none;stroke:black;stroke-width:0.52px;"/>
            <path d="M331.39,345.19C330.102,353.239 339.439,357.907 345.234,353.722" style="fill:none;stroke:black;stroke-width:0.52px;"/>
            <path d="M325.27,348.73C322.534,359.033 335.734,362.896 340.724,355.169" style="fill:none;stroke:black;stroke-width:0.52px;"/>
            <path d="M337.35,358.23C337.833,364.025 346.848,369.015 353.931,364.186" style="fill:none;stroke:black;stroke-width:0.52px;"/>
            <path d="M321.25,363.06C320.606,365.635 331.392,368.211 333.001,359.196" style="fill:none;stroke:black;stroke-width:0.52px;"/>
            <path d="M327.53,365.31C330.105,371.91 338.798,373.52 343.789,365.471" style="fill:none;stroke:black;stroke-width:0.52px;"/>
            <path d="M340.89,368.69C342.017,374.807 349.905,378.188 356.827,374.002" style="fill:none;stroke:black;stroke-width:0.52px;"/>
            <path d="M359.72,376.42C357.95,384.63 366.481,391.23 371.793,386.723" style="fill:none;stroke:black;stroke-width:0.52px;"/>
            <path d="M346.04,374.97C343.465,383.985 354.733,389.136 361.011,384.146" style="fill:none;stroke:black;stroke-width:0.52px;"/>
            <path d="M332.52,370.46C331.876,378.831 338.476,383.821 346.042,380.118" style="fill:none;stroke:black;stroke-width:0.52px;"/>
            <path d="M318.19,371.27C315.936,376.743 327.849,381.251 333.483,376.583" style="fill:none;stroke:black;stroke-width:0.52px;"/>
            <path d="M310.78,386.24C313.839,389.781 324.463,386.24 325.429,378.352" style="fill:none;stroke:black;stroke-width:0.52px;"/>
            <path d="M322.54,384.14C326.403,388.648 335.579,391.062 339.282,381.403" style="fill:none;stroke:black;stroke-width:0.52px;"/>
            <path d="M336.06,386.4C335.899,393.322 348.295,398.313 352.319,385.595" style="fill:none;stroke:black;stroke-width:0.52px;"/>
            <path d="M366.88,388.09C365.753,391.471 368.41,396.863 373.963,397.507" style="fill:none;stroke:black;stroke-width:0.52px;"/>
            <path d="M356.66,386C355.855,389.863 361.49,395.255 367.446,393.083" style="fill:none;stroke:black;stroke-width:0.52px;"/>
            <path d="M368.58,394.69C366.97,398.875 368.338,404.911 373.972,404.831" style="fill:none;stroke:black;stroke-width:0.52px;"/>
            <path d="M369.14,402.5C364.955,406.041 366.725,412.32 372.763,412.562" style="fill:none;stroke:black;stroke-width:0.52px;"/>
            <path d="M366.97,408.45C361.014,412.472 363.107,421.327 370.994,420.848" style="fill:none;stroke:black;stroke-width:0.52px;"/>
            <path d="M348.94,391.39C348.94,400.083 359.725,401.37 361.818,393.322" style="fill:none;stroke:black;stroke-width:0.52px;"/>
            <path d="M357.63,398.47C356.02,403.621 360.205,408.612 366.805,407.163" style="fill:none;stroke:black;stroke-width:0.52px;"/>
            <path d="M358.92,460.61C360.369,462.706 366.325,459.164 364.715,455.623C363.106,452.081 356.796,454.006 357.471,457.714" style="fill:none;stroke:black;stroke-width:0.52px;"/>
            <path d="M363.26,454.17C364.065,447.087 355.694,445.962 353.601,452.078" style="fill:none;stroke:black;stroke-width:0.52px;"/>
            <path d="M356.66,448.54C358.753,444.998 351.67,440.169 348.772,445.319" style="fill:none;stroke:black;stroke-width:0.52px;"/>
            <path d="M351.35,443.22C353.282,438.066 345.233,435.816 344.589,440.483" style="fill:none;stroke:black;stroke-width:0.52px;"/>
            <path d="M342.82,433.72C343.786,431.145 352.801,432.753 348.938,438.066" style="fill:none;stroke:black;stroke-width:0.52px;"/>
            <path d="M355.86,444.51C359.402,441.289 353.446,434.689 349.743,437.106" style="fill:none;stroke:black;stroke-width:0.52px;"/>
            <path d="M379.68,454.33C376.862,454.651 373.964,456.501 376.057,462.459C377.508,466.593 383.704,466.805 384.589,464.309" style="fill:none;stroke:black;stroke-width:0.52px;"/>
            <path d="M375.58,457.31C372.843,455.539 366.887,458.518 369.624,464.314C371.684,468.677 376.868,466.889 377.673,464.635" style="fill:none;stroke:black;stroke-width:0.52px;"/>
            <path d="M360.2,465.6C361.568,468.013 368.409,466.971 369.617,464.313" style="fill:none;stroke:black;stroke-width:0.52px;"/>
            <path d="M364.87,457.63C366.319,456.663 368.974,457.868 369.538,459.076" style="fill:none;stroke:black;stroke-width:0.52px;"/>
            <path d="M364.39,417.95C359.722,421.008 362.619,430.346 369.863,427.929" style="fill:none;stroke:black;stroke-width:0.52px;"/>
            <path d="M362.94,425.52C359.238,428.416 362.618,437.433 369.54,434.053" style="fill:none;stroke:black;stroke-width:0.52px;"/>
            <path d="M364.07,434.05C361.495,436.625 363.989,443.788 370.67,442.421" style="fill:none;stroke:black;stroke-width:0.52px;"/>
            <path d="M363.1,437.59C361.651,436.944 357.868,437.427 356.258,439.84" style="fill:none;stroke:black;stroke-width:0.52px;"/>
            <path d="M358.92,404.99C355.379,408.37 357.068,415.294 363.668,415.856" style="fill:none;stroke:black;stroke-width:0.52px;"/>
            <path d="M357.63,412.07C352.558,414.566 352.558,424.624 362.7,425.028" style="fill:none;stroke:black;stroke-width:0.52px;"/>
            <path d="M357.23,423.42C354.413,425.674 355.781,434.366 363.025,433.237" style="fill:none;stroke:black;stroke-width:0.52px;"/>
            <path d="M359.56,432.92C358.513,433.966 358.352,436.624 359.238,437.749" style="fill:none;stroke:black;stroke-width:0.52px;"/>
            <path d="M356.34,429.62C353.765,429.699 350.384,431.553 349.498,434.208" style="fill:none;stroke:black;stroke-width:0.52px;"/>
            <path d="M344.83,424.87C345.796,422.295 353.765,422.458 354.328,430.024" style="fill:none;stroke:black;stroke-width:0.52px;"/>
            <path d="M355.13,421.01C354.003,421.252 351.83,422.298 351.267,424.472" style="fill:none;stroke:black;stroke-width:0.52px;"/>
            <path d="M351.67,397.43C348.208,400.569 346.519,410.47 357.062,412.4" style="fill:none;stroke:black;stroke-width:0.52px;"/>
            <path d="M344.67,417.87C344.67,415.212 351.834,412.958 354.329,416.903" style="fill:none;stroke:black;stroke-width:0.52px;"/>
            <path d="M340.08,403.46C341.126,405.473 346.116,408.21 349.175,405.956" style="fill:none;stroke:black;stroke-width:0.52px;"/>
            <path d="M314.16,387.69C314,392.358 317.863,396.544 323.175,395.9C328.487,395.256 329.614,390.587 328.004,387.529" style="fill:none;stroke:black;stroke-width:0.52px;"/>
            <path d="M323.98,396.06C320.438,400.406 324.785,406.524 328.809,404.753" style="fill:none;stroke:black;stroke-width:0.52px;"/>
            <path d="M328.01,393C330.103,392.195 337.025,391.229 339.118,394.449" style="fill:none;stroke:black;stroke-width:0.52px;"/>
            <path d="M305.63,394.29C304.02,396.705 314.001,399.12 317.381,394.451" style="fill:none;stroke:black;stroke-width:0.52px;"/>
            <path d="M314,396.86C313.678,400.08 315.288,405.553 323.498,403.299" style="fill:none;stroke:black;stroke-width:0.52px;"/>
            <path d="M324.79,408.29C326.078,405.553 319.96,401.046 315.292,406.036C310.624,411.027 315.936,416.661 318.834,414.728" style="fill:none;stroke:black;stroke-width:0.52px;"/>
            <path d="M303.38,397.51C300.965,401.695 310.302,409.343 315.615,402.26" style="fill:none;stroke:black;stroke-width:0.52px;"/>
            <path d="M297.18,404.75C293.8,408.212 297.985,414.571 303.056,412.638C308.127,410.706 307.644,405.394 306.437,404.026" style="fill:none;stroke:black;stroke-width:0.52px;"/>
            <path d="M290.66,411.19C287.923,413.684 290.579,419.559 294.363,419.559C298.145,419.559 300.48,416.584 299.755,412.801" style="fill:none;stroke:black;stroke-width:0.52px;"/>
            <path d="M306.03,410.71C305.547,414.412 311.02,416.987 314.562,413.529" style="fill:none;stroke:black;stroke-width:0.52px;"/>
            <path d="M314.73,406.76C315.213,405.955 314.811,404.586 314.007,403.942" style="fill:none;stroke:black;stroke-width:0.52px;"/>
            <path d="M284.79,416.18C281.652,418.676 288.413,425.597 292.678,419.238" style="fill:none;stroke:black;stroke-width:0.52px;"/>
            <path d="M309.01,414.81C306.997,416.739 310.217,421.81 313.436,420.281" style="fill:none;stroke:black;stroke-width:0.52px;"/>
            <path d="M297.99,418.35C298.473,421.808 305.234,424.383 309.5,419.075" style="fill:none;stroke:black;stroke-width:0.52px;"/>
            <path d="M301.69,421.81C300.644,423.985 302.737,427.448 305.313,426.964" style="fill:none;stroke:black;stroke-width:0.52px;"/>
            <path d="M365.76,441.7C363.266,446.608 371.233,452.325 377.029,446.367" style="fill:none;stroke:black;stroke-width:0.52px;"/>
            <path d="M371.55,449.02C370.343,451.674 371.792,455.378 373.965,456.745" style="fill:none;stroke:black;stroke-width:0.52px;"/>
            <path d="M363.99,454.57C364.554,452.153 368.014,449.899 371.154,451.028" style="fill:none;stroke:black;stroke-width:0.52px;"/>
            <path d="M359.8,448.21C360.283,446.039 363.18,443.864 365.354,444.431" style="fill:none;stroke:black;stroke-width:0.52px;"/>
            <path d="M549.35,347.76C537.921,347.921 542.75,366.273 552.571,362.57" style="fill:none;stroke:black;stroke-width:0.52px;"/>
            <path d="M545.65,361.29C543.396,364.993 547.742,370.869 552.571,367.407" style="fill:none;stroke:black;stroke-width:0.52px;"/>
            <path d="M551.29,368.13C547.907,373.764 559.982,382.376 564.811,373.522" style="fill:none;stroke:black;stroke-width:0.52px;"/>
            <path d="M560.95,376.9C561.108,382.212 576.563,385.593 574.313,374.968" style="fill:none;stroke:black;stroke-width:0.52px;"/>
            <path d="M572.86,380.76C576.56,387.038 590.406,387.682 588.956,378.345" style="fill:none;stroke:black;stroke-width:0.52px;"/>
            <path d="M585.9,384.79C588.8,388.975 602.321,391.551 601.838,382.858" style="fill:none;stroke:black;stroke-width:0.52px;"/>
            <path d="M531,331.83C532.929,336.82 539.529,338.591 546.775,335.693" style="fill:none;stroke:black;stroke-width:0.52px;"/>
            <path d="M526.82,335.37C531.328,338.268 524.728,351.468 517.808,346.155" style="fill:none;stroke:black;stroke-width:0.52px;"/>
            <path d="M526.82,343.58C531.812,345.995 537.928,344.224 539.699,337.141" style="fill:none;stroke:black;stroke-width:0.52px;"/>
            <path d="M536.64,342.61C537.123,346.313 542.436,349.21 549.357,347.761" style="fill:none;stroke:black;stroke-width:0.52px;"/>
            <path d="M524.24,346.48C530.682,351.953 521.344,363.222 517.157,358.07" style="fill:none;stroke:black;stroke-width:0.52px;"/>
            <path d="M526.66,350.66C529.718,352.914 537.606,351.626 538.41,345.67" style="fill:none;stroke:black;stroke-width:0.52px;"/>
            <path d="M534.87,350.66C535.516,354.523 538.574,355.972 542.92,356.133" style="fill:none;stroke:black;stroke-width:0.52px;"/>
            <path d="M524.89,355.97C528.107,360.478 536.157,361.765 539.698,355.809" style="fill:none;stroke:black;stroke-width:0.52px;"/>
            <path d="M536.15,359.19C535.829,363.537 540.658,367.078 545.65,366.112" style="fill:none;stroke:black;stroke-width:0.52px;"/>
            <path d="M518.61,368.85C522.793,370.943 527.302,363.055 523.76,357.582" style="fill:none;stroke:black;stroke-width:0.52px;"/>
            <path d="M523.44,377.22C528.432,377.542 529.073,369.976 524.407,365.79" style="fill:none;stroke:black;stroke-width:0.52px;"/>
            <path d="M534.87,384.14C539.058,383.174 537.766,373.998 527.624,373.193" style="fill:none;stroke:black;stroke-width:0.52px;"/>
            <path d="M547.58,390.91C551.605,389.783 548.384,379.641 537.28,380.285" style="fill:none;stroke:black;stroke-width:0.52px;"/>
            <path d="M562.88,394.45C565.613,390.265 556.601,383.182 549.197,386.884" style="fill:none;stroke:black;stroke-width:0.52px;"/>
            <path d="M570.44,400.24C575.432,401.689 578.811,388.489 563.036,390.581" style="fill:none;stroke:black;stroke-width:0.52px;"/>
            <path d="M579.62,400.24C583.97,399.113 587.028,391.225 574.312,393.801" style="fill:none;stroke:black;stroke-width:0.52px;"/>
            <path d="M589.28,400.89C593.142,402.822 594.913,391.553 583.159,394.612" style="fill:none;stroke:black;stroke-width:0.52px;"/>
            <path d="M524.4,365.79C529.229,368.527 536.796,365.307 536.15,359.19" style="fill:none;stroke:black;stroke-width:0.52px;"/>
            <path d="M534.22,364.51C535.833,367.407 535.187,373.042 532.128,374.49" style="fill:none;stroke:black;stroke-width:0.52px;"/>
            <path d="M534.7,371.27C537.921,372.558 542.267,371.431 544.842,366.28" style="fill:none;stroke:black;stroke-width:0.52px;"/>
            <path d="M540.34,371.27C541.303,373.524 541.628,378.031 539.532,380.285" style="fill:none;stroke:black;stroke-width:0.52px;"/>
            <path d="M541.15,375.13C544.692,377.062 548.875,374.486 550.646,370.783" style="fill:none;stroke:black;stroke-width:0.52px;"/>
            <path d="M548.39,374C550.965,375.61 553.219,383.176 548.873,386.235" style="fill:none;stroke:black;stroke-width:0.52px;"/>
            <path d="M551.29,382.7C554.348,382.861 558.857,382.861 561.753,378.998" style="fill:none;stroke:black;stroke-width:0.52px;"/>
            <path d="M559.66,381.09C562.397,381.895 565.614,386.402 564.489,390.427" style="fill:none;stroke:black;stroke-width:0.52px;"/>
            <path d="M564.65,388.97C567.713,388.648 573.021,386.555 574.471,382.853" style="fill:none;stroke:black;stroke-width:0.52px;"/>
            <path d="M573.02,385.27C575.599,386.719 577.37,389.777 577.045,393.319" style="fill:none;stroke:black;stroke-width:0.52px;"/>
            <path d="M577.04,390.74C580.098,390.579 582.836,388.97 583.64,385.589" style="fill:none;stroke:black;stroke-width:0.52px;"/>
            <path d="M582.84,387.85C585.094,388.655 587.832,391.23 587.994,394.289" style="fill:none;stroke:black;stroke-width:0.52px;"/>
            <path d="M587.67,392.35C589.924,392.028 591.532,390.579 592.983,388.325" style="fill:none;stroke:black;stroke-width:0.52px;"/>
            <path d="M599.1,388.01C602,390.908 598.138,400.567 592.179,398.796" style="fill:none;stroke:black;stroke-width:0.52px;"/>
            <path d="M537.28,192.9C531.322,196.441 514.417,195.315 522.788,181.31" style="fill:none;stroke:black;stroke-width:0.52px;"/>
            <path d="M538.89,183.4C527.14,188.068 512.648,179.054 527.782,169.234" style="fill:none;stroke:black;stroke-width:0.52px;"/>
            <path d="M523.76,166.02C513.939,166.02 507.339,181.796 520.543,187.269" style="fill:none;stroke:black;stroke-width:0.52px;"/>
            <path d="M485.61,172.62C483.035,177.61 492.21,183.083 498.489,178.093C503.352,174.227 502.993,163.766 500.097,159.741" style="fill:none;stroke:black;stroke-width:0.52px;"/>
            <path d="M480.62,184.53C477.399,195.154 501.066,195.798 497.362,178.895" style="fill:none;stroke:black;stroke-width:0.52px;"/>
            <path d="M479.33,200.31C480.134,208.359 502.03,205.783 494.943,189.524" style="fill:none;stroke:black;stroke-width:0.52px;"/>
            <path d="M497.52,185.01C499.291,187.425 504.12,191.61 512.328,190.805" style="fill:none;stroke:black;stroke-width:0.52px;"/>
            <path d="M501.38,173.58C502.105,176.478 507.013,178.731 513.293,176.559" style="fill:none;stroke:black;stroke-width:0.52px;"/>
            <path d="M281.73,418.51C276.177,422.456 284.709,428.652 287.847,421.81" style="fill:none;stroke:black;stroke-width:0.52px;"/>
            <path d="M277.38,421.57C271.827,425.512 280.359,431.708 283.498,424.866" style="fill:none;stroke:black;stroke-width:0.52px;"/>
            <path d="M272.79,424.55C267.235,428.496 275.768,434.692 278.907,427.85" style="fill:none;stroke:black;stroke-width:0.52px;"/>
            <path d="M267.96,427.29C262.648,430.107 268.845,437.028 274.238,430.911" style="fill:none;stroke:black;stroke-width:0.52px;"/>
            <path d="M262.73,429.95C257.418,432.763 263.616,439.688 269.008,433.571" style="fill:none;stroke:black;stroke-width:0.52px;"/>
            <path d="M289.7,421.65C289.619,425.754 297.427,427.446 300.243,421.325" style="fill:none;stroke:black;stroke-width:0.52px;"/>
            <path d="M294.61,425.44C292.195,428.498 296.623,432.282 299.038,430.911" style="fill:none;stroke:black;stroke-width:0.52px;"/>
            <path d="M284.22,424.87C283.978,428.333 290.739,430.345 294.04,426.562" style="fill:none;stroke:black;stroke-width:0.52px;"/>
            <path d="M287.93,428.5C285.756,431.317 290.023,435.1 292.759,433.971" style="fill:none;stroke:black;stroke-width:0.52px;"/>
            <path d="M279.72,428.01C279.961,430.748 283.824,433.885 288.01,432.114" style="fill:none;stroke:black;stroke-width:0.52px;"/>
            <path d="M282.21,431.71C280.6,433.16 281.405,436.543 283.659,437.589" style="fill:none;stroke:black;stroke-width:0.52px;"/>
            <path d="M273.84,431.47C273.196,433.966 277.463,438.395 281.809,435.495" style="fill:none;stroke:black;stroke-width:0.52px;"/>
            <path d="M274.72,434.37C272.145,436.383 272.466,439.441 275.766,439.841" style="fill:none;stroke:black;stroke-width:0.52px;"/>
            <path d="M268.53,434.05C268.208,435.738 270.382,438.475 273.119,438.154" style="fill:none;stroke:black;stroke-width:0.52px;"/>
            <path d="M254.76,433.89C252.185,435.257 258.785,442.261 262.889,435.74" style="fill:none;stroke:black;stroke-width:0.52px;"/>
            <path d="M248.4,436.78C245.18,438.313 253.149,446.038 256.691,438.151" style="fill:none;stroke:black;stroke-width:0.52px;"/>
            <path d="M269.25,436.46C266.754,437.022 265.145,440.647 267.237,442.093" style="fill:none;stroke:black;stroke-width:0.52px;"/>
            <path d="M261.12,437.75C260.798,439.2 263.857,441.613 266.353,440.729" style="fill:none;stroke:black;stroke-width:0.52px;"/>
            <path d="M259.03,438.4C256.615,439.929 257.903,444.192 260.721,443.55" style="fill:none;stroke:black;stroke-width:0.52px;"/>
            <path d="M250.42,441.21C248.166,442.897 249.695,446.281 252.835,445.477" style="fill:none;stroke:black;stroke-width:0.52px;"/>
            <path d="M254.52,440.97C254.601,441.853 256.613,443.224 258.304,442.662" style="fill:none;stroke:black;stroke-width:0.52px;"/>
            <path d="M242.61,439.52C239.794,440.728 239.955,447.812 249.453,443.949" style="fill:none;stroke:black;stroke-width:0.52px;"/>
            <path d="M236.25,442.34C232.305,444.273 233.593,449.586 242.206,444.515" style="fill:none;stroke:black;stroke-width:0.52px;"/>
            <path d="M242.93,444.92C241.884,445.724 240.758,449.266 244.701,447.895" style="fill:none;stroke:black;stroke-width:0.52px;"/>
            <path d="M235.69,446.6C234.08,448.05 235.128,451.029 238.669,449.9" style="fill:none;stroke:black;stroke-width:0.52px;"/>
            <path d="M227.4,447.09C224.503,448.782 230.86,451.036 235.127,446.527" style="fill:none;stroke:black;stroke-width:0.52px;"/>
            <path d="M229.33,449.18C228.042,450.468 228.042,454.251 231.423,452.884" style="fill:none;stroke:black;stroke-width:0.52px;"/>
            <path d="M221.12,450.71C219.188,452.16 222.488,454.093 228.525,451.435" style="fill:none;stroke:black;stroke-width:0.52px;"/>
            <path d="M223.53,452.8C221.276,454.65 221.517,456.983 224.818,456.258" style="fill:none;stroke:black;stroke-width:0.52px;"/>
            <path d="M216.85,453.85C214.355,456.104 217.977,457.633 222.323,455.779" style="fill:none;stroke:black;stroke-width:0.52px;"/>
            <path d="M216.93,456.35C212.663,458.279 214.515,461.821 217.171,460.454" style="fill:none;stroke:black;stroke-width:0.52px;"/>
            <path d="M359.4,468.66C358.411,470.789 361.654,472.523 364.712,472.039C367.65,471.577 370.461,469.156 368.254,465.764" style="fill:none;stroke:black;stroke-width:0.52px;"/>
            <path d="M368.41,469.95C371.308,472.204 376.459,469.629 376.459,466.246" style="fill:none;stroke:black;stroke-width:0.52px;"/>
        </g>
        <g>
            <path d="M545.97,128.83C533.091,122.391 506.37,110.478 498.803,120.137C505.724,117.24 526.007,120.298 542.749,135.752L545.97,128.83L545.97,128.83Z" style="fill:white;fill-rule:nonzero;stroke:black;stroke-width:0.52px;"/>
            <path d="M553.78,128.15C538.888,110.803 530.117,114.686 519.409,108.711C509.351,103.097 493.33,101.95 490.226,110.878C504.922,103.721 518.414,114.727 526.701,116.059C538.084,117.886 544.509,126.687 547.839,130.734L553.781,128.15L553.78,128.15Z" style="fill:white;fill-rule:nonzero;stroke:black;stroke-width:0.52px;"/>
            <path d="M609.88,125.93C602.151,108.222 585.626,112.847 578.326,105.325C567.705,94.379 540.822,84.237 529.713,91.803C554.18,90.515 564.601,108.668 577.684,114.984C587.021,119.492 597.001,129.15 609.88,125.931L609.88,125.93Z" style="fill:white;fill-rule:nonzero;stroke:black;stroke-width:0.52px;"/>
            <path d="M580.91,124C567.71,107.58 547.422,93.092 538.089,98.565C550.322,99.209 554.185,107.741 562.881,113.214C571.573,118.687 567.71,126.575 580.91,124Z" style="fill:white;fill-rule:nonzero;stroke:black;stroke-width:0.52px;"/>
            <path d="M518.12,152.98C504.274,147.829 477.232,145.253 464.674,161.029C485.603,164.571 517.153,162.639 518.12,152.98Z" style="fill:white;fill-rule:nonzero;stroke:black;stroke-width:0.52px;"/>
            <path d="M515.55,159.1C501.704,152.661 490.892,161.655 477.879,160.387C453.091,157.973 435.383,159.422 433.129,171.335C447.296,158.617 471.121,169.081 480.779,166.505C490.437,163.93 526.175,166.183 537.442,171.012C531.646,163.93 522.634,161.998 515.55,159.1L515.55,159.1Z" style="fill:white;fill-rule:nonzero;stroke:black;stroke-width:0.52px;"/>
            <path d="M559.01,122.23C555.793,111.605 555.952,100.337 571.889,101.142C567.864,96.152 553.056,93.576 550.639,112.25C533.093,99.372 513.935,97.118 510.397,108.226C519.409,100.499 533.414,106.133 550.155,125.129C551.605,124.324 555.468,122.714 559.009,122.231L559.01,122.23Z" style="fill:white;fill-rule:nonzero;stroke:black;stroke-width:0.52px;"/>
            <path d="M534.87,136.88C524.891,130.441 511.366,119.977 535.033,115.792C524.891,110.319 510.079,112.733 511.691,131.407C484.645,120.46 465.224,124.155 461.141,134.948C456.632,146.861 473.379,153.461 476.274,145.895C473.215,147.183 462.753,143.642 468.224,136.88C473.699,130.12 501.748,135.195 528.432,149.115C535.836,152.979 561.27,152.335 534.869,136.88L534.87,136.88Z" style="fill:white;fill-rule:nonzero;stroke:black;stroke-width:0.52px;"/>
            <path d="M527.78,154.59C520.08,138.868 495.101,153.141 490.067,137.912C483.188,160.224 525.588,147.878 527.78,154.59Z" style="fill:white;fill-rule:nonzero;stroke:black;stroke-width:0.52px;"/>
            <path d="M686.67,171.65C691.907,174.253 696.437,170.161 688.424,166.952C693.666,169.553 698.237,165.56 690.224,162.349C695.466,164.95 700.037,160.957 692.024,157.747C689.887,159.898 686.828,167.787 686.67,171.65L686.67,171.65Z" style="fill:white;fill-rule:nonzero;stroke:black;stroke-width:0.52px;"/>
            <path d="M689.4,141.39C700.992,129.156 688.438,124.97 702.6,112.414C714.192,102.141 704.813,95.294 715.804,87.301C719.346,84.726 727.071,79.574 727.717,74.423C732.384,86.013 713.225,87.623 714.513,106.297C715.334,118.187 707.296,117.148 704.213,137.205C703.567,141.39 700.671,150.727 689.4,141.39L689.4,141.39Z" style="fill:white;fill-rule:nonzero;stroke:black;stroke-width:0.52px;"/>
            <path d="M694.56,146.86C700.997,133.016 708.389,133.282 711.943,127.865C718.706,117.562 733.031,129.636 745.106,120.46C743.014,133.499 726.756,128.831 719.673,137.202C712.59,145.573 706.794,149.437 694.56,146.861L694.56,146.86Z" style="fill:white;fill-rule:nonzero;stroke:black;stroke-width:0.52px;"/>
            <path d="M696.17,151.37C707.441,142.355 715.745,148.369 723.537,143.643C743.175,131.73 751.066,146.058 768.612,140.423C763.941,151.691 738.024,142.033 726.758,150.404C715.487,158.775 675.887,166.824 696.17,151.37L696.17,151.37Z" style="fill:white;fill-rule:nonzero;stroke:black;stroke-width:0.52px;"/>
            <path d="M663.33,215.6C663.168,210.449 658.338,203.848 651.576,203.044C644.818,202.239 641.918,195.156 636.768,194.834C631.618,194.512 628.235,184.209 621.151,184.37C614.068,184.531 611.172,193.707 627.751,202.078C644.334,210.449 662.684,220.108 663.33,215.601L663.33,215.6Z" style="fill:white;fill-rule:nonzero;stroke:black;stroke-width:0.52px;"/>
            <path d="M642.4,219.95C635.317,220.272 634.35,230.575 627.592,230.897C636.925,235.887 643.688,228.643 648.517,222.204L642.4,219.95L642.4,219.95Z" style="fill:white;fill-rule:nonzero;stroke:black;stroke-width:0.52px;"/>
            <path d="M648.2,221.23C642.083,226.381 640.313,237.167 649.167,240.225C643.854,232.9 658.504,229.6 653.996,222.839L648.2,221.229L648.2,221.23Z" style="fill:white;fill-rule:nonzero;stroke:black;stroke-width:0.52px;"/>
            <path d="M654.31,221.56C649.481,230.897 661.877,232.023 658.656,239.107C665.739,237.497 666.868,224.136 660.427,220.594L654.31,221.56L654.31,221.56Z" style="fill:white;fill-rule:nonzero;stroke:black;stroke-width:0.52px;"/>
            <path d="M606.98,201.59C618.572,200.946 629.172,207.217 636.28,217.366C640.788,223.805 655.918,226.381 661.072,221.229C666.222,216.078 663.326,205.131 650.447,208.673C647.226,203.2 637.889,205.132 633.384,200.624C628.876,196.117 611.488,183.239 606.98,201.59L606.98,201.59Z" style="fill:white;fill-rule:nonzero;stroke:black;stroke-width:0.52px;"/>
            <path d="M650.45,208.68C647.392,209.324 646.425,214.636 648.354,217.373" style="fill:white;fill-rule:nonzero;stroke:black;stroke-width:0.52px;stroke-linecap:round;"/>
            <path d="M657.05,211.9C658.017,213.51 657.371,215.763 656.887,216.89" style="fill:white;fill-rule:nonzero;stroke:black;stroke-width:0.52px;stroke-linecap:round;"/>
            <path d="M625.34,202.08C631.294,202.402 632.423,206.749 638.861,208.358" style="fill:white;fill-rule:nonzero;stroke:black;stroke-width:0.52px;stroke-linecap:round;"/>
            <path d="M621.4,187.43C641.971,192.581 658.292,197.089 668.413,202.884C678.534,208.679 694.205,210.289 707.917,206.426C721.63,202.562 748.071,199.021 746.767,216.085C753.955,207.552 744.809,198.377 726.525,196.766C726.854,188.396 717.896,180.829 711.454,185.819C717.412,185.015 722.554,196.122 710.804,200.629C713.087,192.259 704.762,184.692 696.112,188.395C701.662,190.005 707.275,199.312 694.858,202.883C687.02,205.137 675.595,202.24 667.108,197.088C658.62,191.937 610.954,173.264 621.4,187.43L621.4,187.43Z" style="fill:white;fill-rule:nonzero;stroke:black;stroke-width:0.52px;"/>
            <path d="M673.31,179.06C666.872,181.958 671.056,188.719 661.077,192.582C651.094,196.445 644.173,205.299 646.427,212.865C653.19,198.055 665.102,198.699 669.285,192.904C673.473,187.109 679.589,178.577 673.31,179.06Z" style="fill:white;fill-rule:nonzero;stroke:black;stroke-width:0.52px;"/>
            <path d="M675.08,180.02C674.759,191.771 665.509,187.49 669.122,204.006C670.251,209.157 672.343,217.528 668.801,225.899C679.184,218.333 672.505,202.439 677.172,196.44C679.426,193.543 682.322,189.035 683.451,185.172C681.034,191.933 681.197,204.49 687.797,207.709C682.484,195.152 702.126,184.85 688.601,170.362C686.672,173.904 680.551,180.182 675.08,180.021L675.08,180.02Z" style="fill:white;fill-rule:nonzero;stroke:black;stroke-width:0.52px;"/>
            <path d="M642.24,168.27C643.853,170.685 645.461,176.802 644.011,180.183C647.232,178.251 651.903,173.261 653.348,169.88C659.948,170.846 662.523,179.056 656.248,182.597C660.111,182.597 666.711,182.597 670.411,178.251C665.907,173.26 651.903,165.533 642.24,168.27L642.24,168.27Z" style="fill:white;fill-rule:nonzero;stroke:black;stroke-width:0.52px;"/>
            <path d="M542.11,145.18C541.068,144.231 539.31,143.328 536.156,142.68C526.41,140.682 531.443,131.896 539.739,131.974C557.443,112.657 567.385,127.548 588.956,121.431C596.506,119.291 601.689,119.924 605.802,121.703C615.46,115.264 626.79,117.063 635.002,124.629C635.915,123.178 637.14,122.07 638.86,121.592C646.423,119.492 652.539,125.94 654.631,134.311C660.527,133.219 667.26,136.137 671.689,140.162C677.823,137.012 682.047,136.872 683.602,140.11C689.077,137.535 696.169,135.92 699.71,144.612C703.252,153.305 691.34,150.73 689.406,169.081C688.215,180.402 675.564,184.857 665.581,178.096C649.614,167.279 634.031,165.539 626.302,181.96C618.577,198.38 612.523,207.92 593.785,202.565C587.027,200.633 578.331,203.209 572.86,210.614C567.385,218.019 559.014,211.096 549.035,211.901C561.589,209.97 556.781,206.812 567.71,206.106C577.69,205.462 575.115,196.126 581.552,194.838C556.439,201.277 557.406,191.94 536.802,198.379C545.815,186.789 559.981,193.228 567.065,186.467C548.39,186.145 540.04,173.945 531.648,179.062C518.448,187.111 524.24,210.027 489.794,208.038C473.052,207.072 462.427,209.326 452.448,219.307C469.836,183.248 493.486,203.058 504.927,191.619C511.69,184.858 516.84,179.706 520.381,173.267C521.627,171.001 523.315,169.705 525.423,169.204C496.769,160.189 514.098,146.146 542.111,145.181L542.11,145.18Z" style="fill:white;fill-rule:nonzero;stroke:black;stroke-width:0.52px;"/>
            <path d="M683.59,140.11C684.028,141.015 684.253,142.19 684.253,143.643C684.253,150.725 673.628,151.048 672.986,161.512C672.648,166.985 672.019,170.043 668.315,169.399C664.615,168.755 661.394,162.96 664.936,156.199" style="fill:white;fill-rule:nonzero;stroke:black;stroke-width:0.52px;stroke-linecap:round;"/>
            <path d="M547.42,134.63C544.753,132.756 542.087,131.995 539.695,131.973" style="fill:white;fill-rule:nonzero;stroke:black;stroke-width:0.52px;"/>
            <path d="M605.74,121.65C614.265,125.341 618.423,134.196 630.807,134.63C642.728,135.048 650.128,152.338 670.086,141.069C670.628,140.764 671.157,140.479 671.669,140.215" style="fill:white;fill-rule:nonzero;stroke:black;stroke-width:0.52px;"/>
            <path d="M635,124.63C633.221,127.459 632.817,131.408 633.304,134.874" style="fill:white;fill-rule:nonzero;stroke:black;stroke-width:0.52px;"/>
            <path d="M596.04,161.03C580.911,161.03 577.044,168.757 577.044,176.162C577.044,183.567 584.127,193.226 596.686,193.226C609.24,193.226 616.003,185.499 616.003,177.128C616.003,168.757 608.274,161.03 596.04,161.03Z" style="fill:white;fill-rule:nonzero;stroke:black;stroke-width:0.52px;"/>
            <path d="M598.77,192.9C598.449,188.715 590.882,189.358 591.203,186.139C591.524,182.919 595.391,181.631 595.391,177.124C595.391,172.617 602.149,172.295 604.403,175.836C606.658,179.377 613.42,186.299 614.87,182.758" style="fill:white;fill-rule:nonzero;stroke:black;stroke-width:0.52px;"/>
            <path d="M604.41,175.84C600.868,179.381 599.26,186.625 603.927,192.26" style="fill:white;fill-rule:nonzero;stroke:black;stroke-width:0.52px;"/>
            <path d="M609.24,181.31C608.115,183.725 607.794,187.427 609.082,189.681" style="fill:white;fill-rule:nonzero;stroke:black;stroke-width:0.52px;"/>
            <path d="M669.36,169.48C681.193,170.446 683.206,157.406 674.352,156.602" style="fill:none;stroke:black;stroke-width:0.52px;"/>
            <path d="M654.8,134.31C650.696,129.079 641.279,127.308 641.117,138.415" style="fill:none;stroke:black;stroke-width:0.52px;"/>
            <path d="M639.99,151.05C635.965,141.069 625.661,139.62 620.186,144.611C615.632,148.764 615.519,159.582 625.34,161.836C628.719,157.812 635.319,152.499 639.99,151.051L639.99,151.05Z" style="fill:white;fill-rule:nonzero;stroke:black;stroke-width:0.52px;"/>
            <path d="M635.56,144.77C629.764,139.618 621.231,149.358 628.96,158.292" style="fill:white;fill-rule:nonzero;stroke:black;stroke-width:0.52px;"/>
            <path d="M525.31,169.16C529.189,168.239 534.86,170.137 543.556,174.228C549.031,176.803 565.452,182.277 575.752,176.803C565.127,180.667 557.081,164.568 549.031,166.5C540.981,168.432 526.252,171.41 520.056,165.534C535.185,166.5 543.323,154.513 560.619,164.89C565.452,167.788 571.569,169.72 577.04,169.398C562.877,152.334 544.202,163.28 542.269,149.437C550.802,158.613 571.648,147.344 582.273,164.569" style="fill:white;fill-rule:nonzero;stroke:black;stroke-width:0.52px;"/>
            <path d="M545.33,152.01C543.338,149.531 544.238,147.06 542.101,145.105" style="fill:white;fill-rule:nonzero;stroke:black;stroke-width:0.52px;"/>
        </g>
        <path d="M654.8,134.31C651.258,130.527 643.533,133.505 645.704,141.152C647.396,137.611 651.017,134.632 654.8,134.31Z" style="fill-rule:nonzero;"/>
        <path d="M632.91,154.93C635.348,153.16 637.864,151.707 639.985,151.048C638.827,148.184 637.156,146.022 635.227,144.514C633.385,143.242 628.093,150.358 632.91,154.93L632.91,154.93Z" style="fill-rule:nonzero;"/>
        <g>
            <path d="M623.4,141.87C617.604,138.007 612.292,138.329 610.521,141.548C606.338,141.387 602.875,144.446 602.713,150.563" style="fill:none;stroke:black;stroke-width:0.52px;stroke-linecap:round;"/>
            <path d="M611.65,153.14C604.729,148.392 595.229,150.163 595.875,160.787" style="fill:none;stroke:black;stroke-width:0.52px;stroke-linecap:round;"/>
            <path d="M591.69,166.82C595.069,164.083 599.898,162.152 603.603,166.981" style="fill:none;stroke:black;stroke-width:0.52px;stroke-linecap:round;"/>
            <path d="M643.37,156.36C642.083,158.13 641.116,160.867 643.208,165.053C640.632,161.672 634.195,161.672 627.27,170.687" style="fill:none;stroke:black;stroke-width:0.52px;stroke-linecap:round;"/>
            <path d="M658.66,155.88C650.289,156.846 650.452,162.319 657.21,164.734" style="fill:none;stroke:black;stroke-width:0.52px;stroke-linecap:round;"/>
            <path d="M599.1,135.43C592.017,133.981 586.867,138.167 596.688,141.708" style="fill:none;stroke:black;stroke-width:0.52px;stroke-linecap:round;"/>
            <path d="M612.62,130.6C602.637,128.185 598.612,130.761 603.12,133.015" style="fill:none;stroke:black;stroke-width:0.52px;stroke-linecap:round;"/>
            <path d="M583.8,170.69C583.479,174.232 585.408,178.9 591.204,173.588" style="fill:none;stroke:black;stroke-width:0.52px;stroke-linecap:round;"/>
            <path d="M585.74,181.31C585.74,182.276 585.578,183.403 584.932,184.208" style="fill:none;stroke:black;stroke-width:0.52px;stroke-linecap:round;"/>
            <path d="M562.55,134.14C556.433,132.369 555.308,126.735 562.392,127.218" style="fill:none;stroke:black;stroke-width:0.52px;stroke-linecap:round;"/>
            <path d="M560.46,147.18C553.698,144.926 553.698,138.326 559.331,138.97" style="fill:none;stroke:black;stroke-width:0.52px;stroke-linecap:round;"/>
            <path d="M573.02,143.8C565.132,141.868 564.812,136.395 570.77,137.2" style="fill:none;stroke:black;stroke-width:0.52px;stroke-linecap:round;"/>
            <path d="M573.98,127.06C569.797,126.738 563.355,131.407 574.143,134.143" style="fill:none;stroke:black;stroke-width:0.52px;stroke-linecap:round;"/>
            <path d="M585.74,136.4C575.919,134.951 576.082,138.976 581.873,141.552" style="fill:none;stroke:black;stroke-width:0.52px;stroke-linecap:round;"/>
            <path d="M593.14,127.06C585.573,125.611 582.998,130.119 588.148,132.05" style="fill:none;stroke:black;stroke-width:0.52px;stroke-linecap:round;"/>
            <path d="M569.32,154.91C567.466,153.381 565.941,146.056 574.791,148.23" style="fill:none;stroke:black;stroke-width:0.52px;stroke-linecap:round;"/>
            <path d="M587.67,152.66C581.716,151.05 576.082,156.845 581.553,160.226" style="fill:none;stroke:black;stroke-width:0.52px;stroke-linecap:round;"/>
            <path d="M595.55,145.74C589.275,144.613 583.962,146.384 587.342,148.638" style="fill:none;stroke:black;stroke-width:0.52px;stroke-linecap:round;"/>
        </g>
        <path d="M654.46,134.31C650.923,134.965 647.752,137.044 645.698,141.15" style="fill:white;fill-rule:nonzero;stroke:black;stroke-width:0.52px;"/>
    </g>
</svg>
