<?xml version="1.0" encoding="UTF-8" standalone="no"?>
<!DOCTYPE svg PUBLIC "-//W3C//DTD SVG 1.1//EN" "http://www.w3.org/Graphics/SVG/1.1/DTD/svg11.dtd">
<svg width="100%" height="100%" viewBox="0 0 900 600" version="1.1" xmlns="http://www.w3.org/2000/svg" xmlns:xlink="http://www.w3.org/1999/xlink" xml:space="preserve" xmlns:serif="http://www.serif.com/" style="fill-rule:evenodd;clip-rule:evenodd;">
    <g>
        <path d="M22.222,82.828L22.222,128.285L67.677,128.285C67.677,135.859 75.253,143.436 82.829,143.436L82.829,188.89L128.281,188.89L128.281,143.436C135.857,143.436 143.433,135.859 143.433,128.285L188.888,128.285L188.888,82.828L143.433,82.828C143.433,75.254 135.857,67.677 128.281,67.677L128.281,22.223L82.829,22.223L82.829,67.677C75.253,67.677 67.677,75.254 67.677,82.828L22.222,82.828Z" style="fill:rgb(230,13,46);fill-rule:nonzero;"/>
        <path d="M25.254,85.857L25.254,125.254L70.706,125.254C70.706,132.828 78.282,140.404 85.858,140.404L85.858,185.858L125.25,185.858L125.25,140.404C132.826,140.404 140.402,132.827 140.402,125.254L185.854,125.254L185.854,85.857L140.402,85.857C140.402,78.283 132.826,70.706 125.25,70.706L125.25,25.252L85.858,25.252L85.858,70.706C78.282,70.706 70.706,78.283 70.706,85.857L25.254,85.857Z" style="fill:rgb(150,135,125);fill-rule:nonzero;"/>
        <path d="M26.77,87.373L26.77,123.737L72.222,123.737C72.222,131.311 79.798,138.89 87.374,138.89L87.374,184.344L123.736,184.344L123.736,138.89C131.312,138.89 138.888,131.311 138.888,123.737L184.34,123.737L184.34,87.373L138.888,87.373C138.888,79.799 131.312,72.223 123.736,72.223L123.736,26.769L87.374,26.769L87.374,72.223C79.798,72.223 72.222,79.8 72.222,87.373L26.77,87.373Z" style="fill:rgb(204,204,204);fill-rule:nonzero;"/>
        <g id="vi">
            <path d="M84.536,71.681C87.199,74.344 86.479,79.38 82.929,82.931C79.379,86.481 74.342,87.201 71.68,84.538C69.017,81.876 69.737,76.839 73.287,73.288C76.837,69.738 81.874,69.018 84.536,71.681Z" style="fill:rgb(150,135,125);fill-rule:nonzero;"/>
            <path d="M71.143,79.715L72.214,78.643L76.5,80.785L74.357,76.5L75.428,75.428L79.714,83.999L71.143,79.713L71.143,79.715Z" style="fill:rgb(208,208,208);fill-rule:nonzero;"/>
            <path d="M77.572,73.287L78.643,72.216L85.072,78.644L84,79.715L77.572,73.287Z" style="fill:rgb(208,208,208);fill-rule:nonzero;"/>
        </g>
        <g id="vi1" serif:id="vi" transform="matrix(-3.82857e-16,1,-1,-3.82857e-16,211.112,0.002)">
            <path d="M84.536,71.681C87.199,74.344 86.479,79.38 82.929,82.931C79.379,86.481 74.342,87.201 71.68,84.538C69.017,81.876 69.737,76.839 73.287,73.288C76.837,69.738 81.874,69.018 84.536,71.681Z" style="fill:rgb(150,135,125);fill-rule:nonzero;"/>
            <path d="M71.143,79.715L72.214,78.643L76.5,80.785L74.357,76.5L75.428,75.428L79.714,83.999L71.143,79.713L71.143,79.715Z" style="fill:rgb(208,208,208);fill-rule:nonzero;"/>
            <path d="M77.572,73.287L78.643,72.216L85.072,78.644L84,79.715L77.572,73.287Z" style="fill:rgb(208,208,208);fill-rule:nonzero;"/>
        </g>
        <g id="vi2" serif:id="vi" transform="matrix(-1,-7.65714e-16,7.65714e-16,-1,211.11,211.114)">
            <path d="M84.536,71.681C87.199,74.344 86.479,79.38 82.929,82.931C79.379,86.481 74.342,87.201 71.68,84.538C69.017,81.876 69.737,76.839 73.287,73.288C76.837,69.738 81.874,69.018 84.536,71.681Z" style="fill:rgb(150,135,125);fill-rule:nonzero;"/>
            <path d="M71.143,79.715L72.214,78.643L76.5,80.785L74.357,76.5L75.428,75.428L79.714,83.999L71.143,79.713L71.143,79.715Z" style="fill:rgb(208,208,208);fill-rule:nonzero;"/>
            <path d="M77.572,73.287L78.643,72.216L85.072,78.644L84,79.715L77.572,73.287Z" style="fill:rgb(208,208,208);fill-rule:nonzero;"/>
        </g>
        <g id="vi3" serif:id="vi" transform="matrix(7.04481e-16,-1,1,7.04481e-16,-0.002,211.112)">
            <path d="M84.536,71.681C87.199,74.344 86.479,79.38 82.929,82.931C79.379,86.481 74.342,87.201 71.68,84.538C69.017,81.876 69.737,76.839 73.287,73.288C76.837,69.738 81.874,69.018 84.536,71.681Z" style="fill:rgb(150,135,125);fill-rule:nonzero;"/>
            <path d="M71.143,79.715L72.214,78.643L76.5,80.785L74.357,76.5L75.428,75.428L79.714,83.999L71.143,79.713L71.143,79.715Z" style="fill:rgb(208,208,208);fill-rule:nonzero;"/>
            <path d="M77.572,73.287L78.643,72.216L85.072,78.644L84,79.715L77.572,73.287Z" style="fill:rgb(208,208,208);fill-rule:nonzero;"/>
        </g>
        <g>
            <circle cx="105.555" cy="105.557" r="31.822" style="fill:none;stroke:rgb(150,135,125);stroke-width:0.51px;"/>
            <circle cx="105.555" cy="105.557" r="24.245" style="fill:none;stroke:rgb(150,135,125);stroke-width:0.51px;"/>
        </g>
        <g>
            <circle cx="93.434" cy="131.31" r="1.515"/>
            <circle cx="117.675" cy="131.31" r="1.515"/>
            <path d="M104.55,131.31L104.55,132.89L102.53,132.89C100.509,132.89 100.509,134.47 102.53,134.47L104.55,134.47L104.55,136.049C104.557,137.686 106.313,137.885 106.442,136.187L106.57,134.479L108.59,134.479C110.61,134.479 110.61,132.899 108.59,132.899L106.57,132.899L106.57,131.319C106.57,129.739 104.55,129.739 104.55,131.319L104.55,131.31Z" style="fill-rule:nonzero;"/>
            <path d="M75.954,113.4L78.038,112.903L77.807,111.938C77.755,111.716 77.667,111.566 77.545,111.486C77.423,111.406 77.213,111.384 76.915,111.419L76.881,111.274L78.675,110.847L78.71,110.991C78.504,111.043 78.36,111.106 78.275,111.18C78.191,111.253 78.135,111.341 78.109,111.442C78.082,111.544 78.09,111.683 78.132,111.86L78.362,112.826L80.027,112.429C80.296,112.365 80.469,112.306 80.547,112.251C80.606,112.21 80.649,112.142 80.676,112.047C80.711,111.918 80.714,111.79 80.684,111.665L80.638,111.474L80.783,111.439L81.325,113.714L81.181,113.749L81.136,113.561C81.084,113.342 80.982,113.198 80.831,113.13C80.732,113.087 80.524,113.104 80.206,113.18L76.782,113.996C76.513,114.06 76.34,114.119 76.262,114.173C76.203,114.215 76.16,114.282 76.132,114.374C76.096,114.501 76.094,114.628 76.124,114.756L76.169,114.943L76.024,114.978L75.084,111.034L76.237,110.705L76.269,110.842C76.038,110.969 75.875,111.091 75.78,111.208C75.686,111.326 75.628,111.457 75.608,111.601C75.587,111.745 75.609,111.955 75.675,112.231L75.954,113.4L75.954,113.4ZM74.612,103.998C74.652,103.292 74.954,102.695 75.52,102.208C76.085,101.72 76.769,101.499 77.572,101.544C78.398,101.591 79.07,101.89 79.586,102.443C80.102,102.995 80.34,103.642 80.298,104.383C80.256,105.132 79.954,105.746 79.393,106.226C78.832,106.705 78.129,106.921 77.284,106.873C76.42,106.825 75.731,106.491 75.219,105.872C74.774,105.334 74.572,104.709 74.612,103.998L74.612,103.998ZM74.9,104.091C74.873,104.578 75.032,104.978 75.376,105.293C75.805,105.685 76.453,105.905 77.319,105.954C78.207,106.004 78.901,105.852 79.402,105.499C79.782,105.228 79.985,104.853 80.012,104.375C80.041,103.864 79.866,103.431 79.486,103.075C79.106,102.72 78.487,102.518 77.628,102.469C76.697,102.417 75.993,102.561 75.515,102.902C75.134,103.175 74.93,103.572 74.9,104.091L74.9,104.091ZM82.794,94.14L82.277,95.499L79.239,96.317C79.196,96.446 79.159,96.551 79.128,96.631C79.116,96.664 79.102,96.699 79.086,96.736C79.071,96.773 79.054,96.811 79.036,96.85L80.516,97.413C80.837,97.535 81.049,97.576 81.153,97.535C81.3,97.482 81.409,97.36 81.482,97.17L81.557,96.971L81.696,97.024L80.866,99.206L80.727,99.153L80.8,98.962C80.881,98.746 80.87,98.566 80.765,98.42C80.707,98.338 80.533,98.241 80.243,98.131L76.953,96.878C76.632,96.756 76.42,96.715 76.316,96.756C76.168,96.812 76.058,96.936 75.985,97.129L75.912,97.32L75.773,97.267L76.479,95.412C76.685,94.871 76.876,94.487 77.053,94.261C77.229,94.034 77.457,93.872 77.737,93.773C78.017,93.675 78.303,93.681 78.596,93.793C78.909,93.912 79.142,94.117 79.295,94.409C79.447,94.701 79.49,95.079 79.422,95.543L81.283,95.048C81.71,94.935 82.012,94.813 82.188,94.683C82.364,94.552 82.52,94.353 82.655,94.087L82.794,94.14L82.794,94.14ZM78.8,96.76C78.818,96.712 78.834,96.671 78.849,96.637C78.863,96.602 78.875,96.574 78.884,96.551C79.068,96.065 79.103,95.659 78.986,95.332C78.87,95.006 78.649,94.78 78.323,94.656C78.005,94.535 77.709,94.536 77.434,94.66C77.159,94.783 76.959,95.009 76.835,95.337C76.779,95.482 76.728,95.687 76.681,95.953L78.8,96.76L78.8,96.76ZM90.396,78.707L91.449,80.074L91.331,80.151C90.979,79.868 90.649,79.697 90.342,79.637C89.9,79.55 89.465,79.645 89.038,79.922C88.455,80.299 88.161,80.816 88.156,81.474C88.154,82.028 88.327,82.573 88.675,83.111C88.958,83.547 89.3,83.89 89.702,84.141C90.103,84.391 90.495,84.512 90.877,84.502C91.259,84.493 91.593,84.395 91.881,84.209C92.05,84.099 92.199,83.972 92.329,83.828C92.458,83.683 92.569,83.522 92.662,83.344L91.805,82.022C91.657,81.792 91.542,81.653 91.461,81.605C91.381,81.557 91.292,81.538 91.195,81.548C91.098,81.558 90.957,81.623 90.772,81.743L90.689,81.614L92.46,80.467L92.543,80.596L92.459,80.65C92.284,80.764 92.201,80.9 92.212,81.059C92.221,81.172 92.304,81.35 92.463,81.596L93.37,82.995C93.201,83.302 93.013,83.57 92.803,83.798C92.593,84.027 92.334,84.241 92.026,84.44C91.143,85.012 90.288,85.164 89.462,84.894C88.843,84.692 88.353,84.313 87.993,83.758C87.733,83.355 87.58,82.907 87.534,82.413C87.48,81.826 87.576,81.285 87.823,80.789C88.032,80.377 88.364,80.023 88.821,79.727C88.987,79.619 89.147,79.535 89.3,79.474C89.454,79.412 89.685,79.347 89.995,79.278C90.151,79.243 90.251,79.212 90.294,79.185C90.336,79.157 90.36,79.114 90.365,79.055C90.37,78.996 90.338,78.907 90.271,78.788L90.396,78.707L90.396,78.707ZM99.269,79.321L97.23,79.864L97.094,80.79C97.06,81.018 97.057,81.182 97.084,81.283C97.105,81.363 97.162,81.424 97.255,81.464C97.347,81.505 97.523,81.5 97.781,81.451L97.819,81.595L96.161,82.036L96.123,81.892C96.333,81.795 96.462,81.706 96.51,81.627C96.609,81.468 96.688,81.176 96.747,80.753L97.447,75.926L97.583,75.89L100.581,79.783C100.823,80.096 101.017,80.289 101.166,80.362C101.314,80.435 101.497,80.449 101.716,80.405L101.754,80.549L99.676,81.101L99.638,80.957C99.845,80.891 99.977,80.819 100.035,80.739C100.093,80.66 100.111,80.578 100.088,80.492C100.058,80.379 99.958,80.212 99.789,79.994L99.269,79.321L99.269,79.321ZM99.084,79.063L97.625,77.172L97.274,79.544L99.084,79.063L99.084,79.063ZM108.705,79.035L108.836,79.068L108.313,80.528L104.097,80.363L104.103,80.215L104.307,80.223C104.538,80.232 104.705,80.163 104.81,80.017C104.87,79.934 104.905,79.737 104.918,79.426L105.054,75.912C105.067,75.572 105.038,75.358 104.967,75.27C104.867,75.148 104.714,75.083 104.508,75.075L104.303,75.067L104.309,74.918L106.775,75.014L106.769,75.163C106.48,75.149 106.276,75.168 106.157,75.219C106.038,75.271 105.956,75.339 105.91,75.423C105.864,75.507 105.834,75.711 105.822,76.035L105.689,79.456C105.68,79.678 105.696,79.832 105.735,79.916C105.765,79.974 105.813,80.017 105.879,80.047C105.945,80.076 106.153,80.098 106.504,80.111L106.901,80.127C107.319,80.143 107.613,80.124 107.784,80.069C107.955,80.014 108.113,79.91 108.259,79.759C108.404,79.608 108.553,79.366 108.705,79.035L108.705,79.035ZM115.962,80.977L116.079,81.045L115.172,82.303L111.166,80.978L111.213,80.837L111.407,80.901C111.626,80.973 111.806,80.954 111.947,80.843C112.028,80.779 112.117,80.599 112.214,80.304L113.318,76.966C113.425,76.643 113.456,76.429 113.412,76.324C113.35,76.179 113.221,76.074 113.025,76.01L112.83,75.945L112.877,75.804L115.22,76.579L115.173,76.72C114.899,76.627 114.698,76.588 114.57,76.605C114.441,76.622 114.344,76.664 114.276,76.732C114.208,76.8 114.124,76.988 114.022,77.296L112.947,80.547C112.877,80.758 112.849,80.91 112.864,81.002C112.877,81.065 112.911,81.12 112.966,81.167C113.021,81.213 113.215,81.292 113.549,81.402L113.926,81.527C114.323,81.658 114.611,81.721 114.791,81.715C114.971,81.71 115.151,81.654 115.333,81.549C115.514,81.444 115.724,81.253 115.962,80.977L115.962,80.977ZM121.811,84.074L120.089,82.855L119.29,83.343C119.094,83.463 118.965,83.566 118.905,83.651C118.857,83.719 118.847,83.802 118.875,83.899C118.903,83.996 119.019,84.128 119.222,84.295L119.136,84.416L117.736,83.425L117.822,83.303C118.031,83.402 118.181,83.445 118.273,83.431C118.459,83.405 118.733,83.279 119.096,83.054L123.252,80.5L123.367,80.582L122.296,85.378C122.211,85.763 122.187,86.036 122.226,86.197C122.265,86.357 122.371,86.507 122.545,86.647L122.459,86.768L120.704,85.526L120.79,85.405C120.974,85.521 121.114,85.576 121.212,85.57C121.31,85.564 121.385,85.525 121.436,85.453C121.504,85.357 121.568,85.174 121.627,84.904L121.811,84.074L121.811,84.074ZM121.891,83.766L122.409,81.435L120.362,82.684L121.891,83.766L121.891,83.766ZM128.354,84.957L129.234,86.145L127.935,91.256L130.459,89.384C130.728,89.185 130.874,89.03 130.896,88.92C130.927,88.774 130.879,88.614 130.752,88.442L130.639,88.29L130.759,88.202L131.888,89.726L131.769,89.814L131.654,89.659C131.517,89.474 131.363,89.384 131.194,89.39C131.09,89.394 130.915,89.486 130.67,89.668L126.98,92.404L126.893,92.287L128.28,86.788L125.584,88.786C125.315,88.985 125.168,89.139 125.145,89.246C125.115,89.395 125.163,89.555 125.289,89.725L125.404,89.88L125.285,89.968L124.155,88.444L124.275,88.356L124.387,88.507C124.526,88.695 124.68,88.786 124.849,88.78C124.953,88.776 125.128,88.684 125.373,88.502L128.418,86.245C128.472,86.008 128.499,85.839 128.497,85.738C128.496,85.638 128.469,85.509 128.416,85.351C128.389,85.275 128.328,85.173 128.234,85.046L128.353,84.957L128.354,84.957ZM135.225,97.619L134.04,98.102L133.989,97.958C134.191,97.855 134.33,97.764 134.404,97.684C134.522,97.554 134.593,97.411 134.617,97.257C134.64,97.102 134.615,96.918 134.54,96.706L134.283,95.983L130.358,97.371C130.043,97.483 129.858,97.587 129.804,97.683C129.731,97.816 129.731,97.983 129.802,98.182L129.864,98.36L129.724,98.41L128.954,96.232L129.094,96.182L129.158,96.364C129.235,96.581 129.355,96.712 129.519,96.756C129.619,96.783 129.813,96.746 130.101,96.644L134.026,95.255L133.808,94.638C133.723,94.398 133.645,94.233 133.574,94.145C133.479,94.031 133.347,93.951 133.178,93.906C133.009,93.86 132.805,93.87 132.566,93.935L132.515,93.791L133.741,93.425L135.225,97.619L135.225,97.619ZM130.911,107.285L130.836,105.832L133.284,103.858C133.272,103.722 133.263,103.611 133.259,103.525C133.257,103.49 133.256,103.453 133.255,103.413C133.254,103.372 133.254,103.331 133.254,103.288L131.673,103.37C131.331,103.388 131.12,103.436 131.041,103.516C130.928,103.623 130.877,103.779 130.888,103.982L130.899,104.195L130.751,104.203L130.629,101.871L130.778,101.863L130.789,102.068C130.801,102.298 130.884,102.459 131.039,102.55C131.125,102.602 131.323,102.62 131.633,102.604L135.149,102.421C135.491,102.403 135.702,102.354 135.781,102.275C135.894,102.165 135.944,102.007 135.934,101.8L135.923,101.596L136.072,101.588L136.175,103.57C136.205,104.148 136.185,104.577 136.115,104.855C136.045,105.134 135.901,105.375 135.685,105.578C135.469,105.781 135.205,105.89 134.892,105.907C134.557,105.924 134.261,105.83 134.004,105.625C133.746,105.42 133.555,105.091 133.429,104.639L131.926,105.844C131.581,106.119 131.355,106.352 131.247,106.543C131.138,106.734 131.076,106.978 131.059,107.277L130.911,107.285L130.911,107.285ZM133.507,103.275C133.51,103.326 133.511,103.37 133.512,103.407C133.513,103.445 133.514,103.476 133.515,103.5C133.542,104.019 133.675,104.404 133.914,104.656C134.152,104.908 134.445,105.025 134.793,105.007C135.133,104.989 135.403,104.868 135.605,104.645C135.807,104.421 135.898,104.134 135.88,103.783C135.872,103.628 135.836,103.419 135.771,103.157L133.508,103.275L133.507,103.275ZM135.002,114.485L134.519,116.323L134.375,116.286L134.402,116.185C134.42,116.117 134.416,116.011 134.39,115.866C134.364,115.72 134.31,115.58 134.226,115.445C134.143,115.309 133.996,115.131 133.785,114.909L132.117,113.113L130.795,112.766C130.471,112.681 130.259,112.664 130.16,112.716C130.025,112.786 129.93,112.927 129.874,113.139L129.829,113.31L129.686,113.273L130.273,111.034L130.417,111.071L130.368,111.258C130.309,111.481 130.335,111.657 130.446,111.785C130.514,111.864 130.695,111.942 130.991,112.02L132.238,112.347L134.826,111.48C135.13,111.377 135.322,111.304 135.403,111.26C135.484,111.216 135.595,111.11 135.736,110.942C135.775,110.897 135.808,110.825 135.834,110.727L135.977,110.765L135.386,113.019L135.242,112.982L135.273,112.865C135.305,112.743 135.306,112.624 135.276,112.506C135.246,112.389 135.173,112.315 135.059,112.285C134.966,112.261 134.777,112.296 134.492,112.39L132.504,113.044L133.858,114.505C134.061,114.724 134.222,114.849 134.341,114.881C134.414,114.9 134.483,114.898 134.55,114.876C134.617,114.853 134.676,114.811 134.727,114.749C134.777,114.688 134.821,114.587 134.858,114.447L135.002,114.485L135.002,114.485Z" style="fill-rule:nonzero;"/>
        </g>
        <g>
            <path d="M122.85,110.19C123.382,110.055 124.259,110.164 124.259,110.164C124.259,110.164 124.336,110.53 124.105,110.651C124.362,110.799 125.284,110.754 125.284,110.754C125.284,110.754 124.925,111.029 124.746,111.138C125.079,111.17 125.489,111.599 125.489,111.599C125.489,111.599 124.72,111.727 124.387,111.548C124.592,111.958 124.567,112.317 124.567,112.317C124.567,112.317 123.324,112.009 122.876,111.189" style="fill:rgb(150,135,125);fill-rule:nonzero;stroke:black;stroke-width:0.2px;"/>
            <path d="M120.77,109.49C120.469,110.233 118.259,108.849 118.259,108.849C118.259,108.849 119.233,110.393 120.693,110.566" style="fill:rgb(150,135,125);fill-rule:nonzero;stroke:black;stroke-width:0.2px;"/>
            <path d="M93.181,123.66L119.058,123.66L121.056,122.072L117.726,120.278L112.601,118.536L110.552,117.409L106.76,117.613L103.583,119.304L99.227,119.817L98.202,120.995L94.974,121.252L89.901,121.149L98.356,122.482L91.387,122.123L93.181,123.66L93.181,123.66Z" style="fill:rgb(150,135,125);fill-rule:nonzero;stroke:black;stroke-width:0.2px;"/>
            <path d="M107.12,116.23C103.879,114.488 102.931,118.779 101.535,119.817C103.418,120.137 104.84,118.369 106.454,117.511C107.678,120.844 109.605,118.638 109.605,118.638C109.605,118.638 111.616,121.828 114.294,120.381C115.024,120.931 115.831,120.432 115.831,120.432C115.831,120.432 116.805,120.611 117.01,120.175C117.522,120.355 118.086,119.714 118.086,119.714C118.086,119.714 119.2,119.727 119.418,119.151C121.071,119.445 123.261,115.769 123.261,115.769L123.927,114.488L124.901,114.283C124.901,114.283 124.965,113.642 124.44,113.668C124.427,113.283 124.094,113.078 123.62,113.155C123.71,112.925 123.364,112.745 123.364,112.745C122.441,112.976 122.39,115.308 122.39,115.308C122.39,115.308 120.776,116.537 120.187,116.845C120.161,115.512 117.932,113.706 118.393,112.848C118.854,111.99 120.302,114.167 121.57,113.77C122.838,113.373 123.461,111.723 123.517,110.439C123.159,109.568 122.287,108.134 122.287,108.134L121.468,108.082L120.75,106.34C120.75,106.34 119.239,107.327 119.264,108.185C119.29,109.043 120.853,109.773 120.853,109.773C120.853,109.773 119.952,110.337 119.111,110.081C119.034,110.952 120.135,110.785 120.545,110.798C120.75,111.426 121.365,111.772 121.365,111.772C121.365,111.772 121.75,112.733 120.75,112.643C119.751,112.553 118.572,110.251 117.163,111.311C115.665,112.438 117.83,114.488 117.83,114.488C117.83,114.488 116.51,115.179 115.729,116.947C112.539,114.257 110.669,115.512 107.12,116.23L107.12,116.23Z" style="fill:rgb(150,135,125);fill-rule:nonzero;stroke:black;stroke-width:0.2px;"/>
            <path d="M102.46,111.67C103.792,112.925 102.863,115.012 103.382,115.411C103.933,115.833 104.715,115.206 104.715,115.206C106.111,115.577 108.609,114.796 108.609,114.796C109.708,115.411 109.274,114.503 109.941,114.54C110.531,116.051 112.503,115.769 112.503,115.769C112.503,115.769 110.697,113.925 109.583,113.412C108.724,113.925 106.226,114.002 105.791,113.925C105.305,113.839 105.611,113.246 105.381,112.9C106.299,112.006 105.573,109.787 105.073,108.954C103.037,107.598 100.605,109.922 102.46,111.67L102.46,111.67Z" style="fill:rgb(150,135,125);fill-rule:nonzero;stroke:black;stroke-width:0.2px;"/>
            <path d="M93.599,107.92C91.923,108.373 89.016,105.755 87.657,106.761C86.298,107.766 86.932,110.239 87.838,111.471C88.723,112.674 86.543,113.111 85.954,113.826C85.4,114.499 86.135,115.275 86.135,115.275L86.751,115.674L86.642,116.58L86.968,117.667C86.968,117.667 87.267,117.929 87.367,117.594C87.648,117.875 87.397,118.687 88.092,118.79C87.843,118.27 88.273,116.833 88.273,116.833C88.273,116.833 89.487,116.924 89.795,116.399C90.102,115.873 89.505,114.732 89.505,114.732L89.867,114.732C89.459,114.451 89.323,113.609 89.323,113.609C89.323,113.609 91.008,113.074 90.99,111.797C90.972,110.52 88.255,109.161 89.251,108.5C90.356,107.766 92.276,110.402 93.925,109.188C95.557,107.987 94.505,109.152 94.505,109.152C94.505,109.152 95.251,107.474 93.599,107.92L93.599,107.92Z" style="fill:rgb(150,135,125);fill-rule:nonzero;stroke:black;stroke-width:0.2px;"/>
            <path d="M102.25,89.971C100.008,89.036 95.428,88.978 92.873,87.716C91.752,87.787 91.252,88.671 91.207,89.023C90.035,88.965 89.241,90.81 89.414,91.175C87.281,90.311 86.288,93.686 86.98,94.378C85.161,94.455 85.385,96.78 85.212,97.427C84.629,98.842 85.342,99.319 86.493,98.81C86.666,99.425 86.424,99.77 85.904,99.886C89.061,103.5 90.846,97.663 93.616,97.683C97.074,96.671 98.432,94.967 98.432,94.967L99.79,95.147L102.25,89.971L102.25,89.971Z" style="fill:rgb(150,135,125);fill-rule:nonzero;stroke:black;stroke-width:0.2px;"/>
            <circle cx="105.145" cy="87.384" r="3.305" style="fill:rgb(150,135,125);stroke:black;stroke-width:0.2px;"/>
            <path d="M99.33,113.41C97.28,113.038 93.886,110.912 93.54,108.132C95.449,100.638 105.295,104.551 106.144,98.915C105.927,95.196 106.593,91.515 108.656,88.404C109.616,87.187 110.859,86.867 110.859,86.867C110.859,86.867 111.082,87.66 110.757,88.199C112.383,88.019 114.613,88.929 116.137,89.019C116.585,89.928 116.547,90.261 116.444,90.812C116.342,91.363 115.727,91.222 115.727,91.222C115.329,91.599 114.851,91.983 113.78,91.786C112.973,92.401 111.269,92.554 111.269,92.554C111.269,92.554 114.83,96.308 114.241,97.474C114.984,97.819 116.086,99.472 116.086,99.472C116.086,99.472 118.52,98.191 119.314,97.012C120.723,97.012 123.029,98.486 124.182,98.652C125.591,99.792 127,100.958 127,100.958C127,100.958 125.322,102.06 124.592,100.599C123.708,100.676 121.799,98.562 119.16,99.216C119.083,101.56 116.496,103.213 116.496,103.213C116.496,103.213 118.911,102.875 120.236,103.674C121.607,104.827 123.618,106.39 123.618,106.39L125.412,109.464C125.412,109.464 123.772,109.746 123.157,107.619C122.542,109.336 122.517,106.556 120.083,105.262C119.34,105.352 118.968,105.403 118.34,104.904C116.585,105.378 114.51,106.402 112.038,106.133C110.283,106.684 109.001,108.145 107.221,108.952C105.44,109.759 104.915,109.362 104.915,109.362L103.48,109.413C103.273,110.277 103.39,111.591 102.609,111.821C103.109,112.359 102.25,114.652 101.379,115.049C101.789,116.523 102.99,116.974 104.249,117.714C104.249,117.714 105.363,117.202 106.093,117.868C106.824,118.534 107.579,120.43 107.579,120.43C107.579,120.43 106.06,120.533 105.581,120.327C105.102,120.122 105.056,119.623 104.505,119.764C101.033,116.676 99.203,117.904 98.868,117.202C98.526,116.481 99.688,114.601 99.33,113.41L99.33,113.41Z" style="fill:rgb(150,135,125);fill-rule:nonzero;stroke:black;stroke-width:0.2px;"/>
            <path d="M90.99,99.655C91.171,99.429 92.439,99.909 92.439,99.909L94.758,101.358L99.469,104.402L101.135,106.829L98.128,105.851L93.961,102.264L91.715,100.814C91.715,100.814 90.809,99.881 90.99,99.655L90.99,99.655Z" style="fill:rgb(150,135,125);fill-rule:nonzero;stroke:black;stroke-width:0.2px;"/>
            <path d="M118.85,107.37C117.223,106.96 113.213,111.828 113.213,111.828L116.237,115.108C116.237,115.108 116.326,109.522 118.85,107.37Z" style="fill:rgb(150,135,125);fill-rule:nonzero;stroke:black;stroke-width:0.2px;"/>
            <path d="M99.023,93.789C98.136,94.926 98.056,97.218 99.211,98.142C99.319,99.533 100.502,102.339 101.431,102.603C102.447,102.89 106.504,103.832 108.093,103.576C107.789,106.151 109.809,108.217 111.68,109.571C111.666,109.803 111.663,110.085 111.879,110.37C112.088,110.647 113.071,110.697 113.114,110.545C113.55,111.158 115.662,111.427 115.815,111.154C115.964,110.888 112.709,108.623 111.987,107.932C111.374,106.788 110.212,104.238 109.937,102.193C108.34,100.292 105.598,100.33 105.598,100.33L105.684,96.607L105.838,92.405L104.352,91.637C104.352,91.637 104.652,91.5 104.813,91.329C105.174,91.485 105.852,90.76 105.941,90.555C106.282,90.676 106.592,90.674 106.652,90.491C106.705,90.33 106.766,89.612 106.89,89.241C108.011,88.254 106.727,86.161 105.013,86.127C103.316,86.092 102.936,88.15 102.969,88.306C103.128,88.952 103.094,89.277 102.969,89.433C102.841,89.593 102.251,89.946 102.251,89.946C102.251,89.946 101.303,89.497 100.15,89.946C98.997,90.394 97.703,90.996 97.639,91.739C97.114,91.816 96.256,92.495 96.102,93.072C95.641,92.982 95.039,93.366 94.052,94.968C92.285,95.749 92.182,99.528 92.182,99.528C92.182,99.528 91.705,100.223 91.683,100.591C91.66,100.96 91.849,101.296 92.08,101.232C92.105,101.475 92.426,101.693 92.566,101.616C92.618,101.86 92.969,101.996 93.181,101.962C93.201,102.129 93.883,102.087 93.937,101.936C93.997,101.77 93.87,100.94 93.95,100.873C94.024,100.812 94.59,101.245 94.744,101.129C94.898,101.014 94.715,100.645 94.629,100.502C94.552,100.374 94.065,100.233 93.95,99.631C93.835,99.028 94.257,98.196 94.257,98.196C94.257,98.196 96.179,96.684 96.397,95.39C97.844,95.531 98.61,94.266 99.023,93.789L99.023,93.789Z" style="fill:rgb(150,135,125);fill-rule:nonzero;stroke:black;stroke-width:0.2px;"/>
            <path d="M95.679,88.37C96.118,87.297 97.703,87.396 97.703,87.396C97.703,87.396 98.27,85.904 100.406,86.794C101.21,86.173 103.327,87.063 103.327,87.063C103.327,87.063 104.12,86.007 105.159,86.128C107.084,86.352 107.404,88.117 107.285,88.421C106.232,88.687 104.406,87.565 103.019,87.883C102.209,88.341 100.896,88.825 100.406,89.485C99.122,89.619 97.751,88.303 95.679,88.37L95.679,88.37Z" style="fill:rgb(150,135,125);fill-rule:nonzero;stroke:black;stroke-width:0.2px;"/>
            <path d="M99.689,90.151C100.169,89.856 101.348,89.338 102.149,89.972C102.988,90.875 104.275,91.714 104.275,91.714L105.735,92.329L106.402,92.739L105.966,99.426C104.614,98.043 103.347,97.8 102.379,96.172C101.86,95.474 102.257,93.796 101.354,92.687C100.451,91.579 99.49,90.83 99.689,90.151L99.689,90.151Z" style="fill:rgb(150,135,125);fill-rule:nonzero;stroke:black;stroke-width:0.2px;"/>
            <path d="M103.2,92.082C103.2,92.082 103.965,91.937 104.178,92.118C104.446,92.209 104.704,92.286 104.776,92.517C105.066,92.603 105.265,92.752 105.265,92.97C105.537,93.042 105.646,93.531 105.646,93.531L105.392,93.912C105.392,93.912 105.102,93.64 105.066,93.35C104.883,93.26 104.477,93.164 104.378,92.897C104.061,92.866 103.857,92.702 103.798,92.426C103.503,92.494 103.2,92.082 103.2,92.082L103.2,92.082Z" style="fill:rgb(150,135,125);fill-rule:nonzero;stroke:black;stroke-width:0.2px;"/>
            <path d="M109.68,87.717C109.244,87.23 108.476,87.589 108.476,87.589L106.426,91.125L105.529,91.868L105.452,94.635L106.195,97.222L105.939,99.221C105.939,99.221 106.971,98.252 107.092,97.709C107.208,97.19 106.708,95.506 106.708,95.506C106.708,95.506 106.093,94.455 106.836,92.508C107.579,90.561 109.27,88.947 109.68,87.717L109.68,87.717Z" style="fill:rgb(150,135,125);fill-rule:nonzero;stroke:black;stroke-width:0.2px;"/>
            <path d="M114.74,90.868C114.74,90.868 111.54,95.441 106.3,97.068C104.853,97.414 105.378,93.686 105.378,93.686L105.019,93.789C105.019,93.789 104.212,97.44 106.146,97.478C111.412,96.441 115.362,90.898 115.362,90.898L114.732,90.87L114.74,90.868Z" style="fill:rgb(150,135,125);fill-rule:nonzero;stroke:black;stroke-width:0.2px;"/>
            <path d="M116.91,117.16C116.91,117.16 116.423,117.519 115.783,117.16C115.45,116.391 114.553,116.34 114.553,116.34C114.553,116.34 113.975,114.681 113.067,115.162C112.926,114.303 111.94,114.752 111.94,114.752C111.94,114.752 111.914,113.509 110.761,113.676C111.145,112.254 109.172,112.343 109.172,112.343C109.172,112.343 109.108,110.742 106.2,111.062C112.465,108.257 117.422,115.469 117.422,115.469" style="fill:rgb(150,135,125);fill-rule:nonzero;stroke:black;stroke-width:0.2px;"/>
            <path d="M119.88,117.77C119.88,117.77 121.328,119.397 122.083,119.41C122.839,119.423 122.903,117.821 122.903,117.821C122.903,117.821 123.147,118.513 123.518,118.334C123.48,118.82 123.979,118.949 123.979,118.949C123.979,118.949 122.673,121.985 118.958,119.102" style="fill:rgb(150,135,125);fill-rule:nonzero;stroke:black;stroke-width:0.2px;"/>
            <path d="M108.55,118.39L108.038,120.491C108.038,120.491 107.384,121.08 107.576,121.208C107.769,121.336 108.806,121.003 108.806,121.003C108.806,121.003 110.42,120.811 110.907,120.337C111.24,121.093 111.983,121.157 111.983,121.157C111.983,121.157 112.034,120.837 111.932,120.645C112.291,120.709 112.598,120.593 112.598,120.593C112.598,120.593 112.803,120.004 112.342,119.774C112.393,119.338 112.611,118.954 111.83,119.005C111.253,119.62 109.831,120.324 109.472,120.081C109.114,119.838 110.882,119.056 110.395,118.031" style="fill:rgb(150,135,125);fill-rule:nonzero;stroke:black;stroke-width:0.2px;"/>
        </g>
    </g>
</svg>
