<?xml version="1.0" encoding="UTF-8"?>
<svg width="402px" height="505px" viewBox="0 0 402 505" version="1.1" xmlns="http://www.w3.org/2000/svg" xmlns:xlink="http://www.w3.org/1999/xlink">
    <!-- Generator: Sketch 48.2 (47327) - http://www.bohemiancoding.com/sketch -->
    <title>Moldova</title>
    <desc>Created with Sketch.</desc>
    <defs></defs>
    <g id="Page-2" stroke="none" stroke-width="1" fill="none" fill-rule="evenodd">
        <g id="Group" fill-rule="nonzero">
            <g transform="translate(25.000000, 0.000000)">
                <path d="M123.69,0.24 C120.467,0.24 117.652,1.062 116.01,2.34 C118.619,3.1 120.516,5.506 120.516,8.432 L120.516,15.855 L113.094,15.855 C110.187,15.855 107.779,13.985 107.001,11.401 C105.723,13.043 104.902,15.858 104.902,19.08 C104.902,22.303 105.723,25.119 107.001,26.759 C107.762,24.149 110.167,22.253 113.094,22.253 L120.516,22.253 L120.516,57.934 C120.516,60.739 118.762,63.066 116.318,63.923 C119.859,64.405 122.906,69.157 123.741,71.756 C124.578,69.163 127.625,64.405 131.165,63.923 C128.695,63.081 126.914,60.757 126.914,57.934 L126.914,22.251 L134.338,22.251 C137.246,22.251 139.653,24.121 140.431,26.707 C141.708,25.065 142.529,22.248 142.529,19.027 C142.529,15.804 141.709,12.989 140.431,11.348 C139.67,13.957 137.264,15.852 134.338,15.852 L126.914,15.852 L126.914,8.43 C126.914,5.522 128.783,3.115 131.369,2.337 C129.729,1.061 126.912,0.239 123.69,0.239 L123.69,0.24 Z" id="Shape" fill="#000000"></path>
                <path d="M123.69,1.78 C122.012,1.78 120.534,2.094 119.288,2.496 C120.952,3.943 122.053,6.04 122.053,8.435 L122.053,15.858 C122.053,15.964 122.022,16.065 122.001,16.166 L122.001,17.343 L120.823,17.343 C120.723,17.364 120.621,17.394 120.516,17.395 L113.092,17.395 C110.725,17.395 108.653,16.312 107.206,14.682 C106.79,15.941 106.438,17.379 106.438,19.085 C106.438,20.763 106.752,22.241 107.154,23.487 C108.601,21.823 110.697,20.724 113.092,20.724 L122.051,20.724 C122.041,20.878 121.999,21.027 121.999,21.183 L121.999,21.951 C122.02,22.051 122.05,22.152 122.051,22.258 L122.051,57.939 C122.051,60.256 120.856,62.078 119.286,63.519 C120.409,64.212 121.376,65.084 122.204,66.08 C122.941,66.965 123.234,67.831 123.74,68.741 C124.247,67.833 124.539,66.965 125.276,66.08 C126.091,65.102 127.044,64.26 128.143,63.571 C126.559,62.134 125.378,60.266 125.378,57.94 L125.378,20.772 L126.607,20.772 C126.707,20.752 126.808,20.722 126.914,20.722 L134.337,20.722 C136.703,20.722 138.775,21.805 140.223,23.434 C140.638,22.176 140.992,20.739 140.992,19.032 C140.992,17.355 140.677,15.876 140.275,14.63 C138.828,16.294 136.732,17.393 134.337,17.393 L126.914,17.393 C126.809,17.393 126.707,17.362 126.607,17.341 L125.429,17.341 L125.429,16.164 C125.408,16.065 125.378,15.963 125.377,15.856 L125.377,8.434 C125.377,6.067 126.461,3.996 128.09,2.547 C126.831,2.133 125.394,1.779 123.688,1.779" id="Shape" fill="#F5D402"></path>
                <path d="M216.609,130.987 C212.074,127.766 208.351,124.125 205.705,119.877 C199.333,109.654 196.644,97.104 196.644,84.35 C196.644,78.959 202.684,72.89 202.684,68.53 C202.684,61.94 202.07,57.986 202.07,57.986 C204.213,58.278 207.957,62.081 207.957,62.081 C207.957,62.081 207.828,51.143 204.372,49.232 C204.372,49.232 205.77,47.794 210.823,47.645 C209.403,44.049 202.377,39.659 202.377,39.659 C202.728,39.03 203.377,38.486 204.219,38.021 C205.984,37.045 208.464,36.401 210.361,36.024 C208.339,35.605 206.009,34.963 203.451,34.129 C197.609,32.226 190.732,29.432 184.305,26.349 C172.573,20.721 163.636,20.359 158.709,20.3595 C155.134,20.36 149.869,20.458 146.782,22.511 C143.957,24.386 144.187,26.825 143.198,27.681 C140.868,29.697 136.877,29.626 134.955,29.626 C122.515,29.626 122.054,42.937 122.054,42.937 C122.054,42.937 125.235,38.124 130.859,38.124 C140.21,38.124 147.292,43.218 147.292,45.137 C147.292,45.914 146.328,46.058 146.269,46.058 C140.161,46.058 130.943,42.542 126.046,42.372 L126.046,44.778 C136.977,48.581 148.059,53.965 148.059,77.695 C148.059,92.638 146.27,107.885 138.794,119.878 C136.146,124.125 132.376,127.759 127.839,130.988 L172.224,138.9875 L216.609,130.987 Z" id="Shape" fill="#000000"></path>
                <g id="eagle_half" transform="translate(0.000000, 52.000000)">
                    <path d="M172.222,68.988 L127.839,78.9885 C125.82,78.3785 116.326,75.4285 109.665,71.7195 C97.939,65.1875 91.859,58.6885 77.925,58.0505 L77.925,47.4525 C77.925,41.7905 79.974,36.6895 79.974,31.2755 C74.1,29.7005 57.796,9.7655 42.756,0.9175 C20.626,15.2515 3.491,38.7825 3.491,49.6035 C3.491,49.6035 4.156,282.1135 3.491,363.1135 C3.491,367.7815 0.676,374.3765 0.676,374.3765 C8.755,370.9585 23.564,350.6965 26.682,342.9945 L26.682,346.6815 C38.883,341.1175 47.817,326.4975 51.818,318.9345 C51.889,320.0275 52.075,322.7725 52.075,322.7725 C62.975,313.2175 76.851,256.7345 76.851,256.7345 L99.975,279.46 C99.975,279.46 91.612,296.4355 88.354,299.4755 C88.354,299.4755 90.538,299.7525 93.012,299.7315 C91.49,301.9195 79.865,318.6565 76.221,324.9695 C72.811,330.8755 70.405,328.2465 65.163,328.2465 C60.816,328.2465 50.963,335.1715 49.345,337.9735 C47.644,340.9185 46.377,344.4965 46.377,347.4445 C46.377,350.6845 49.807,355.1235 49.807,355.1235 C50.176,353.5725 50.83,353.0245 50.83,353.0245 C50.83,353.0245 59.843,364.2525 61.171,365.7195 C62.205,366.8625 66.816,367.6055 68.441,366.1305 C72.507,362.4335 76.443,359.8485 80.062,354.5095 C81.925,351.7585 82.067,348.6055 84.208,345.6515 C91.37,335.7715 105.623,316.8525 108.883,312.5305 C109.101,313.7335 109.288,314.7355 109.495,315.9605 C113.189,308.5035 130.946,294.2545 130.946,294.2545 L149.524,302.8045 C149.524,302.8045 114.837,382.5395 84.048,394.7995 C84.048,394.7995 97.443,400.4905 113.893,409.0315 C116.293,410.2775 118.764,411.6155 121.265,412.9745 C123.336,410.4805 125.516,407.7095 127.664,404.8335 C137.5,391.6735 147.119,376.4215 147.119,376.4215 C147.789,380.3825 142.595,392.6155 133.809,407.7025 C132.081,410.6665 130.279,413.7665 128.28,416.9155 C130.509,418.1885 132.721,419.4745 134.935,420.8075 C151.23,430.6125 166.533,441.8845 172.202,452.2395 L176.202,442.2305 L172.202,432.2215 L172.202,82.2645 L174.202,77.2645 L172.222,68.988 Z" id="Shape" fill="#000000"></path>
                    <g id="Group" transform="translate(10.000000, 11.000000)" fill="#B07F55">
                        <path d="M162.202,421.221 C156.453,414.985 144.433,407.366 130.924,400.335 C147.258,371.019 155.352,324.68 151.554,315.455 C151.554,315.455 144.849,339.488 136.656,353.184 C129.07,365.868 119.731,380.134 110.702,390.71 C103.274,387.541 96.071,384.882 89.917,383.03 C116.975,362.187 144.643,293.288 144.643,293.288 L116.031,280.028 C116.031,280.028 105.327,292.507 101.851,294.824 C101.851,294.824 100.366,288.618 99.496,286.428 C99.496,286.428 95.395,289.53 93.15,289.604 C93.15,289.604 92.479,285.392 91.972,282.64 C89.147,284.523 84.447,284.125 84.447,284.125 C88.574,282.171 93.457,270.2 93.457,270.2 L66.135,233.857 C66.135,233.857 56.538,279.973 45.607,289.453 L45.607,90.873 L54.259,98.909 L67.364,86.674 L67.364,77.357 L55.743,88.209 L55.743,60.104 C57.494,57.455 58.655,55.478 59.531,53.91 C61.412,57.189 67.491,67.239 74.632,73.415 C75.807,68.637 83.54,64.097 83.54,64.097 C83.54,64.097 86.311,71.605 90.552,73.465 C92.044,70.837 100.946,65.019 100.946,65.019 C100.946,65.019 93.33,66.176 90.246,69.064 C87.597,68.471 86.918,58.006 86.918,58.006 C86.918,58.006 75.711,63.465 73.762,67.374 C71.625,66.796 68.298,58.386 67.003,54.934 C68.958,54.721 71.719,54.474 75.348,54.474 C78.544,54.474 82.633,55.988 86.917,58.006 C91.624,60.222 96.548,63.028 100.945,65.02 C106.577,67.57 115.098,68.088 117.582,68.194 C114.737,70.194 111.609,72.02 108.215,73.723 C108.215,73.723 121.626,73.599 131.047,68.91 C134.408,66.748 137.896,64.594 140.876,62.05 C139.583,65.643 137.57,69.889 134.424,73.517 C148.26,72.346 155.15,64.445 157.103,61.794 C158.021,64.169 159.656,67.981 162.222,71.264 L167.222,71.264 L167.222,411.264 L162.202,421.221 Z" id="Shape"></path>
                        <path d="M60.247,21.298 L60.502,27.646 L60.502,46.333 C55.483,44.606 49.176,36.36 46.118,31.999 L46.118,29.439 C46.118,27.031 47.535,25.272 48.575,24.32 L45.555,23.246 C44.403,24.559 43.149,26.509 43.149,29.03 L43.149,30.515 L34.14,40.191 L25.284,26.778 L25.284,23.502 C25.284,21.294 26.982,18.832 28.407,17.154 L25.437,16.079 C23.938,18.021 22.365,20.638 22.365,23.092 L22.365,25.753 C20.282,27.909 12.178,36.249 12.178,36.249 C12.178,36.249 8.112,27.512 7.008,25.14 C13.213,16.545 23.274,6.921 32.7568,0.0155 C32.7568,0.0155 53.321,18.896 60.247,21.298 Z" id="Shape"></path>
                        <path d="M8.127,39.421 L8.127,54.832 L0.96,61.486 L0.96,38.603 C0.96,36.412 1.878,33.772 3.4165,30.872 L8.127,39.421 Z" id="Shape"></path>
                        <polygon id="Shape" points="30.447 45.359 30.447 54.881 22.206 62.612 22.206 32.818"></polygon>
                        <polygon id="Shape" points="19.286 62.561 11.043 54.882 11.043 43.723 19.286 35.071"></polygon>
                        <path d="M56.913,50.991 C54.999,53.696 49.986,60.312 44.576,63.227 L44.576,37.0665 C45.817,39.131 51.51,48.341 56.913,50.991 Z" id="Shape"></path>
                        <polygon id="Shape" points="41.656 38.397 41.656 62.56 33.413 54.881 33.413 46.332"></polygon>
                        <polygon id="Shape" points="8.126 64.147 8.126 88.26 0.959 81.553 0.959 70.853"></polygon>
                        <polygon id="Shape" points="19.28 71.878 19.28 80.529 11.036 88.207 11.036 64.1985"></polygon>
                        <polygon id="Shape" points="30.438 64.2 30.438 88.21 22.197 80.479 22.197 71.93"></polygon>
                        <polygon id="Shape" points="41.651 71.93 41.651 80.479 33.408 88.209 33.408 64.1995"></polygon>
                        <path d="M52.81,88.26 L44.566,80.529 L44.566,72.493 C47.409,70.758 50.268,67.569 52.8095,64.1995 L52.81,88.26 Z" id="Shape"></path>
                        <path d="M31.925,98.908 L40.628,90.819 L40.628,289.449 C40.628,289.449 41.235,299.305 41.652,305.728 C37.782,309.64 23.223,324.362 23.223,324.362 L23.223,90.766 L31.925,98.908 Z" id="Shape"></path>
                        <path d="M18.253,316.94 C18.253,323.325 6.594,338.213 0.95,341.615 L0.95,90.875 L9.55,98.911 L18.253,90.8215 L18.253,316.94 Z" id="Shape"></path>
                    </g>
                    <g id="Group" transform="translate(52.000000, 298.000000)" fill="#D10429">
                        <path d="M48.535,8.388 L54.883,4.036 C54.883,4.036 55.306,6.136 55.855,9.003 C53.137,12.719 37.524,34.027 29.798,44.428 C27.877,47.012 26.264,53.591 26.264,53.591 C26.264,53.591 23.45,52.26 23.45,49.855 C23.45,47.493 23.758,44.684 23.758,44.684 C23.758,44.684 21.657,47.09 18.023,47.09 C18.023,44.187 23.637,41.038 23.859,36.904 C19.578,40.078 15.86,38.449 10.908,39.976 C5.515,41.637 4.013,43.903 2.359,43.816 C1.385,43.763 0.503,42.083 0.875,41.051 C1.519,39.264 8.189,34.318 12.852,33.424 C13.969,33.21 22.755,35.336 24.525,32.605 C31.817,21.353 43.655,3.087 44.797,1.327 C45.549,1.147 46.241,0.956 46.7925,0.608 C46.7925,0.608 46.725,6.359 48.535,8.388 Z" id="Shape"></path>
                        <path d="M7.72,43.452 C8.073,43.86 8.042,44.458 7.667,44.782 L4.801,47.29 C4.426,47.614 3.824,47.545 3.471,47.136 C3.117,46.728 3.147,46.13 3.523,45.805 L6.389,43.297 C6.576,43.134 6.817,43.064 7.0545,43.093 C7.292,43.12 7.542,43.247 7.72,43.452 Z" id="Shape"></path>
                        <path d="M12.071,46.472 C12.928,47.46 12.873,48.86 11.968,49.647 L5.006,55.738 C4.1,56.526 2.639,56.368 1.78,55.381 C0.923,54.393 0.977,52.942 1.883,52.156 L8.845,46.115 C9.184,45.819 9.647,45.638 10.074,45.6025 C10.786,45.544 11.534,45.856 12.071,46.472 Z" id="Shape"></path>
                        <path d="M16.061,51.182 C16.918,52.17 16.864,53.569 15.958,54.356 L8.946,60.448 C8.04,61.235 6.63,61.078 5.771,60.09 C4.913,59.103 4.968,57.652 5.875,56.866 L12.836,50.825 C13.175,50.53 13.586,50.349 14.014,50.3125 C14.725,50.254 15.524,50.564 16.061,51.182 Z" id="Shape"></path>
                        <path d="M18.464,54.919 C19.177,54.861 19.925,55.12 20.461,55.738 C21.319,56.726 21.264,58.177 20.359,58.963 L13.396,65.005 C12.49,65.792 11.08,65.634 10.222,64.646 C9.364,63.658 9.368,62.258 10.273,61.471 L17.287,55.38 C17.625,55.084 18.036,54.953 18.464,54.919 Z" id="Shape"></path>
                    </g>
                </g>
                <g id="eagle_half-link" transform="translate(255.404000, 278.500000) scale(-1, 1) translate(-255.404000, -278.500000) translate(166.404000, 52.000000)">
                    <g id="eagle_half">
                        <path d="M172.222,68.988 L127.839,78.9885 C125.82,78.3785 116.326,75.4285 109.665,71.7195 C97.939,65.1875 91.859,58.6885 77.925,58.0505 L77.925,47.4525 C77.925,41.7905 79.974,36.6895 79.974,31.2755 C74.1,29.7005 57.796,9.7655 42.756,0.9175 C20.626,15.2515 3.491,38.7825 3.491,49.6035 C3.491,49.6035 4.156,282.1135 3.491,363.1135 C3.491,367.7815 0.676,374.3765 0.676,374.3765 C8.755,370.9585 23.564,350.6965 26.682,342.9945 L26.682,346.6815 C38.883,341.1175 47.817,326.4975 51.818,318.9345 C51.889,320.0275 52.075,322.7725 52.075,322.7725 C62.975,313.2175 76.851,256.7345 76.851,256.7345 L99.975,279.46 C99.975,279.46 91.612,296.4355 88.354,299.4755 C88.354,299.4755 90.538,299.7525 93.012,299.7315 C91.49,301.9195 79.865,318.6565 76.221,324.9695 C72.811,330.8755 70.405,328.2465 65.163,328.2465 C60.816,328.2465 50.963,335.1715 49.345,337.9735 C47.644,340.9185 46.377,344.4965 46.377,347.4445 C46.377,350.6845 49.807,355.1235 49.807,355.1235 C50.176,353.5725 50.83,353.0245 50.83,353.0245 C50.83,353.0245 59.843,364.2525 61.171,365.7195 C62.205,366.8625 66.816,367.6055 68.441,366.1305 C72.507,362.4335 76.443,359.8485 80.062,354.5095 C81.925,351.7585 82.067,348.6055 84.208,345.6515 C91.37,335.7715 105.623,316.8525 108.883,312.5305 C109.101,313.7335 109.288,314.7355 109.495,315.9605 C113.189,308.5035 130.946,294.2545 130.946,294.2545 L149.524,302.8045 C149.524,302.8045 114.837,382.5395 84.048,394.7995 C84.048,394.7995 97.443,400.4905 113.893,409.0315 C116.293,410.2775 118.764,411.6155 121.265,412.9745 C123.336,410.4805 125.516,407.7095 127.664,404.8335 C137.5,391.6735 147.119,376.4215 147.119,376.4215 C147.789,380.3825 142.595,392.6155 133.809,407.7025 C132.081,410.6665 130.279,413.7665 128.28,416.9155 C130.509,418.1885 132.721,419.4745 134.935,420.8075 C151.23,430.6125 166.533,441.8845 172.202,452.2395 L176.202,442.2305 L172.202,432.2215 L172.202,82.2645 L174.202,77.2645 L172.222,68.988 Z" id="Shape" fill="#000000"></path>
                        <g id="Group" transform="translate(10.000000, 11.000000)" fill="#B07F55">
                            <path d="M162.202,421.221 C156.453,414.985 144.433,407.366 130.924,400.335 C147.258,371.019 155.352,324.68 151.554,315.455 C151.554,315.455 144.849,339.488 136.656,353.184 C129.07,365.868 119.731,380.134 110.702,390.71 C103.274,387.541 96.071,384.882 89.917,383.03 C116.975,362.187 144.643,293.288 144.643,293.288 L116.031,280.028 C116.031,280.028 105.327,292.507 101.851,294.824 C101.851,294.824 100.366,288.618 99.496,286.428 C99.496,286.428 95.395,289.53 93.15,289.604 C93.15,289.604 92.479,285.392 91.972,282.64 C89.147,284.523 84.447,284.125 84.447,284.125 C88.574,282.171 93.457,270.2 93.457,270.2 L66.135,233.857 C66.135,233.857 56.538,279.973 45.607,289.453 L45.607,90.873 L54.259,98.909 L67.364,86.674 L67.364,77.357 L55.743,88.209 L55.743,60.104 C57.494,57.455 58.655,55.478 59.531,53.91 C61.412,57.189 67.491,67.239 74.632,73.415 C75.807,68.637 83.54,64.097 83.54,64.097 C83.54,64.097 86.311,71.605 90.552,73.465 C92.044,70.837 100.946,65.019 100.946,65.019 C100.946,65.019 93.33,66.176 90.246,69.064 C87.597,68.471 86.918,58.006 86.918,58.006 C86.918,58.006 75.711,63.465 73.762,67.374 C71.625,66.796 68.298,58.386 67.003,54.934 C68.958,54.721 71.719,54.474 75.348,54.474 C78.544,54.474 82.633,55.988 86.917,58.006 C91.624,60.222 96.548,63.028 100.945,65.02 C106.577,67.57 115.098,68.088 117.582,68.194 C114.737,70.194 111.609,72.02 108.215,73.723 C108.215,73.723 121.626,73.599 131.047,68.91 C134.408,66.748 137.896,64.594 140.876,62.05 C139.583,65.643 137.57,69.889 134.424,73.517 C148.26,72.346 155.15,64.445 157.103,61.794 C158.021,64.169 159.656,67.981 162.222,71.264 L167.222,71.264 L167.222,411.264 L162.202,421.221 Z" id="Shape"></path>
                            <path d="M60.247,21.298 L60.502,27.646 L60.502,46.333 C55.483,44.606 49.176,36.36 46.118,31.999 L46.118,29.439 C46.118,27.031 47.535,25.272 48.575,24.32 L45.555,23.246 C44.403,24.559 43.149,26.509 43.149,29.03 L43.149,30.515 L34.14,40.191 L25.284,26.778 L25.284,23.502 C25.284,21.294 26.982,18.832 28.407,17.154 L25.437,16.079 C23.938,18.021 22.365,20.638 22.365,23.092 L22.365,25.753 C20.282,27.909 12.178,36.249 12.178,36.249 C12.178,36.249 8.112,27.512 7.008,25.14 C13.213,16.545 23.274,6.921 32.7568,0.0155 C32.7568,0.0155 53.321,18.896 60.247,21.298 Z" id="Shape"></path>
                            <path d="M8.127,39.421 L8.127,54.832 L0.96,61.486 L0.96,38.603 C0.96,36.412 1.878,33.772 3.4165,30.872 L8.127,39.421 Z" id="Shape"></path>
                            <polygon id="Shape" points="30.447 45.359 30.447 54.881 22.206 62.612 22.206 32.818"></polygon>
                            <polygon id="Shape" points="19.286 62.561 11.043 54.882 11.043 43.723 19.286 35.071"></polygon>
                            <path d="M56.913,50.991 C54.999,53.696 49.986,60.312 44.576,63.227 L44.576,37.0665 C45.817,39.131 51.51,48.341 56.913,50.991 Z" id="Shape"></path>
                            <polygon id="Shape" points="41.656 38.397 41.656 62.56 33.413 54.881 33.413 46.332"></polygon>
                            <polygon id="Shape" points="8.126 64.147 8.126 88.26 0.959 81.553 0.959 70.853"></polygon>
                            <polygon id="Shape" points="19.28 71.878 19.28 80.529 11.036 88.207 11.036 64.1985"></polygon>
                            <polygon id="Shape" points="30.438 64.2 30.438 88.21 22.197 80.479 22.197 71.93"></polygon>
                            <polygon id="Shape" points="41.651 71.93 41.651 80.479 33.408 88.209 33.408 64.1995"></polygon>
                            <path d="M52.81,88.26 L44.566,80.529 L44.566,72.493 C47.409,70.758 50.268,67.569 52.8095,64.1995 L52.81,88.26 Z" id="Shape"></path>
                            <path d="M31.925,98.908 L40.628,90.819 L40.628,289.449 C40.628,289.449 41.235,299.305 41.652,305.728 C37.782,309.64 23.223,324.362 23.223,324.362 L23.223,90.766 L31.925,98.908 Z" id="Shape"></path>
                            <path d="M18.253,316.94 C18.253,323.325 6.594,338.213 0.95,341.615 L0.95,90.875 L9.55,98.911 L18.253,90.8215 L18.253,316.94 Z" id="Shape"></path>
                        </g>
                        <g id="Group" transform="translate(52.000000, 298.000000)" fill="#D10429">
                            <path d="M48.535,8.388 L54.883,4.036 C54.883,4.036 55.306,6.136 55.855,9.003 C53.137,12.719 37.524,34.027 29.798,44.428 C27.877,47.012 26.264,53.591 26.264,53.591 C26.264,53.591 23.45,52.26 23.45,49.855 C23.45,47.493 23.758,44.684 23.758,44.684 C23.758,44.684 21.657,47.09 18.023,47.09 C18.023,44.187 23.637,41.038 23.859,36.904 C19.578,40.078 15.86,38.449 10.908,39.976 C5.515,41.637 4.013,43.903 2.359,43.816 C1.385,43.763 0.503,42.083 0.875,41.051 C1.519,39.264 8.189,34.318 12.852,33.424 C13.969,33.21 22.755,35.336 24.525,32.605 C31.817,21.353 43.655,3.087 44.797,1.327 C45.549,1.147 46.241,0.956 46.7925,0.608 C46.7925,0.608 46.725,6.359 48.535,8.388 Z" id="Shape"></path>
                            <path d="M7.72,43.452 C8.073,43.86 8.042,44.458 7.667,44.782 L4.801,47.29 C4.426,47.614 3.824,47.545 3.471,47.136 C3.117,46.728 3.147,46.13 3.523,45.805 L6.389,43.297 C6.576,43.134 6.817,43.064 7.0545,43.093 C7.292,43.12 7.542,43.247 7.72,43.452 Z" id="Shape"></path>
                            <path d="M12.071,46.472 C12.928,47.46 12.873,48.86 11.968,49.647 L5.006,55.738 C4.1,56.526 2.639,56.368 1.78,55.381 C0.923,54.393 0.977,52.942 1.883,52.156 L8.845,46.115 C9.184,45.819 9.647,45.638 10.074,45.6025 C10.786,45.544 11.534,45.856 12.071,46.472 Z" id="Shape"></path>
                            <path d="M16.061,51.182 C16.918,52.17 16.864,53.569 15.958,54.356 L8.946,60.448 C8.04,61.235 6.63,61.078 5.771,60.09 C4.913,59.103 4.968,57.652 5.875,56.866 L12.836,50.825 C13.175,50.53 13.586,50.349 14.014,50.3125 C14.725,50.254 15.524,50.564 16.061,51.182 Z" id="Shape"></path>
                            <path d="M18.464,54.919 C19.177,54.861 19.925,55.12 20.461,55.738 C21.319,56.726 21.264,58.177 20.359,58.963 L13.396,65.005 C12.49,65.792 11.08,65.634 10.222,64.646 C9.364,63.658 9.368,62.258 10.273,61.471 L17.287,55.38 C17.625,55.084 18.036,54.953 18.464,54.919 Z" id="Shape"></path>
                        </g>
                    </g>
                </g>
                <path d="M161.934,23.637 C173.392,23.637 181.451,28.861 192.293,33.67 C195.134,34.93 197.743,35.951 200.072,36.741 C198.613,38.034 197.478,39.333 197.154,40.428 C197.154,40.428 202.013,41.328 204.218,45.395 C204.218,45.395 199.598,45.919 198.843,48.619 C201.431,48.814 204.002,52.076 204.014,55.224 L197.461,53.175 C197.461,53.175 199.048,60.533 199.048,68.533 C199.048,72.619 193.162,77.427 193.162,84.352 C193.162,106.086 198.637,114.44 202.531,121.159 C204.054,123.788 205.292,126.813 207.855,129.094 C196.637,123.121 188.299,115.655 188.299,108.72 L188.299,82.458 L185.381,82.458 L185.381,108.72 C185.381,113.749 186.609,116.092 186.609,116.092 C188.37,121.656 191.93,130.244 194.135,133.702 C183.814,128.124 178.571,121.139 178.571,118.549 L178.571,82.457 L175.653,82.457 L175.653,119.06 L176.216,121.568 C174.965,123.448 173.339,125.674 172.223,126.431 C171.11,125.675 169.533,123.445 168.28,121.568 L168.844,119.06 L168.844,82.457 L165.926,82.457 L165.926,118.549 C165.926,121.138 160.683,128.124 150.363,133.702 C152.568,130.243 156.127,121.656 157.887,116.092 C157.887,116.092 159.116,113.75 159.116,108.72 L159.116,82.458 L156.198,82.458 L156.198,108.72 C156.198,115.647 147.891,123.125 136.693,129.094 C139.23,126.811 140.45,123.773 141.965,121.159 C146.223,113.811 151.487,104.476 151.487,77.901 C151.487,67.927 150.012,61.146 147.443,56.4 C146.662,54.834 145.61,50.666 151.589,50.666 C154.686,50.666 161.777,56.144 161.777,56.144 C161.777,56.144 161.485,51.773 157.886,49.284 C157.289,48.871 156.3,47.572 156.3,46.365 C156.3,45.461 157.851,43.23 159.063,42.679 C159.896,42.301 146.88,40.033 146.88,34.13 C146.88,32.901 147.653,32.082 150.359,32.082 C153.904,32.082 159.671,36.331 164.797,36.331 C168.586,36.331 170.08,35.409 173.96,35.409 C178.702,35.409 188.595,44.388 191.979,44.06 C188.196,41.685 182.085,32.695 172.834,32.695 C169.623,32.695 166.717,33.412 163.72,33.412 C159.879,33.412 156.097,29.879 151.946,29.879 C149.164,29.879 146.057,30.034 145.597,29.315 C144.792,28.06 145.517,27.332 146.263,26.295 C147.672,24.338 151.629,23.77 155.53,23.634 C156.7,23.593 157.868,23.573 158.9625,23.5835 C160.053,23.595 161.062,23.637 161.934,23.637 Z" id="Shape" fill="#B07F55"></path>
                <path d="M124.73,37.69 C124.73,37.69 127.149,33.109 133.264,33.109 C135.82,33.109 144.256,32.932 144.256,32.932 C145.38,35.853 150.505,40.734 150.505,45.81 C150.505,45.81 145.303,36.433 130.782,36.433 C127.133,36.433 124.728,37.689 124.728,37.689 L124.73,37.69 Z" id="Shape" fill="#CC092F"></path>
                <path d="M148.34,47.6 C148.34,47.6 145.247,50.858 144.575,52.597 C141.514,51.437 136.176,45.936 136.176,45.936 C136.176,45.936 140.701,48.578 148.339,47.6 L148.34,47.6 Z" id="Shape" fill="#D10429"></path>
                <path d="M143.44,38.97 C143.44,38.97 139.872,37.826 139.872,36.628 C139.872,35.102 141.605,35.102 142.641,36.291 C143.354,37.11 143.439,38.971 143.439,38.971 L143.44,38.97 Z" id="Shape" fill="#000000"></path>
                <ellipse id="Oval" fill="#000000" cx="158.798" cy="39.06" rx="5.112" ry="4.043"></ellipse>
                <circle id="Oval" fill="#F5D402" cx="158.8" cy="39.06" r="3.56"></circle>
                <circle id="Oval" fill="#000000" cx="158.799" cy="39.06" r="1.511"></circle>
            </g>
            <g transform="translate(0.000000, 207.000000)">
                <g fill="#000000">
                    <rect id="Rectangle-path" transform="translate(108.510490, 215.385193) rotate(13.636333) translate(-108.510490, -215.385193) " x="99.2826406" y="206.159313" width="18.4556983" height="18.4517589"></rect>
                    <path d="M26.9,28.73 L21.064,31.393 L87,175.813 L94.014,175.813 L26.9,28.73 Z M104.662,199.05 L99.902,203.965 L102.871,210.518 L108.655,207.856 L104.662,199.05 Z" id="Shape"></path>
                    <path d="M47.39,142.6 C47.39,142.6 52.944,154.072 57.165,155.645 C54.982,155.05 47.894,157.651 47.894,157.651 C47.894,157.651 60.393,168.816 70.994,169.549 C79.984,170.168 84.349,165.681 84.349,165.681 L82.548,156.157 C82.548,156.157 77.048,149.515 68.246,146.45 C59.352,143.352 47.389,142.602 47.389,142.602 L47.39,142.6 Z" id="Shape"></path>
                    <path d="M89.26,122.05 C89.26,122.05 81.591,128.615 79.492,136.219 C77.392,143.824 80.86,152.466 80.86,152.466 L87.304,164.487 C87.304,164.487 96.235,159.734 100.034,152.627 C103.833,145.519 102.44,135.929 102.44,135.929 C102.44,135.929 95.365,138.563 94.465,139.729 C95.958,131.845 89.259,122.05 89.259,122.05 L89.26,122.05 Z" id="Shape"></path>
                    <path d="M64.61,118.98 C64.61,118.98 55.888,121.928 47.418,121.418 C39.35,120.931 32.641,114.156 32.641,114.156 C32.641,114.156 39.329,109.63 42.63,110.233 C38.999,108.906 33.734,99.81 33.734,99.81 C33.734,99.81 41.216,97.549 47.85,100.05 C54.484,102.553 60.269,109.82 60.269,109.82 L64.611,118.98 L64.61,118.98 Z" id="Shape"></path>
                    <path d="M67.61,76.38 C67.61,76.38 71.972,85.412 70.938,88.551 C72.291,86.461 77.412,83.206 77.412,83.206 C77.412,83.206 80.508,97.83 77.547,106.862 C74.587,115.893 65.573,119.332 65.573,119.332 L55.63,99.995 C55.63,99.995 54.15,92.831 57.25,87.158 C60.351,81.485 67.61,76.379 67.61,76.379 L67.61,76.38 Z" id="Shape"></path>
                    <path d="M10.86,52.47 C10.86,52.47 20.287,51.48 28.911,55.053 C36.121,58.046 38.331,63.486 38.331,63.486 L41.882,73.006 C41.882,73.006 31.621,76.854 23.514,73.912 C15.406,70.967 9.449,61.232 9.449,61.232 C9.449,61.232 15.115,59.083 17.272,59.889 C14.13,58.499 10.862,52.47 10.862,52.47 L10.862,52.471 L10.86,52.47 Z" id="Shape"></path>
                    <path d="M40.51,34.8 C40.51,34.8 44.647,40.113 44.771,46.224 C45.874,42.975 51.039,39.384 51.039,39.384 C51.039,39.384 56.351,52.239 55.185,61.366 C54.019,70.494 46.376,75.893 46.376,75.893 L36.845,57.801 C36.845,57.801 33.739,50.386 34.654,44.634 C35.57,38.884 40.51,34.798 40.51,34.798 L40.51,34.8 Z" id="Shape"></path>
                    <path d="M7.86,0.2 C7.86,0.2 6.151,10.054 9.059,15.73 C11.657,20.795 13.311,21.906 13.311,21.906 C8.357,18.637 0.867,18.355 0.867,18.355 C0.867,18.355 3.533,29.076 9.904,33.967 C16.275,38.858 26.099,37.715 26.099,37.715 C26.099,37.715 32.559,29.115 32.109,19.85 C31.66,10.585 24.301,0.653 24.301,0.653 C24.301,0.653 21.399,6.673 21.143,11.167 C19.265,6.534 7.858,0.201 7.858,0.201 L7.86,0.2 Z" id="Shape"></path>
                    <path d="M84.86,165.27 L85.125,168.807 C91,168.862 91.875,168.277 93.381,170.129 C94.384,171.363 96.77,172.44 99.168,171.344 C101.568,170.249 102.643,167.367 101.548,164.968 C100.453,162.569 98.222,162.048 96.073,162.472 C94.754,162.732 93.886,163.785 92.767,164.363 C90.639,165.465 84.858,165.271 84.858,165.271 L84.86,165.27 Z" id="Shape"></path>
                    <path d="M84.35,162.57 L87.209,164.665 C84.142,169.679 83.185,170.111 83.958,172.37 C84.473,173.874 84.124,176.467 81.923,177.923 C79.723,179.378 76.709,178.764 75.254,176.565 C73.8,174.365 74.539,172.199 76.037,170.6 C76.957,169.618 78.307,169.44 79.39,168.797 C81.452,167.574 84.349,162.569 84.349,162.569 L84.35,162.57 Z" id="Shape"></path>
                    <path d="M64.45,120.57 L64.714,124.107 C70.59,124.161 71.464,123.577 72.97,125.428 C73.972,126.661 76.359,127.739 78.757,126.643 C81.158,125.548 82.233,122.667 81.136,120.268 C80.041,117.868 77.811,117.348 75.662,117.772 C74.342,118.033 73.475,119.085 72.357,119.663 C70.228,120.764 64.448,120.571 64.448,120.571 L64.45,120.57 Z" id="Shape"></path>
                    <path d="M65.64,121.82 L68.14,124.337 C64.331,128.811 63.316,129.09 63.729,131.441 C64.005,133.008 63.256,135.516 60.855,136.611 C58.456,137.706 55.576,136.632 54.479,134.232 C53.384,131.833 54.451,129.807 56.18,128.461 C57.241,127.636 58.605,127.668 59.773,127.203 C62,126.316 65.64,121.821 65.64,121.821 L65.64,121.82 Z" id="Shape"></path>
                    <path d="M44.67,78.72 L44.935,82.257 C50.811,82.311 51.685,81.727 53.192,83.58 C54.195,84.811 56.58,85.889 58.98,84.793 C61.378,83.698 62.454,80.818 61.359,78.416 C60.262,76.017 58.033,75.497 55.883,75.921 C54.563,76.182 53.696,77.234 52.577,77.812 C50.449,78.914 44.669,78.719 44.669,78.719 L44.67,78.72 Z" id="Shape"></path>
                    <path d="M46.3,77.98 L48.799,80.496 C44.99,84.971 43.977,85.25 44.388,87.601 C44.664,89.167 43.915,91.675 41.515,92.77 C39.116,93.864 36.235,92.79 35.139,90.391 C34.045,87.991 35.112,85.965 36.84,84.62 C37.901,83.793 39.264,83.827 40.434,83.36 C42.661,82.473 46.3,77.98 46.3,77.98 Z" id="Shape"></path>
                    <path d="M23.6,34.54 L23.864,38.076 C29.74,38.131 30.615,37.546 32.12,39.397 C33.124,40.631 35.51,41.708 37.908,40.614 C40.308,39.517 41.383,36.637 40.288,34.237 C39.193,31.837 36.962,31.316 34.812,31.741 C33.494,32.002 32.626,33.055 31.507,33.632 C29.379,34.733 23.598,34.54 23.598,34.54 L23.6,34.54 Z" id="Shape"></path>
                    <path d="M25.23,33.8 L27.728,36.317 C23.92,40.792 22.905,41.07 23.318,43.422 C23.594,44.988 22.844,47.496 20.445,48.591 C18.045,49.686 15.165,48.612 14.07,46.212 C12.974,43.813 14.042,41.785 15.769,40.441 C16.831,39.616 18.194,39.648 19.363,39.181 C21.589,38.295 25.229,33.801 25.229,33.801 L25.23,33.8 Z" id="Shape"></path>
                </g>
                <g transform="translate(28.000000, 42.000000)" fill="#F5D402">
                    <rect id="Rectangle-path" transform="translate(80.514583, 173.394805) rotate(13.636333) translate(-80.514583, -173.394805) " x="74.7910035" y="167.671997" width="11.4471597" height="11.4456162"></rect>
                    <path d="M32.72,68.09 C30.614,68.964 27.49,59.795 25.196,54.772 C22.843,49.617 18.065,41.672 19.422,41.052 C20.911,40.372 22.873,44.544 25.281,49.819 C27.689,55.092 34.693,67.268 32.72,68.088 L32.72,68.09 Z" id="Shape"></path>
                    <path d="M11.09,19.8 C8.985,20.677 6.68,14.673 4.387,9.649 C2.034,4.495 -0.258,0.854 1.099,0.234 C2.589,-0.446 4.789,4.071 6.715,8.289 C8.581,12.377 13.063,18.979 11.089,19.801 L11.09,19.8 Z" id="Shape"></path>
                    <path d="M61.13,129.29 C59.477,129.732 52.261,114.628 46.427,101.848 C40.594,89.069 36.25,78.729 37.607,78.112 C39.097,77.431 43.82,89.503 49.656,102.284 C55.491,115.065 62.369,128.957 61.131,129.29 L61.13,129.29 Z" id="Shape"></path>
                </g>
                <g transform="translate(5.000000, 6.000000)" fill="#097754" id="Shape">
                    <path d="M5.76,0.19 C5.76,0.19 5.505,7.391 7.887,11.475 C10.27,15.561 15.591,17.19 15.591,17.19 C15.591,17.19 15.845,9.991 13.463,5.907 C11.08,1.821 5.76,0.19 5.76,0.19 Z"></path>
                    <path d="M0.78,16.48 C0.78,16.48 7.035,16.848 10.648,19.616 C14.258,22.384 15.657,28.151 15.657,28.151 C15.657,28.151 11.511,28.572 7.901,25.804 C4.29,23.035 0.78,16.48 0.78,16.48 Z"></path>
                    <path d="M20.41,1.94 C20.41,1.94 18.33,6.71 18.57,11.852 C18.809,16.995 21.81,22.789 21.81,22.789 C21.81,22.789 24.523,16.615 24.284,11.471 C24.046,6.328 21.137,3.396 20.41,1.94 Z"></path>
                    <path d="M9.88,48.3 C9.88,48.3 12.951,52.588 17.679,54.926 C22.407,57.263 29.452,57.35 29.452,57.35 C29.452,57.35 25.936,52.788 21.207,50.45 C16.479,48.113 9.88,48.298 9.88,48.298 L9.88,48.3 Z"></path>
                    <path d="M11.4,58.26 C11.4,58.26 13.657,62.681 17.784,64.576 C21.913,66.472 30.358,66.316 30.358,66.316 C30.358,66.316 27.118,62.185 22.99,60.289 C18.862,58.392 11.399,58.26 11.399,58.26 L11.4,58.26 Z"></path>
                    <path d="M35.17,34.68 C35.17,34.68 32.675,38.803 32.919,43.346 C33.164,47.891 36.146,52.857 36.146,52.857 C36.146,52.857 38.243,47.164 37.998,42.62 C37.754,38.075 35.169,34.68 35.169,34.68 L35.17,34.68 Z"></path>
                    <path d="M44.36,40.51 C44.36,40.51 40.091,46.24 39.478,52.131 C38.865,58.021 41.906,64.073 41.906,64.073 C41.906,64.073 47.063,58.895 47.676,53.005 C48.289,47.113 44.36,40.512 44.36,40.512 L44.36,40.51 Z"></path>
                    <path d="M32.59,94.91 C32.59,94.91 33.103,97.028 34.887,99.277 C36.67,101.528 39.723,103.909 39.723,103.909 C39.723,103.909 42.672,102.961 46.338,103.754 C50.003,104.549 54.878,107.814 54.878,107.814 C54.878,107.814 49.631,99.983 44.183,96.938 C38.735,93.895 32.592,94.909 32.592,94.909 L32.59,94.91 Z"></path>
                    <path d="M32.05,108.37 C32.05,108.37 38.843,105.468 44.437,106.217 C50.032,106.966 55.076,111.388 55.076,111.388 C55.076,111.388 47.515,114.004 41.921,113.256 C36.325,112.507 32.049,108.37 32.049,108.37 L32.05,108.37 Z"></path>
                    <path d="M60.76,76.79 C60.76,76.79 54.753,83.154 54.249,88.677 C53.746,94.199 59.12,99.346 59.12,99.346 C59.12,99.346 58.856,95.804 59.781,93.472 C60.707,91.14 62.674,88.65 62.674,88.65 C62.674,88.65 63.512,85.807 63.188,83.527 C62.735,80.341 60.76,76.79 60.76,76.79 Z"></path>
                    <path d="M69.38,84.16 C69.38,84.16 63.718,89.889 62.222,96.024 C60.725,102.159 63.392,108.7 63.392,108.7 C63.392,108.7 68.541,104.638 70.038,98.504 C71.535,92.369 69.379,84.16 69.379,84.16 L69.38,84.16 Z"></path>
                    <path d="M83.56,121.14 C83.56,121.14 86.125,126.495 86.775,130.973 C87.427,135.45 86.823,137 86.823,137 C86.823,137 84.171,139.607 82.982,141.14 C81.454,143.11 81.23,146.716 81.23,146.716 C81.23,146.716 75.905,138.8 76.726,133.013 C77.546,127.227 83.56,121.139 83.56,121.139 L83.56,121.14 Z"></path>
                    <path d="M94.78,133.53 C94.78,133.53 87.962,138.033 85.257,142.653 C82.549,147.27 83.953,152.002 83.953,152.002 C83.953,152.002 88.811,151.574 91.519,146.956 C94.225,142.338 94.779,133.529 94.779,133.529 L94.78,133.53 Z"></path>
                    <path d="M49.98,152.55 C49.98,152.55 59.806,152.282 65.812,153.759 C71.818,155.234 74.004,158.454 74.004,158.454 C74.004,158.454 67.251,161.616 61.245,160.14 C55.239,158.665 49.979,152.549 49.979,152.549 L49.98,152.55 Z"></path>
                    <path d="M48.32,140.89 C48.32,140.89 52.753,147.763 58.484,150.257 C66.382,153.692 75.527,152.027 75.527,152.027 C75.527,152.027 70.559,145.938 63.723,143.25 C56.885,140.563 48.32,140.891 48.32,140.891 L48.32,140.89 Z"></path>
                </g>
                <path d="M389.74,11.944 L391.021,14.656 C391.021,14.656 388.941,15.37 387.999,17.215 C387.059,19.062 388.614,21.67 388.614,21.67 C388.614,21.67 377.81,20.727 376.123,21.824 C374.595,22.814 376.77,30.298 375.764,36.619 C374.362,45.429 370.889,44.689 370.747,46.396 C370.609,48.055 372.078,50.645 372.078,50.645 C372.078,50.645 370.052,51.283 369.62,52.13 C368.925,53.492 370.104,56.005 369.262,57.658 C364.562,66.881 357.622,80.494 353.034,89.501 C352.393,90.758 350.671,91.238 349.808,92.931 C349.012,94.493 349.655,96.77 349.655,96.77 C349.655,96.77 346.614,96.952 345.559,99.023 C344.438,101.223 345.098,104.193 345.098,104.193 C345.098,104.193 343.175,104.439 342.23,106.292 C341.221,108.273 342.93,109.312 342.489,110.183 C336.32,122.285 329.055,136.551 324.622,145.251 C322.991,148.45 317.284,149.091 313.972,155.592 C310.758,161.898 315.354,166.547 315.354,166.547 C315.354,166.547 310.582,166.979 309.314,169.466 C308.022,172.001 309.044,175.85 312.488,177.605 C315.932,179.359 319.695,177.939 320.988,175.404 C322.255,172.917 319.707,168.8 319.707,168.8 C319.707,168.8 326.17,169.731 329.382,163.424 C332.695,156.923 329.902,151.983 331.532,148.783 C335.966,140.083 343.232,125.818 349.399,113.715 C349.844,112.844 351.666,113.598 352.675,111.617 C353.619,109.764 352.675,108.085 352.675,108.085 C352.675,108.085 355.497,106.855 356.618,104.654 C357.674,102.583 356.055,99.996 356.055,99.996 C356.055,99.996 358.278,99.204 359.075,97.642 C359.937,95.949 359.303,94.292 359.944,93.033 C364.534,84.027 371.475,70.413 376.173,61.192 C377.016,59.537 379.728,58.971 380.422,57.607 C380.854,56.761 380.167,54.741 380.167,54.741 C380.167,54.741 383.155,54.445 384.415,53.358 C385.713,52.24 383.078,49.842 389.382,43.529 C393.904,39.001 401.199,36.337 401.104,34.519 C400.999,32.509 393.886,24.332 393.886,24.332 C393.886,24.332 396.887,24.079 397.828,22.234 C398.769,20.388 398.136,18.24 398.136,18.24 L401.104,17.728 L401.104919,3.65 L389.74,11.944 Z M291.604,208.018 C291.156,208.895 291.074,210.094 291.604,211.139 C291.604,211.139 288.021,210.019 286.792,210.627 C285.634,211.2 286.792,228.085 286.792,228.085 C286.792,228.085 301.087,219.067 300.869,217.795 C300.639,216.443 297.644,214.16 297.644,214.16 C298.802,213.974 299.705,213.248 300.153,212.369 C300.623,211.444 300.686,208.801 297.439,207.146 C296.223,206.526 295.14,206.342 294.2645,206.43 C292.809,206.577 291.899,207.44 291.604,208.018 Z" id="Shape" fill="#000000"></path>
                <g transform="translate(288.000000, 7.000000)" fill="#F5D402" id="Shape">
                    <polygon points="104.34 5.51 111.097 8.941 110.996 0.8005"></polygon>
                    <path d="M101.73,10.425 C100.862,12.129 101.705,14.311 103.624,15.288 C105.544,16.265 107.772,15.661 108.642,13.958 C109.51,12.254 108.665,10.073 106.747,9.095 C106.027,8.728 105.271,8.584 104.5455,8.6335 C103.338,8.716 102.273,9.36 101.73,10.425 Z"></path>
                    <path d="M90.11,16.62 C89.399,17.08 90.366,23.165 90.161,28.342 C89.967,33.224 88.405,34.599 87.55,36.277 C86.761,37.826 83.916,39.656 83.916,39.656 L86.27,42.011 C86.27,42.011 87.802,39.625 90.212,34.893 C93.055,29.314 92.963,19.205 93.797,18.666 C94.522,18.197 100.452,16.72 100.452,16.72 C100.451,16.72 95.01,16.426 92.005,16.4655 C91.002,16.478 90.275,16.513 90.11,16.62 Z"></path>
                    <path d="M90.73,44.725 C90.73,44.725 91.517,42.537 94.263,37.148 C97.574,30.649 104.642,25.935 104.807,24.759 C104.979,23.547 102.3505,17.8485 102.3505,17.8485 C102.3505,17.8485 96.115,19.044 95.233,19.897 C94.381,20.72 94.757,29.164 91.445,35.664 C88.701,41.052 87.351,43.036 87.351,43.036 L90.73,44.725 Z"></path>
                    <path d="M106.65,25.22 C106.702,26.209 98.487,32.081 95.643,37.659 C93.233,42.39 92.213,45.032 92.213,45.032 L95.49,45.544 C95.49,45.544 95.264,42.177 96.053,40.629 C96.907,38.952 97.132,36.898 100.968,33.872 C105.036,30.663 110.535,27.858 110.49,27.011 C110.449,26.229 104.3465,18.667 104.3465,18.667 C104.3465,18.667 106.603,24.359 106.65,25.22 Z"></path>
                    <path d="M82.59,61.72 C87.526,52.032 89.034,51.372 89.655,50.151 C90.324,48.839 90.164,47.073 87.966,45.952 C87.142,45.533 86.435,45.426 85.8165,45.493 C84.783,45.604 84.032,46.26 83.615,47.079 C82.993,48.301 83.33,49.934 78.392,59.623 L67.18,81.584 C67.18,81.584 66.005,83.74 68.204,84.86 C70.403,85.979 71.378,83.733 71.378,83.733 L82.59,61.72 Z"></path>
                    <path d="M62.78,86.908 C62.169,88.109 63.216,89.872 65.135,90.851 C67.054,91.827 69.131,91.642 69.742,90.441 C70.353,89.241 69.256,87.477 67.336,86.498 C66.377,86.009 65.401,85.811 64.5715,85.885 C63.742,85.957 63.086,86.309 62.78,86.908 Z"></path>
                    <path d="M58.63,93.153 C57.838,94.706 59.073,96.936 61.395,98.121 C63.717,99.304 66.235,99.007 67.026,97.454 C67.818,95.9 66.582,93.672 64.261,92.487 C63.39,92.045 62.528,91.81 61.7015,91.771 C60.327,91.706 59.125,92.182 58.63,93.153 Z"></path>
                    <path d="M56.02,100.117 C55.409,101.316 56.457,103.08 58.375,104.058 C60.294,105.036 62.37,104.849 62.983,103.649 C63.594,102.449 62.546,100.685 60.628,99.707 C59.668,99.217 58.642,99.019 57.8125,99.092 C56.984,99.165 56.327,99.516 56.02,100.117 Z"></path>
                    <path d="M54.33,106.772 C54.33,106.772 41.882,131.272 37.49,139.893 C36.086,142.647 30.178,144.363 27.865,148.904 C25.535,153.472 27.179,157.748 30.219,159.296 C33.258,160.845 37.721,159.719 40.049,155.15 C42.362,150.61 40.284,144.797 41.686,142.044 C46.079,133.42 58.529,108.922 58.529,108.922 C58.529,108.922 59.755,106.766 57.556,105.646 C57.006,105.366 56.528,105.338 56.123,105.3905 C54.911,105.546 54.33,106.772 54.33,106.772 Z"></path>
                    <path d="M22.84,163.646 C21.907,165.476 22.974,167.915 25.245,169.072 C27.517,170.23 30.149,169.673 31.082,167.844 C32.015,166.014 30.896,163.574 28.625,162.417 C27.773,161.982 26.904,161.78 26.065,161.8035 C24.666,161.843 23.422,162.503 22.84,163.646 Z"></path>
                    <path d="M6.257,201.069 C5.547,201.093 4.959,201.318 4.722,201.786 C4.245,202.721 5.23,204.199 6.923,205.062 C8.616,205.924 10.387,205.844 10.865,204.908 C11.342,203.971 10.355,202.494 8.664,201.632 C7.817,201.2 6.969,201.044 6.257,201.068 L6.257,201.069 Z"></path>
                    <path d="M0.421,205.675 L0.421,217.757 L10.251,210.692 C10.251,210.692 8.918,208.338 6.001,206.852 C3.084,205.367 0.421,205.674 0.421,205.674 L0.421,205.675 Z"></path>
                </g>
            </g>
            <g transform="translate(91.000000, 137.000000)">
                <path d="M203.643,13.597 C203.643,6.971 212.346,0.44 212.346,0.44 L0.1,0.44 C0.1,0.44 8.803,6.97 8.803,13.597 L8.803,171.583 C8.803,175.745 10.089,178.455 12.131,181.104 C14.172,183.957 18.521,187.899 23.034,190.831 C36.974,199.884 60.28,209.43 77.914,217.452 C92.608,224.136 98.585,226.833 106.223,236.291 C113.862,226.833 119.89,224.137 134.584,217.452 C152.215,209.431 175.522,199.884 189.463,190.831 C193.978,187.899 198.327,183.958 200.367,181.104 C202.409,178.455 203.643,175.745 203.643,171.583 L203.643,13.597 Z" id="Shape" fill="#F5D402"></path>
                <path d="M13.82,102.981 L13.82,13.596 C13.82,8.537 11.2595,5.457 11.2595,5.457 L201.1875,5.457 C201.1875,5.457 198.6275,8.538 198.6275,13.596 L198.6815,102.981 L106.251,130.981 L13.82,102.981 Z" id="Shape" fill="#D10429"></path>
                <path d="M198.681,102.981 L141.447,101.906 L71.054,101.906 L13.82,102.981 L13.82,171.582 C13.82,175.03 17.398,183.107 38.035,193.389 C72.146,210.387 98.365,218.323 106.224,227.996 C114.082,218.323 140.301,210.386 174.413,193.389 C195.049,183.107 198.627,175.03 198.627,171.582 L198.681,102.981 Z" id="Shape" fill="#0B45BB"></path>
                <g transform="translate(13.000000, 7.000000)" fill="#000000" id="Shape">
                    <path d="M127.063,92.401 C127.063,92.401 160.082,84.075 160.082,48.784 C160.082,21.221 126.979,7.547 126.038,0.97 C122.803,12.351 137.096,28.07 137.096,46.685 C137.096,70.771 119.332,71.924 119.332,71.924 C115.175,71.924 113.491,74.892 111.857,74.892 C108.36,74.527 106.714,70.079 103.256,70.079 C100.009,70.079 97.516,75.096 93.223,75.096 C88.931,75.096 86.488,70.079 83.24,70.079 C79.784,70.079 78.137,74.527 74.64,74.892 C73.006,74.892 71.321,71.924 67.164,71.924 C67.164,71.924 49.401,70.771 49.401,46.685 C49.401,28.07 63.696,12.349 60.459,0.97 C59.521,7.547 26.418,21.22 26.418,48.784 C26.418,84.075 59.437,92.401 59.437,92.401 L50.017,109.55 C50.017,109.55 63.662,110.233 70.904,116.411 C79.637,123.859 78.787,139.64 78.787,151.12 C78.787,160.165 77.644,169.71 73.003,173.644 C66.771,178.928 62.558,179.319 62.558,185.522 C62.558,190.696 66.535,191.733 73.003,195.147 C81.29,199.52 80.904,205.385 93.223,205.385 C105.544,205.385 105.208,199.521 113.496,195.147 C119.964,191.733 123.94,190.696 123.94,185.522 C123.94,179.319 119.726,178.928 113.496,173.644 C108.855,169.708 107.712,160.164 107.712,151.12 C107.712,139.64 106.863,123.859 115.595,116.411 C122.838,110.234 136.481,109.55 136.482,109.55 L127.063,92.401 Z"></path>
                    <polygon points="93.22 3.42 87.485 19.701 71.871 12.277 79.294 27.892 63.015 33.676 79.294 39.461 71.871 55.024 87.485 47.601 93.22 63.88 99.005 47.601 114.619 55.024 107.197 39.461 123.476 33.676 107.197 27.892 114.619 12.277 99.005 19.701"></polygon>
                    <path d="M58.05,94.91 C58.05,94.91 37.663,89.926 30.048,79.859 C16.735,91.835 0.816,95.985 0.816,95.985 C0.816,95.985 17.423,103.483 30.048,113.033 C35.865,104.697 58.05,94.91 58.05,94.91 Z"></path>
                    <path d="M128.44,94.91 C128.44,94.91 150.626,104.696 156.444,113.033 C169.067,103.483 185.673,95.985 185.673,95.985 C185.673,95.985 169.756,91.834 156.444,79.859 C148.829,89.925 128.44,94.91 128.44,94.91 Z"></path>
                    <polygon points="66.4 116.61 58.465 124.544 66.4 132.479 74.335 124.544"></polygon>
                    <polygon points="120.1 116.61 112.166 124.544 120.1 132.479 128.035 124.544"></polygon>
                    <path d="M64.403,162.94 C64.403,172.965 63.431,178.247 63.431,178.247 C63.431,178.247 74.617,174.954 76.845,163.606 C77.889,158.286 79.052,138.688 73.67,135.347 L59.0805,132.48 C60.656,136.379 64.403,148.457 64.403,162.94 Z"></path>
                    <path d="M112.829,135.348 C107.448,138.688 108.611,158.286 109.655,163.607 C111.882,174.955 123.068,178.248 123.068,178.248 C123.068,178.248 122.096,172.966 122.096,162.941 C122.096,148.458 125.843,136.379 127.4205,132.4805 L112.829,135.348 Z"></path>
                    <path d="M30.005,135.915 C24.974,137.177 21.934,142.3 23.197,147.331 C23.39,148.101 23.708,148.812 24.067,149.481 C23.334,149.237 22.569,149.075 21.763,149.02 C21.44,148.998 21.108,149.009 20.791,149.02 C16.03,149.18 12.061,152.923 11.73,157.775 C11.376,162.949 15.309,167.404 20.485,167.758 C21.257,167.81 22.008,167.782 22.736,167.655 C22.291,168.266 21.906,168.918 21.611,169.651 C19.674,174.464 22.02,180.002 26.833,181.939 C31.645,183.874 37.131,181.478 39.067,176.666 C39.363,175.931 39.528,175.214 39.631,174.464 C40.074,175.079 40.607,175.643 41.217,176.153 C45.196,179.481 51.148,178.954 54.476,174.976 C57.805,170.998 57.277,165.095 53.298,161.768 C52.696,161.264 52.028,160.868 51.353,160.54 C52.076,160.308 52.779,159.988 53.451,159.568 C57.846,156.813 59.176,150.959 56.42,146.564 C54.526,143.543 51.198,141.99 47.871,142.213 C46.358,142.314 44.842,142.785 43.468,143.647 C42.797,144.068 42.201,144.535 41.677,145.08 C41.678,144.324 41.613,143.546 41.421,142.777 C40.317,138.374 36.27,135.472 31.8995,135.66 C31.275,135.687 30.634,135.758 30.005,135.915 Z"></path>
                    <path d="M129.825,163.25 C130.842,172.837 138.633,180.869 148.254,183.164 C146.611,180.477 145.519,177.482 145.182,174.308 C143.977,162.938 152.77,153.727 164.789,153.727 C166.683,153.727 168.518,153.961 170.317,154.394 C166.08,147.447 158.102,142.619 149.43,142.6195 C137.412,142.62 128.617,151.882 129.825,163.25 Z"></path>
                </g>
                <g transform="translate(23.000000, 17.000000)" fill="#FFD200">
                    <path d="M34.592,36.684 C34.592,54.812 44.259,65.505 57.168,65.505 C59.63,65.505 62.323,68.833 64.643,68.833 C68.425,68.833 70.941,64.635 73.244,64.635 C76.171,64.635 78.144,69.242 83.226,69.242 C88.309,69.242 90.333,64.635 93.26,64.635 C95.562,64.635 98.078,68.833 101.86,68.833 C104.181,68.833 106.872,65.505 109.335,65.505 C122.244,65.505 131.912,54.812 131.912,36.684 C131.912,21.9 119.496,3.874 120.854,0.95 C120.854,0.95 145.068,18.319 145.068,38.782 C145.068,71.745 111.639,79.891 111.639,79.891 L119.164,96.835 C119.164,96.835 108.802,98.389 102.475,103.491 C94.036,110.296 93.925,128.682 93.925,141.117 C93.925,155.765 94.47,161.972 99.762,165.946 C105.342,170.139 109.539,171.042 109.539,175.315 C109.539,179.038 105.194,180.561 99.556,183.045 C93.143,185.872 92.504,190.776 83.226,190.776 C73.947,190.776 73.359,185.872 66.946,183.045 C61.309,180.561 56.963,179.039 56.963,175.315 C56.963,171.042 61.16,170.139 66.74,165.946 C72.032,161.972 72.576,155.765 72.576,141.117 C72.576,128.682 72.466,110.296 64.027,103.491 C57.699,98.387 47.338,96.835 47.338,96.835 L54.862,79.891 C54.862,79.891 21.434,71.746 21.434,38.782 C21.434,18.319 45.649,0.95 45.649,0.95 C47.007,3.874 34.592,21.9 34.592,36.684 Z M70.58,172.81 C64.013,172.81 59.83,174.196 59.83,176.189 C59.83,178.183 64.014,179.517 70.58,179.517 C72.33,179.517 74.317,178.498 74.317,176.189 C74.317,173.88 72.329,172.81 70.58,172.81 Z M95.92,172.81 C94.17,172.81 92.183,173.881 92.183,176.189 C92.182,178.498 94.17,179.517 95.92,179.517 C102.488,179.517 106.67,178.184 106.67,176.189 C106.67,174.195 102.487,172.81 95.92,172.81 Z" id="Shape"></path>
                    <polygon id="Shape" points="83.28 4.38 86.966 14.774 96.897 10.013 92.187 19.995 102.529 23.682 92.187 27.368 96.897 37.299 86.966 32.589 83.229 42.93 79.543 32.589 69.612 37.299 74.322 27.368 63.981 23.682 74.322 19.995 69.612 10.013 79.543 14.774 83.28 4.38"></polygon>
                    <path d="M37.147,85.528 C37.145,85.528 20.048,98.224 20.048,98.224 L19.842,98.479 L19.484,98.172 L0.543,86.295 C0.543,86.295 12.63,82.128 19.7405,74.8795 C26.469,82.583 37.147,85.528 37.147,85.528 Z" id="Shape"></path>
                    <path d="M165.948,86.295 C165.948,86.295 153.339,92.575 147.005,98.172 L146.648,98.479 L146.444,98.224 C140.458,91.353 129.346,85.528 129.346,85.528 C129.346,85.528 140.022,82.583 146.7505,74.88 C153.862,82.128 165.948,86.295 165.948,86.295 Z" id="Shape"></path>
                    <polygon id="Shape" points="56.4 110.4 60.547 114.545 56.4 118.744 52.202 114.545"></polygon>
                    <polygon id="Shape" points="110.1 110.4 114.299 114.545 110.1 118.744 105.954 114.545"></polygon>
                    <path d="M62.033,128.519 C64.93,132.517 64.438,138.981 64.438,147.974 C64.438,157.041 57.63,160.515 57.63,160.515 C57.63,138.721 55.383,133.481 54.2,126.8805 L62.033,128.519 Z" id="Shape"></path>
                    <path d="M112.3,126.88 C111.115,133.482 108.871,138.721 108.871,160.514 C108.871,160.514 102.062,157.04 102.062,147.973 C102.062,138.98 101.57,132.518 104.468,128.519 L112.3,126.88 Z" id="Shape"></path>
                    <path d="M29.832,135.128 C30.036,135.944 30.058,136.746 29.985,137.535 C29.925,138.189 29.751,138.783 29.525,139.377 C28.392,138.963 27.166,138.762 25.89,138.762 C22.731,138.762 19.903,140.152 17.955,142.347 C17.444,141.895 17,141.395 16.625,140.811 C16.205,140.162 15.85,139.452 15.652,138.661 C14.67,134.748 17.063,130.785 20.976,129.804 C21.464,129.68 21.976,129.619 22.4605,129.5995 C25.853,129.454 28.972,131.705 29.832,135.128 Z" id="leaf"></path>
                    <g id="leaf-link" transform="translate(37.805770, 142.557606) rotate(72.000000) translate(-37.805770, -142.557606) translate(29.805770, 135.557606)">
                        <path d="M14.832,6.128 C15.036,6.944 15.058,7.746 14.985,8.535 C14.925,9.189 14.751,9.783 14.525,10.377 C13.392,9.963 12.166,9.762 10.89,9.762 C7.731,9.762 4.903,11.152 2.955,13.347 C2.444,12.895 2,12.395 1.625,11.811 C1.205,11.162 0.85,10.452 0.652,9.661 C-0.33,5.748 2.063,1.785 5.976,0.804 C6.464,0.68 6.976,0.619 7.4605,0.5995 C10.853,0.454 13.972,2.705 14.832,6.128 Z" id="leaf"></path>
                    </g>
                    <g id="leaf-link" transform="translate(36.144351, 158.665142) rotate(144.000000) translate(-36.144351, -158.665142) translate(28.144351, 151.665142)">
                        <path d="M14.832,6.128 C15.036,6.944 15.058,7.746 14.985,8.535 C14.925,9.189 14.751,9.783 14.525,10.377 C13.392,9.963 12.166,9.762 10.89,9.762 C7.731,9.762 4.903,11.152 2.955,13.347 C2.444,12.895 2,12.395 1.625,11.811 C1.205,11.162 0.85,10.452 0.652,9.661 C-0.33,5.748 2.063,1.785 5.976,0.804 C6.464,0.68 6.976,0.619 7.4605,0.5995 C10.853,0.454 13.972,2.705 14.832,6.128 Z" id="leaf"></path>
                    </g>
                    <g id="leaf-link" transform="translate(20.311767, 162.062540) rotate(-144.000000) translate(-20.311767, -162.062540) translate(12.311767, 155.062540)">
                        <path d="M14.832,6.128 C15.036,6.944 15.058,7.746 14.985,8.535 C14.925,9.189 14.751,9.783 14.525,10.377 C13.392,9.963 12.166,9.762 10.89,9.762 C7.731,9.762 4.903,11.152 2.955,13.347 C2.444,12.895 2,12.395 1.625,11.811 C1.205,11.162 0.85,10.452 0.652,9.661 C-0.33,5.748 2.063,1.785 5.976,0.804 C6.464,0.68 6.976,0.619 7.4605,0.5995 C10.853,0.454 13.972,2.705 14.832,6.128 Z" id="leaf"></path>
                    </g>
                    <g id="leaf-link" transform="translate(12.188112, 148.054712) rotate(-72.000000) translate(-12.188112, -148.054712) translate(4.188112, 141.054712)">
                        <path d="M14.832,6.128 C15.036,6.944 15.058,7.746 14.985,8.535 C14.925,9.189 14.751,9.783 14.525,10.377 C13.392,9.963 12.166,9.762 10.89,9.762 C7.731,9.762 4.903,11.152 2.955,13.347 C2.444,12.895 2,12.395 1.625,11.811 C1.205,11.162 0.85,10.452 0.652,9.661 C-0.33,5.748 2.063,1.785 5.976,0.804 C6.464,0.68 6.976,0.619 7.4605,0.5995 C10.853,0.454 13.972,2.705 14.832,6.128 Z" id="leaf"></path>
                    </g>
                    <circle id="Oval" cx="25.89" cy="149.468" r="7.065"></circle>
                    <path d="M149.925,139.942 C138.196,142.21 129.755,152.57 130.983,164.669 C127.245,161.573 124.51,157.403 124.021,152.792 C123.07,143.813 129.592,136.87 139.4305,136.87 C143.192,136.87 146.806,138.022 149.925,139.942 Z" id="Shape"></path>
                </g>
            </g>
        </g>
    </g>
</svg>