<?xml version="1.0" encoding="UTF-8" standalone="no"?>
<!DOCTYPE svg PUBLIC "-//W3C//DTD SVG 1.1//EN" "http://www.w3.org/Graphics/SVG/1.1/DTD/svg11.dtd">
<svg width="100%" height="100%" viewBox="0 0 1080 720" version="1.1" xmlns="http://www.w3.org/2000/svg" xmlns:xlink="http://www.w3.org/1999/xlink" xml:space="preserve" xmlns:serif="http://www.serif.com/" style="fill-rule:evenodd;clip-rule:evenodd;">
    <g transform="matrix(1,0,0,1,886.5,188.1)">
        <g id="h">
            <path id="q" d="M116.1,0L35.692,4.699L112.144,30.049L33.26,13.777L100.546,58.05L28.561,21.915L82.095,82.095L21.915,28.561L58.05,100.546L13.777,33.26L30.049,112.144L4.699,35.692L0,116.1L-1,-1L116.1,0Z" style="fill:rgb(229,190,1);fill-rule:nonzero;"/>
            <g id="q1" serif:id="q" transform="matrix(1,0,0,-1,0,0)">
                <path d="M116.1,0L35.692,4.699L112.144,30.049L33.26,13.777L100.546,58.05L28.561,21.915L82.095,82.095L21.915,28.561L58.05,100.546L13.777,33.26L30.049,112.144L4.699,35.692L0,116.1L-1,-1L116.1,0Z" style="fill:rgb(229,190,1);fill-rule:nonzero;"/>
            </g>
        </g>
        <g id="h1" serif:id="h" transform="matrix(-1,0,0,1,0,0)">
            <path id="q2" serif:id="q" d="M116.1,0L35.692,4.699L112.144,30.049L33.26,13.777L100.546,58.05L28.561,21.915L82.095,82.095L21.915,28.561L58.05,100.546L13.777,33.26L30.049,112.144L4.699,35.692L0,116.1L-1,-1L116.1,0Z" style="fill:rgb(229,190,1);fill-rule:nonzero;"/>
            <g id="q3" serif:id="q" transform="matrix(1,0,0,-1,0,0)">
                <path d="M116.1,0L35.692,4.699L112.144,30.049L33.26,13.777L100.546,58.05L28.561,21.915L82.095,82.095L21.915,28.561L58.05,100.546L13.777,33.26L30.049,112.144L4.699,35.692L0,116.1L-1,-1L116.1,0Z" style="fill:rgb(229,190,1);fill-rule:nonzero;"/>
            </g>
        </g>
        <circle cx="0" cy="0" r="34.3" style="fill:rgb(229,190,1);stroke:rgb(0,161,222);stroke-width:3.4px;"/>
    </g>
</svg>
